{
.appVersion = "3077";
classes = (
{
automatic = 1;

glyphs = (
{
glyphname = A;
layers = (
{
anchors = (
{
name = bottom;
position = "{229, 0}";
},
{
name = ogonek;
position = "{515, 10}";
},
{
name = top;
position = "{329, 665}";
}
);
layerId = "230F8D9C-4AAC-4C97-935A-A5529CE4A32C";
paths = (
{
closed = 1;
nodes = (
"372 586 LINE SMOOTH",
"364 621 OFFCURVE",
"356 653 OFFCURVE",
"350 688 CURVE",
"307 688 LINE",
"294 653 OFFCURVE",
"279 621 OFFCURVE",
"263 586 CURVE SMOOTH",
"45 100 LINE SMOOTH",
"13 30 OFFCURVE",
"-3 25 OFFCURVE",
"-27 23 CURVE",
"-27 0 LINE",
"141 0 LINE",
"141 23 LINE",
"72 25 OFFCURVE",
"56 31 OFFCURVE",
"87 100 CURVE SMOOTH",
"153 248 LINE SMOOTH",
"164 273 OFFCURVE",
"177 275 OFFCURVE",
"204 275 CURVE SMOOTH",
"336 275 LINE SMOOTH",
"349 275 OFFCURVE",
"362 276 OFFCURVE",
"371 283 CURVE",
"416 100 LINE SMOOTH",
"433 30 OFFCURVE",
"428 25 OFFCURVE",
"381 23 CURVE",
"381 0 LINE",
"574 0 LINE",
"574 23 LINE",
"522 25 OFFCURVE",
"506 30 OFFCURVE",
"489 100 CURVE SMOOTH"
);
},
{
closed = 1;
nodes = (
"204 305 LINE SMOOTH",
"194 305 OFFCURVE",
"185 305 OFFCURVE",
"177 302 CURVE",
"299 576 LINE",
"301 576 LINE",
"360 330 LINE SMOOTH",
"365 309 OFFCURVE",
"358 305 OFFCURVE",
"341 305 CURVE SMOOTH"
);
}
);
width = 587;
}
);
leftKerningGroup = A;
rightKerningGroup = A;
unicode = 0041;
},
{
glyphname = Aogonek;
layers = (
{
anchors = (
{
name = _ogonek;
position = "{477, 0}";
},
{
name = bottom;
position = "{269, 0}";
},
{
name = ogonek;
position = "{515, 10}";
},
{
name = top;
position = "{329, 665}";
}
);
layerId = "230F8D9C-4AAC-4C97-935A-A5529CE4A32C";
paths = (
{
closed = 1;
nodes = (
"372 586 LINE SMOOTH",
"364 621 OFFCURVE",
"356 653 OFFCURVE",
"350 688 CURVE",
"307 688 LINE",
"294 653 OFFCURVE",
"279 621 OFFCURVE",
"263 586 CURVE SMOOTH",
"45 100 LINE SMOOTH",
"13 30 OFFCURVE",
"-3 25 OFFCURVE",
"-27 23 CURVE",
"-27 0 LINE",
"141 0 LINE",
"141 23 LINE",
"72 25 OFFCURVE",
"56 31 OFFCURVE",
"87 100 CURVE SMOOTH",
"153 248 LINE SMOOTH",
"164 273 OFFCURVE",
"177 275 OFFCURVE",
"204 275 CURVE SMOOTH",
"337 275 LINE SMOOTH",
"350 275 OFFCURVE",
"363 276 OFFCURVE",
"372 283 CURVE",
"440 0 LINE",
"443 -13 LINE",
"472 0 LINE",
"572 0 LINE",
"572 23 LINE",
"520 25 OFFCURVE",
"504 30 OFFCURVE",
"487 100 CURVE SMOOTH"
);
},
{
closed = 1;
nodes = (
"204 305 LINE SMOOTH",
"194 305 OFFCURVE",
"185 305 OFFCURVE",
"177 302 CURVE",
"299 576 LINE",
"301 576 LINE",
"361 330 LINE SMOOTH",
"366 309 OFFCURVE",
"359 305 OFFCURVE",
"342 305 CURVE SMOOTH"
);
},
{
closed = 1;
nodes = (
"440 0 LINE",
"363 -42 OFFCURVE",
"312 -103 OFFCURVE",
"312 -160 CURVE SMOOTH",
"312 -204 OFFCURVE",
"342 -235 OFFCURVE",
"385 -235 CURVE SMOOTH",
"419 -235 OFFCURVE",
"458 -216 OFFCURVE",
"495 -163 CURVE",
"478 -147 LINE",
"457 -170 OFFCURVE",
"438 -185 OFFCURVE",
"415 -185 CURVE SMOOTH",
"389 -185 OFFCURVE",
"377 -165 OFFCURVE",
"377 -141 CURVE SMOOTH",
"377 -87 OFFCURVE",
"441 0 OFFCURVE",
"523 0 CURVE"
);
}
);
width = 585;
}
);
leftKerningGroup = A;
leftMetricsKey = "=A";
rightKerningGroup = A;
rightMetricsKey = "=A";
unicode = 0104;
},
{
glyphname = AE;
layers = (
{
anchors = (
{
name = bottom;
position = "{-27, 0}";
},
{
name = ogonek;
position = "{219, 10}";
},
{
name = top;
position = "{563, 665}";
},
{
name = topleft;
position = "{301, 665}";
}
);
layerId = "230F8D9C-4AAC-4C97-935A-A5529CE4A32C";
paths = (
{
closed = 1;
nodes = (
"761 85 OFFCURVE",
"728 30 OFFCURVE",
"628 30 CURVE SMOOTH",
"514 30 LINE SMOOTH",
"454 30 OFFCURVE",
"438 35 OFFCURVE",
"443 100 CURVE SMOOTH",
"458 311 LINE SMOOTH",
"461 349 OFFCURVE",
"473 358 OFFCURVE",
"510 358 CURVE SMOOTH",
"625 358 LINE SMOOTH",
"673 358 OFFCURVE",
"681 343 OFFCURVE",
"681 285 CURVE",
"704 285 LINE",
"716 455 LINE",
"693 455 LINE",
"688 411 OFFCURVE",
"665 388 OFFCURVE",
"625 388 CURVE SMOOTH",
"510 388 LINE SMOOTH",
"490 388 OFFCURVE",
"474 386 OFFCURVE",
"463 378 CURVE",
"475 565 LINE SMOOTH",
"479 630 OFFCURVE",
"485 635 OFFCURVE",
"524 635 CURVE SMOOTH",
"614 635 LINE SMOOTH",
"710 635 OFFCURVE",
"720 595 OFFCURVE",
"720 525 CURVE",
"743 525 LINE",
"752 665 LINE",
"314 665 LINE",
"314 642 LINE",
"351 640 OFFCURVE",
"379 638 OFFCURVE",
"394 620 CURVE",
"55 100 LINE SMOOTH",
"10 31 OFFCURVE",
"-3 25 OFFCURVE",
"-27 23 CURVE",
"-27 0 LINE",
"148 0 LINE",
"148 23 LINE",
"79 25 OFFCURVE",
"60 32 OFFCURVE",
"104 100 CURVE SMOOTH",
"198 245 LINE SMOOTH",
"212 267 OFFCURVE",
"230 275 OFFCURVE",
"258 275 CURVE SMOOTH",
"350 275 LINE SMOOTH",
"363 275 OFFCURVE",
"376 276 OFFCURVE",
"385 282 CURVE",
"373 100 LINE SMOOTH",
"368 30 OFFCURVE",
"362 25 OFFCURVE",
"324 23 CURVE",
"324 0 LINE",
"776 0 LINE",
"795 155 LINE",
"772 155 LINE"
);
},
{
closed = 1;
nodes = (
"387 309 OFFCURVE",
"377 305 OFFCURVE",
"359 305 CURVE SMOOTH",
"262 305 LINE SMOOTH",
"252 305 OFFCURVE",
"243 305 OFFCURVE",
"235 302 CURVE",
"403 565 LINE",
"405 565 LINE",
"388 329 LINE SMOOTH"
);
}
);
width = 818;
}
);
leftKerningGroup = A;
leftMetricsKey = "=A";
rightKerningGroup = E;
rightMetricsKey = "=E";
unicode = 00C6;
},
{
glyphname = B;
layers = (
{
anchors = (
{
name = bottom;
position = "{269, 0}";
},
{
name = top;
position = "{299, 665}";
}
);
layerId = "230F8D9C-4AAC-4C97-935A-A5529CE4A32C";
paths = (
{
closed = 1;
nodes = (
"279 0 LINE SMOOTH",
"473 0 OFFCURVE",
"562 122 OFFCURVE",
"562 224 CURVE SMOOTH",
"562 327 OFFCURVE",
"463 377 OFFCURVE",
"348 382 CURVE",
"348 384 LINE",
"421 411 OFFCURVE",
"502 456 OFFCURVE",
"502 551 CURVE SMOOTH",
"502 625 OFFCURVE",
"446 670 OFFCURVE",
"304 670 CURVE SMOOTH",
"257 670 OFFCURVE",
"215 665 OFFCURVE",
"129 665 CURVE SMOOTH",
"50 665 LINE",
"50 642 LINE",
"110 639 OFFCURVE",
"126 634 OFFCURVE",
"121 565 CURVE SMOOTH",
"89 100 LINE SMOOTH",
"84 30 OFFCURVE",
"78 25 OFFCURVE",
"40 23 CURVE",
"40 0 LINE"
);
},
{
closed = 1;
nodes = (
"181 33 OFFCURVE",
"155 38 OFFCURVE",
"159 100 CURVE SMOOTH",
"173 299 LINE SMOOTH",
"176 344 OFFCURVE",
"205 356 OFFCURVE",
"268 358 CURVE SMOOTH",
"389 362 OFFCURVE",
"482 325 OFFCURVE",
"482 212 CURVE SMOOTH",
"482 141 OFFCURVE",
"448 33 OFFCURVE",
"250 33 CURVE SMOOTH"
);
},
{
closed = 1;
nodes = (
"191 565 LINE SMOOTH",
"195 622 OFFCURVE",
"212 637 OFFCURVE",
"286 637 CURVE SMOOTH",
"338 637 OFFCURVE",
"422 631 OFFCURVE",
"422 535 CURVE SMOOTH",
"422 423 OFFCURVE",
"318 395 OFFCURVE",
"231 385 CURVE SMOOTH",
"204 382 OFFCURVE",
"190 378 OFFCURVE",
"178 367 CURVE"
);
}
);
width = 604;
}
);
leftKerningGroup = H;
leftMetricsKey = "=H";
rightKerningGroup = O;
rightMetricsKey = "=O-10";
unicode = 0042;
},
{
glyphname = Bstroke;
layers = (
{
anchors = (
{
name = bottom;
position = "{259, 0}";
},
{
name = top;
position = "{289, 665}";
}
);
layerId = "230F8D9C-4AAC-4C97-935A-A5529CE4A32C";
paths = (
{
closed = 1;
nodes = (
"269 0 LINE SMOOTH",
"463 0 OFFCURVE",
"552 122 OFFCURVE",
"552 224 CURVE SMOOTH",
"552 327 OFFCURVE",
"453 377 OFFCURVE",
"338 382 CURVE",
"338 384 LINE",
"411 411 OFFCURVE",
"492 456 OFFCURVE",
"492 551 CURVE SMOOTH",
"492 625 OFFCURVE",
"436 670 OFFCURVE",
"294 670 CURVE SMOOTH",
"247 670 OFFCURVE",
"205 665 OFFCURVE",
"119 665 CURVE SMOOTH",
"40 665 LINE",
"40 642 LINE",
"100 639 OFFCURVE",
"116 634 OFFCURVE",
"111 565 CURVE SMOOTH",
"79 100 LINE SMOOTH",
"74 30 OFFCURVE",
"68 25 OFFCURVE",
"30 23 CURVE",
"30 0 LINE"
);
},
{
closed = 1;
nodes = (
"171 33 OFFCURVE",
"145 38 OFFCURVE",
"149 100 CURVE SMOOTH",
"163 299 LINE SMOOTH",
"166 344 OFFCURVE",
"195 356 OFFCURVE",
"258 358 CURVE SMOOTH",
"379 362 OFFCURVE",
"472 325 OFFCURVE",
"472 212 CURVE SMOOTH",
"472 141 OFFCURVE",
"438 33 OFFCURVE",
"240 33 CURVE SMOOTH"
);
},
{
closed = 1;
nodes = (
"181 565 LINE SMOOTH",
"185 622 OFFCURVE",
"202 637 OFFCURVE",
"276 637 CURVE SMOOTH",
"328 637 OFFCURVE",
"412 631 OFFCURVE",
"412 535 CURVE SMOOTH",
"412 423 OFFCURVE",
"308 395 OFFCURVE",
"221 385 CURVE SMOOTH",
"194 382 OFFCURVE",
"180 378 OFFCURVE",
"168 367 CURVE"
);
},
{
closed = 1;
nodes = (
"348 227 LINE",
"8 227 LINE",
"8 192 LINE",
"348 192 LINE"
);
}
);
width = 594;
}
);
leftKerningGroup = H;
leftMetricsKey = "=Dcroat";
rightKerningGroup = O;
rightMetricsKey = "=B";
unicode = 0243;
},
{
glyphname = C;
layers = (
{
anchors = (
{
name = bottom;
position = "{359, 0}";
},
{
name = top;
position = "{409, 665}";
}
);
layerId = "230F8D9C-4AAC-4C97-935A-A5529CE4A32C";
paths = (
{
closed = 1;
nodes = (
"519 -15 OFFCURVE",
"611 87 OFFCURVE",
"633 108 CURVE",
"647 220 LINE",
"624 220 LINE",
"597 128 OFFCURVE",
"502 18 OFFCURVE",
"364 18 CURVE SMOOTH",
"230 18 OFFCURVE",
"123 123 OFFCURVE",
"123 300 CURVE SMOOTH",
"123 478 OFFCURVE",
"232 647 OFFCURVE",
"419 647 CURVE SMOOTH",
"507 647 OFFCURVE",
"621 609 OFFCURVE",
"621 485 CURVE",
"644 485 LINE",
"654 643 LINE",
"583 668 OFFCURVE",
"507 680 OFFCURVE",
"440 680 CURVE SMOOTH",
"176 680 OFFCURVE",
"43 496 OFFCURVE",
"43 304 CURVE SMOOTH",
"43 100 OFFCURVE",
"192 -15 OFFCURVE",
"360 -15 CURVE SMOOTH"
);
}
);
width = 697;
}
);
leftKerningGroup = O;
leftMetricsKey = "=O";
rightKerningGroup = C;
unicode = 0043;
},
{
glyphname = D;
layers = (
{
anchors = (
{
name = bottom;
position = "{338, 0}";
},
{
name = center;
position = "{358, 353}";
},
{
name = top;
position = "{358, 665}";
}
);
layerId = "230F8D9C-4AAC-4C97-935A-A5529CE4A32C";
paths = (
{
closed = 1;
nodes = (
"260 0 LINE SMOOTH",
"494 0 OFFCURVE",
"665 147 OFFCURVE",
"665 372 CURVE SMOOTH",
"665 558 OFFCURVE",
"530 670 OFFCURVE",
"303 670 CURVE SMOOTH",
"258 670 OFFCURVE",
"192 665 OFFCURVE",
"129 665 CURVE SMOOTH",
"50 665 LINE",
"50 642 LINE",
"110 639 OFFCURVE",
"126 634 OFFCURVE",
"121 565 CURVE SMOOTH",
"89 100 LINE SMOOTH",
"84 30 OFFCURVE",
"78 25 OFFCURVE",
"40 23 CURVE",
"40 0 LINE"
);
},
{
closed = 1;
nodes = (
"171 33 OFFCURVE",
"155 38 OFFCURVE",
"159 100 CURVE SMOOTH",
"191 565 LINE SMOOTH",
"195 622 OFFCURVE",
"212 637 OFFCURVE",
"281 637 CURVE SMOOTH",
"489 637 OFFCURVE",
"585 554 OFFCURVE",
"585 368 CURVE SMOOTH",
"585 158 OFFCURVE",
"471 33 OFFCURVE",
"237 33 CURVE SMOOTH"
);
}
);
width = 707;
}
);
leftKerningGroup = H;
leftMetricsKey = "=H";
rightKerningGroup = O;
rightMetricsKey = "=O";
unicode = 0044;
},
{
glyphname = E;
layers = (
{
anchors = (
{
name = bottom;
position = "{291, 0}";
},
{
name = ogonek;
position = "{455, 0}";
},
{
name = top;
position = "{311, 665}";
},
{
name = topleft;
position = "{17, 665}";
}
);
layerId = "230F8D9C-4AAC-4C97-935A-A5529CE4A32C";
paths = (
{
closed = 1;
nodes = (
"522 0 LINE",
"541 155 LINE",
"518 155 LINE",
"507 85 OFFCURVE",
"474 30 OFFCURVE",
"374 30 CURVE SMOOTH",
"231 30 LINE SMOOTH",
"171 30 OFFCURVE",
"156 35 OFFCURVE",
"160 100 CURVE SMOOTH",
"173 311 LINE SMOOTH",
"175 349 OFFCURVE",
"188 358 OFFCURVE",
"225 358 CURVE SMOOTH",
"370 358 LINE SMOOTH",
"418 358 OFFCURVE",
"426 343 OFFCURVE",
"426 285 CURVE",
"449 285 LINE",
"461 455 LINE",
"438 455 LINE",
"433 411 OFFCURVE",
"410 388 OFFCURVE",
"370 388 CURVE SMOOTH",
"225 388 LINE SMOOTH",
"205 388 OFFCURVE",
"189 386 OFFCURVE",
"178 378 CURVE",
"191 565 LINE SMOOTH",
"196 630 OFFCURVE",
"201 635 OFFCURVE",
"240 635 CURVE SMOOTH",
"360 635 LINE SMOOTH",
"456 635 OFFCURVE",
"466 595 OFFCURVE",
"466 525 CURVE",
"489 525 LINE",
"498 665 LINE",
"50 665 LINE",
"50 642 LINE",
"110 639 OFFCURVE",
"126 634 OFFCURVE",
"121 565 CURVE SMOOTH",
"89 100 LINE SMOOTH",
"84 30 OFFCURVE",
"78 25 OFFCURVE",
"40 23 CURVE",
"40 0 LINE"
);
}
);
width = 564;
}
);
leftKerningGroup = H;
leftMetricsKey = "=H";
rightKerningGroup = E;
unicode = 0045;
},
{
glyphname = F;
layers = (
{
anchors = (
{
name = bottom;
position = "{254, 0}";
},
{
name = top;
position = "{304, 665}";
}
);
layerId = "230F8D9C-4AAC-4C97-935A-A5529CE4A32C";
paths = (
{
closed = 1;
nodes = (
"250 0 LINE",
"250 23 LINE",
"170 25 OFFCURVE",
"154 30 OFFCURVE",
"159 100 CURVE SMOOTH",
"172 291 LINE SMOOTH",
"175 328 OFFCURVE",
"187 338 OFFCURVE",
"224 338 CURVE SMOOTH",
"360 338 LINE SMOOTH",
"408 338 OFFCURVE",
"416 323 OFFCURVE",
"416 265 CURVE",
"439 265 LINE",
"451 435 LINE",
"428 435 LINE",
"423 391 OFFCURVE",
"400 368 OFFCURVE",
"360 368 CURVE SMOOTH",
"224 368 LINE SMOOTH",
"204 368 OFFCURVE",
"188 366 OFFCURVE",
"177 358 CURVE",
"191 565 LINE SMOOTH",
"195 630 OFFCURVE",
"201 635 OFFCURVE",
"240 635 CURVE SMOOTH",
"341 635 LINE SMOOTH",
"436 635 OFFCURVE",
"446 595 OFFCURVE",
"446 525 CURVE",
"469 525 LINE",
"478 665 LINE",
"50 665 LINE",
"50 642 LINE",
"110 639 OFFCURVE",
"126 634 OFFCURVE",
"121 565 CURVE SMOOTH",
"89 100 LINE SMOOTH",
"84 30 OFFCURVE",
"78 25 OFFCURVE",
"40 23 CURVE",
"40 0 LINE"
);
}
);
width = 511;
}
);
leftKerningGroup = H;
leftMetricsKey = "=E";
rightKerningGroup = F;
unicode = 0046;
},
{
glyphname = G;
layers = (
{
anchors = (
{
name = bottom;
position = "{329, 0}";
},
{
name = top;
position = "{419, 665}";
}
);
layerId = "230F8D9C-4AAC-4C97-935A-A5529CE4A32C";
paths = (
{
closed = 1;
nodes = (
"497 -15 OFFCURVE",
"587 55 OFFCURVE",
"624 89 CURVE",
"619 123 OFFCURVE",
"619 147 OFFCURVE",
"622 190 CURVE SMOOTH",
"626 248 LINE SMOOTH",
"628 282 OFFCURVE",
"635 293 OFFCURVE",
"665 295 CURVE",
"665 318 LINE",
"442 318 LINE",
"442 295 LINE",
"545 293 OFFCURVE",
"561 288 OFFCURVE",
"557 190 CURVE SMOOTH",
"555 136 OFFCURVE",
"553 119 OFFCURVE",
"544 99 CURVE SMOOTH",
"526 59 OFFCURVE",
"457 18 OFFCURVE",
"367 18 CURVE SMOOTH",
"221 18 OFFCURVE",
"123 123 OFFCURVE",
"123 300 CURVE SMOOTH",
"123 476 OFFCURVE",
"230 647 OFFCURVE",
"412 647 CURVE SMOOTH",
"489 647 OFFCURVE",
"611 619 OFFCURVE",
"611 490 CURVE",
"634 490 LINE",
"644 643 LINE",
"574 668 OFFCURVE",
"496 680 OFFCURVE",
"431 680 CURVE SMOOTH",
"176 680 OFFCURVE",
"43 496 OFFCURVE",
"43 304 CURVE SMOOTH",
"43 100 OFFCURVE",
"192 -15 OFFCURVE",
"364 -15 CURVE SMOOTH"
);
}
);
width = 698;
}
);
leftKerningGroup = O;
leftMetricsKey = "=C";
rightKerningGroup = C;
unicode = 0047;
},
{
glyphname = H;
layers = (
{
anchors = (
{
name = bottom;
position = "{334, 0}";
},
{
name = center;
position = "{354, 333}";
},
{
name = top;
position = "{354, 665}";
},
{
name = topleft;
position = "{27, 665}";
}
);
layerId = "230F8D9C-4AAC-4C97-935A-A5529CE4A32C";
paths = (
{
closed = 1;
nodes = (
"230 0 LINE",
"230 23 LINE",
"170 25 OFFCURVE",
"154 30 OFFCURVE",
"159 100 CURVE SMOOTH",
"174 323 LINE SMOOTH",
"177 361 OFFCURVE",
"189 370 OFFCURVE",
"226 370 CURVE SMOOTH",
"488 370 LINE SMOOTH",
"509 370 OFFCURVE",
"525 373 OFFCURVE",
"536 383 CURVE",
"516 100 LINE SMOOTH",
"511 30 OFFCURVE",
"505 25 OFFCURVE",
"467 23 CURVE",
"467 0 LINE",
"657 0 LINE",
"657 23 LINE",
"597 25 OFFCURVE",
"581 30 OFFCURVE",
"586 100 CURVE SMOOTH",
"618 565 LINE SMOOTH",
"623 634 OFFCURVE",
"629 639 OFFCURVE",
"667 642 CURVE",
"667 665 LINE",
"477 665 LINE",
"477 642 LINE",
"537 639 OFFCURVE",
"553 634 OFFCURVE",
"548 565 CURVE SMOOTH",
"540 450 LINE SMOOTH",
"537 409 OFFCURVE",
"525 400 OFFCURVE",
"488 400 CURVE SMOOTH",
"226 400 LINE SMOOTH",
"206 400 OFFCURVE",
"190 398 OFFCURVE",
"179 390 CURVE",
"191 565 LINE SMOOTH",
"196 634 OFFCURVE",
"202 639 OFFCURVE",
"240 642 CURVE",
"240 665 LINE",
"50 665 LINE",
"50 642 LINE",
"110 639 OFFCURVE",
"126 634 OFFCURVE",
"121 565 CURVE SMOOTH",
"89 100 LINE SMOOTH",
"84 30 OFFCURVE",
"78 25 OFFCURVE",
"40 23 CURVE",
"40 0 LINE"
);
}
);
width = 707;
}
);
leftKerningGroup = H;
rightKerningGroup = H;
unicode = 0048;
},
{
glyphname = Hbar;
layers = (
{
anchors = (
{
name = bottom;
position = "{334, 0}";
},
{
name = center;
position = "{354, 333}";
},
{
name = top;
position = "{354, 665}";
},
{
name = topleft;
position = "{27, 665}";
}
);
layerId = "230F8D9C-4AAC-4C97-935A-A5529CE4A32C";
paths = (
{
closed = 1;
nodes = (
"697 543 LINE",
"35 543 LINE",
"35 508 LINE",
"697 508 LINE"
);
},
{
closed = 1;
nodes = (
"230 0 LINE",
"230 23 LINE",
"170 25 OFFCURVE",
"154 30 OFFCURVE",
"159 100 CURVE SMOOTH",
"174 323 LINE SMOOTH",
"177 361 OFFCURVE",
"189 370 OFFCURVE",
"226 370 CURVE SMOOTH",
"488 370 LINE SMOOTH",
"509 370 OFFCURVE",
"525 373 OFFCURVE",
"536 383 CURVE",
"516 100 LINE SMOOTH",
"511 30 OFFCURVE",
"505 25 OFFCURVE",
"467 23 CURVE",
"467 0 LINE",
"657 0 LINE",
"657 23 LINE",
"597 25 OFFCURVE",
"581 30 OFFCURVE",
"586 100 CURVE SMOOTH",
"618 565 LINE SMOOTH",
"623 634 OFFCURVE",
"629 639 OFFCURVE",
"667 642 CURVE",
"667 665 LINE",
"477 665 LINE",
"477 642 LINE",
"537 639 OFFCURVE",
"553 634 OFFCURVE",
"548 565 CURVE SMOOTH",
"540 450 LINE SMOOTH",
"537 409 OFFCURVE",
"525 400 OFFCURVE",
"488 400 CURVE SMOOTH",
"226 400 LINE SMOOTH",
"206 400 OFFCURVE",
"190 398 OFFCURVE",
"179 390 CURVE",
"191 565 LINE SMOOTH",
"196 634 OFFCURVE",
"202 639 OFFCURVE",
"240 642 CURVE",
"240 665 LINE",
"50 665 LINE",
"50 642 LINE",
"110 639 OFFCURVE",
"126 634 OFFCURVE",
"121 565 CURVE SMOOTH",
"89 100 LINE SMOOTH",
"84 30 OFFCURVE",
"78 25 OFFCURVE",
"40 23 CURVE",
"40 0 LINE"
);
}
);
width = 693;
}
);
leftKerningGroup = H;
rightKerningGroup = H;
unicode = 0126;
},
{
glyphname = I;
layers = (
{
anchors = (
{
name = bottom;
position = "{122, 0}";
},
{
name = ogonek;
position = "{195, 0}";
},
{
name = top;
position = "{162, 665}";
},
{
name = topleft;
position = "{19, 665}";
}
);
layerId = "230F8D9C-4AAC-4C97-935A-A5529CE4A32C";
paths = (
{
closed = 1;
nodes = (
"232 0 LINE",
"232 23 LINE",
"172 25 OFFCURVE",
"156 30 OFFCURVE",
"161 100 CURVE SMOOTH",
"193 565 LINE SMOOTH",
"198 634 OFFCURVE",
"204 639 OFFCURVE",
"242 642 CURVE",
"242 665 LINE",
"52 665 LINE",
"52 642 LINE",
"112 639 OFFCURVE",
"128 634 OFFCURVE",
"123 565 CURVE SMOOTH",
"91 100 LINE SMOOTH",
"86 30 OFFCURVE",
"80 25 OFFCURVE",
"42 23 CURVE",
"42 0 LINE"
);
}
);
width = 284;
}
);
leftKerningGroup = H;
rightKerningGroup = H;
unicode = 0049;
},
{
glyphname = IJ;
layers = (
{
anchors = (
{
name = bottom;
position = "{380, -225}";
},
{
name = ogonek;
position = "{195, 0}";
},
{
name = top;
position = "{445, 665}";
},
{
name = topleft;
position = "{19, 665}";
}
);
layerId = "230F8D9C-4AAC-4C97-935A-A5529CE4A32C";
paths = (
{
closed = 1;
nodes = (
"232 0 LINE",
"232 23 LINE",
"172 25 OFFCURVE",
"156 30 OFFCURVE",
"161 100 CURVE SMOOTH",
"193 565 LINE SMOOTH",
"198 634 OFFCURVE",
"204 639 OFFCURVE",
"242 642 CURVE",
"242 665 LINE",
"52 665 LINE",
"52 642 LINE",
"112 639 OFFCURVE",
"128 634 OFFCURVE",
"123 565 CURVE SMOOTH",
"91 100 LINE SMOOTH",
"86 30 OFFCURVE",
"80 25 OFFCURVE",
"42 23 CURVE",
"42 0 LINE"
);
},
{
closed = 1;
nodes = (
"357 -225 OFFCURVE",
"428 -150 OFFCURVE",
"437 -15 CURVE SMOOTH",
"477 565 LINE SMOOTH",
"482 634 OFFCURVE",
"488 639 OFFCURVE",
"526 642 CURVE",
"526 665 LINE",
"336 665 LINE",
"336 642 LINE",
"396 639 OFFCURVE",
"412 634 OFFCURVE",
"407 565 CURVE SMOOTH",
"368 0 LINE SMOOTH",
"358 -138 OFFCURVE",
"340 -192 OFFCURVE",
"270 -202 CURVE",
"270 -225 LINE"
);
}
);
width = 558;
}
);
leftKerningGroup = H;
rightKerningGroup = H;
unicode = 0132;
},
{
glyphname = J;
layers = (
{
anchors = (
{
name = bottom;
position = "{96, -225}";
},
{
name = top;
position = "{161, 665}";
}
);
layerId = "230F8D9C-4AAC-4C97-935A-A5529CE4A32C";
paths = (
{
closed = 1;
nodes = (
"73 -225 OFFCURVE",
"144 -150 OFFCURVE",
"153 -15 CURVE SMOOTH",
"193 565 LINE SMOOTH",
"198 634 OFFCURVE",
"204 639 OFFCURVE",
"242 642 CURVE",
"242 665 LINE",
"52 665 LINE",
"52 642 LINE",
"112 639 OFFCURVE",
"128 634 OFFCURVE",
"123 565 CURVE SMOOTH",
"84 0 LINE SMOOTH",
"74 -138 OFFCURVE",
"56 -192 OFFCURVE",
"-14 -202 CURVE",
"-14 -225 LINE"
);
}
);
width = 240;
}
);
leftKerningGroup = H;
rightKerningGroup = N;
rightMetricsKey = "=N";
unicode = 004A;
},
{
glyphname = K;
layers = (
{
anchors = (
{
name = bottom;
position = "{311, 0}";
},
{
name = top;
position = "{301, 665}";
}
);
layerId = "230F8D9C-4AAC-4C97-935A-A5529CE4A32C";
paths = (
{
closed = 1;
nodes = (
"581 -4 OFFCURVE",
"596 -3 OFFCURVE",
"613 0 CURVE",
"613 23 LINE",
"565 23 OFFCURVE",
"551 35 OFFCURVE",
"500 103 CURVE SMOOTH",
"276 402 LINE SMOOTH",
"266 416 OFFCURVE",
"265 424 OFFCURVE",
"276 434 CURVE SMOOTH",
"443 590 LINE SMOOTH",
"482 627 OFFCURVE",
"505 639 OFFCURVE",
"555 642 CURVE",
"555 665 LINE",
"370 665 LINE",
"370 642 LINE",
"405 640 OFFCURVE",
"413 636 OFFCURVE",
"413 627 CURVE SMOOTH",
"413 614 OFFCURVE",
"403 603 OFFCURVE",
"370 573 CURVE SMOOTH",
"181 397 LINE",
"179 397 LINE",
"191 565 LINE SMOOTH",
"196 634 OFFCURVE",
"202 639 OFFCURVE",
"240 642 CURVE",
"240 665 LINE",
"50 665 LINE",
"50 642 LINE",
"110 639 OFFCURVE",
"126 634 OFFCURVE",
"121 565 CURVE SMOOTH",
"89 100 LINE SMOOTH",
"84 30 OFFCURVE",
"78 25 OFFCURVE",
"40 23 CURVE",
"40 0 LINE",
"230 0 LINE",
"230 23 LINE",
"170 25 OFFCURVE",
"154 30 OFFCURVE",
"159 100 CURVE SMOOTH",
"175 336 LINE SMOOTH",
"177 360 OFFCURVE",
"187 370 OFFCURVE",
"198 370 CURVE SMOOTH",
"207 370 OFFCURVE",
"215 364 OFFCURVE",
"230 344 CURVE SMOOTH",
"436 71 LINE SMOOTH",
"467 31 OFFCURVE",
"496 -4 OFFCURVE",
"568 -4 CURVE SMOOTH"
);
}
);
width = 603;
}
);
leftKerningGroup = H;
leftMetricsKey = "=H";
rightKerningGroup = K;
unicode = 004B;
},
{
glyphname = L;
layers = (
{
anchors = (
{
name = bottom;
position = "{276, 0}";
},
{
name = center;
position = "{256, 333}";
},
{
name = top;
position = "{165, 665}";
},
{
name = topright;
position = "{484, 665}";
}
);
layerId = "230F8D9C-4AAC-4C97-935A-A5529CE4A32C";
paths = (
{
closed = 1;
nodes = (
"472 0 LINE",
"491 155 LINE",
"468 155 LINE",
"457 85 OFFCURVE",
"424 30 OFFCURVE",
"324 30 CURVE SMOOTH",
"230 30 LINE SMOOTH",
"170 30 OFFCURVE",
"154 35 OFFCURVE",
"159 100 CURVE SMOOTH",
"191 565 LINE SMOOTH",
"196 634 OFFCURVE",
"202 639 OFFCURVE",
"240 642 CURVE",
"240 665 LINE",
"50 665 LINE",
"50 642 LINE",
"110 639 OFFCURVE",
"126 634 OFFCURVE",
"121 565 CURVE SMOOTH",
"89 100 LINE SMOOTH",
"84 30 OFFCURVE",
"78 25 OFFCURVE",
"40 23 CURVE",
"40 0 LINE"
);
}
);
width = 504;
}
);
leftKerningGroup = H;
leftMetricsKey = "=H";
rightKerningGroup = L;
unicode = 004C;
},
{
glyphname = Ldot;
layers = (
{
anchors = (
{
name = bottom;
position = "{276, 0}";
},
{
name = center;
position = "{256, 333}";
},
{
name = top;
position = "{165, 665}";
},
{
name = topright;
position = "{484, 665}";
}
);
layerId = "230F8D9C-4AAC-4C97-935A-A5529CE4A32C";
paths = (
{
closed = 1;
nodes = (
"472 0 LINE",
"491 155 LINE",
"468 155 LINE",
"457 85 OFFCURVE",
"424 30 OFFCURVE",
"324 30 CURVE SMOOTH",
"230 30 LINE SMOOTH",
"170 30 OFFCURVE",
"154 35 OFFCURVE",
"159 100 CURVE SMOOTH",
"191 565 LINE SMOOTH",
"196 634 OFFCURVE",
"202 639 OFFCURVE",
"240 642 CURVE",
"240 665 LINE",
"50 665 LINE",
"50 642 LINE",
"110 639 OFFCURVE",
"126 634 OFFCURVE",
"121 565 CURVE SMOOTH",
"89 100 LINE SMOOTH",
"84 30 OFFCURVE",
"78 25 OFFCURVE",
"40 23 CURVE",
"40 0 LINE"
);
},
{
closed = 1;
nodes = (
"461 320 OFFCURVE",
"492 348 OFFCURVE",
"492 381 CURVE SMOOTH",
"492 400 OFFCURVE",
"482 414 OFFCURVE",
"460 414 CURVE SMOOTH",
"429 414 OFFCURVE",
"398 384 OFFCURVE",
"398 353 CURVE SMOOTH",
"398 334 OFFCURVE",
"408 320 OFFCURVE",
"430 320 CURVE SMOOTH"
);
}
);
width = 504;
}
);
leftKerningGroup = H;
leftMetricsKey = "=L";
rightKerningGroup = n;
unicode = 013F;
},
{
glyphname = Lslash;
layers = (
{
components = (
{
name = L;
transform = "{1, 0, 0, 1, 9, 0}";
}
);
layerId = "230F8D9C-4AAC-4C97-935A-A5529CE4A32C";
paths = (
{
closed = 1;
nodes = (
"404 438 LINE",
"404 478 LINE",
"159 356 LINE",
"159 316 LINE"
);
},
{
closed = 1;
nodes = (
"3 288 LINE",
"3 248 LINE",
"159 326 LINE",
"159 366 LINE"
);
}
);
width = 513;
}
);
leftKerningGroup = H;
rightKerningGroup = A;
rightMetricsKey = "=L";
unicode = 0141;
},
{
glyphname = M;
layers = (
{
anchors = (
{
name = bottom;
position = "{395, 0}";
},
{
name = top;
position = "{445, 665}";
}
);
layerId = "230F8D9C-4AAC-4C97-935A-A5529CE4A32C";
paths = (
{
closed = 1;
nodes = (
"407 -8 LINE",
"418 23 OFFCURVE",
"430 48 OFFCURVE",
"457 104 CURVE SMOOTH",
"667 535 LINE",
"669 535 LINE",
"669 100 LINE SMOOTH",
"669 30 OFFCURVE",
"663 25 OFFCURVE",
"625 23 CURVE",
"625 0 LINE",
"815 0 LINE",
"815 23 LINE",
"755 25 OFFCURVE",
"739 30 OFFCURVE",
"739 100 CURVE SMOOTH",
"739 565 LINE SMOOTH",
"739 634 OFFCURVE",
"755 640 OFFCURVE",
"815 642 CURVE",
"815 665 LINE",
"678 665 LINE",
"666 632 OFFCURVE",
"652 599 OFFCURVE",
"636 565 CURVE SMOOTH",
"407 89 LINE",
"405 89 LINE",
"225 565 LINE SMOOTH",
"211 602 OFFCURVE",
"201 630 OFFCURVE",
"193 665 CURVE",
"50 665 LINE",
"50 642 LINE",
"113 640 OFFCURVE",
"129 634 OFFCURVE",
"121 565 CURVE SMOOTH",
"69 100 LINE SMOOTH",
"61 30 OFFCURVE",
"55 25 OFFCURVE",
"20 23 CURVE",
"20 0 LINE",
"200 0 LINE",
"200 23 LINE",
"119 25 OFFCURVE",
"103 30 OFFCURVE",
"111 100 CURVE SMOOTH",
"155 535 LINE",
"157 535 LINE",
"321 104 LINE SMOOTH",
"342 48 OFFCURVE",
"353 23 OFFCURVE",
"362 -8 CURVE"
);
}
);
width = 872;
}
);
leftKerningGroup = H;
leftMetricsKey = "=I*0.9";
rightKerningGroup = H;
rightMetricsKey = "=H*1.2";
unicode = 004D;
},
{
glyphname = N;
layers = (
{
anchors = (
{
name = bottom;
position = "{352, 0}";
},
{
name = top;
position = "{372, 665}";
}
);
layerId = "230F8D9C-4AAC-4C97-935A-A5529CE4A32C";
paths = (
{
closed = 1;
nodes = (
"596 -8 LINE",
"596 30 OFFCURVE",
"599 63 OFFCURVE",
"601 100 CURVE SMOOTH",
"634 565 LINE SMOOTH",
"639 634 OFFCURVE",
"645 639 OFFCURVE",
"683 642 CURVE",
"683 665 LINE",
"503 665 LINE",
"503 642 LINE",
"582 639 OFFCURVE",
"598 634 OFFCURVE",
"594 565 CURVE SMOOTH",
"567 123 LINE",
"565 123 LINE",
"230 565 LINE SMOOTH",
"207 596 OFFCURVE",
"183 630 OFFCURVE",
"165 665 CURVE",
"50 665 LINE",
"50 642 LINE",
"105 639 OFFCURVE",
"124 614 OFFCURVE",
"121 565 CURVE SMOOTH",
"89 100 LINE SMOOTH",
"84 30 OFFCURVE",
"78 25 OFFCURVE",
"40 23 CURVE",
"40 0 LINE",
"220 0 LINE",
"220 23 LINE",
"141 25 OFFCURVE",
"125 30 OFFCURVE",
"129 100 CURVE SMOOTH",
"157 537 LINE",
"159 537 LINE",
"487 104 LINE SMOOTH",
"523 56 OFFCURVE",
"546 23 OFFCURVE",
"564 -8 CURVE"
);
}
);
width = 681;
}
);
leftKerningGroup = H;
leftMetricsKey = "=H";
rightKerningGroup = N;
rightMetricsKey = "=H*0.8";
unicode = 004E;
},
{
glyphname = NJ;
layers = (
{
anchors = (
{
name = bottom;
position = "{811, -225}";
},
{
name = top;
position = "{876, 665}";
}
);
layerId = "230F8D9C-4AAC-4C97-935A-A5529CE4A32C";
paths = (
{
closed = 1;
nodes = (
"596 -8 LINE",
"596 30 OFFCURVE",
"599 63 OFFCURVE",
"601 100 CURVE SMOOTH",
"634 565 LINE SMOOTH",
"639 634 OFFCURVE",
"645 639 OFFCURVE",
"683 642 CURVE",
"683 665 LINE",
"503 665 LINE",
"503 642 LINE",
"582 639 OFFCURVE",
"598 634 OFFCURVE",
"594 565 CURVE SMOOTH",
"567 123 LINE",
"565 123 LINE",
"230 565 LINE SMOOTH",
"207 596 OFFCURVE",
"183 630 OFFCURVE",
"165 665 CURVE",
"50 665 LINE",
"50 642 LINE",
"105 639 OFFCURVE",
"124 614 OFFCURVE",
"121 565 CURVE SMOOTH",
"89 100 LINE SMOOTH",
"84 30 OFFCURVE",
"78 25 OFFCURVE",
"40 23 CURVE",
"40 0 LINE",
"220 0 LINE",
"220 23 LINE",
"141 25 OFFCURVE",
"125 30 OFFCURVE",
"129 100 CURVE SMOOTH",
"157 537 LINE",
"159 537 LINE",
"487 104 LINE SMOOTH",
"523 56 OFFCURVE",
"546 23 OFFCURVE",
"564 -8 CURVE"
);
},
{
closed = 1;
nodes = (
"788 -225 OFFCURVE",
"859 -150 OFFCURVE",
"868 -15 CURVE SMOOTH",
"908 565 LINE SMOOTH",
"913 634 OFFCURVE",
"919 639 OFFCURVE",
"957 642 CURVE",
"957 665 LINE",
"767 665 LINE",
"767 642 LINE",
"827 639 OFFCURVE",
"843 634 OFFCURVE",
"838 565 CURVE SMOOTH",
"799 0 LINE SMOOTH",
"789 -138 OFFCURVE",
"771 -192 OFFCURVE",
"701 -202 CURVE",
"701 -225 LINE"
);
}
);
width = 989;
}
);
leftKerningGroup = H;
rightKerningGroup = N;
unicode = 01CA;
},
{
glyphname = Nj;
layers = (
{
anchors = (
{
name = bottom;
position = "{799, -233}";
},
{
name = ogonek;
position = "{787, -232}";
},
{
name = top;
position = "{895, 621}";
}
);
layerId = "230F8D9C-4AAC-4C97-935A-A5529CE4A32C";
paths = (
{
closed = 1;
nodes = (
"596 -8 LINE",
"596 30 OFFCURVE",
"599 63 OFFCURVE",
"601 100 CURVE SMOOTH",
"634 565 LINE SMOOTH",
"639 634 OFFCURVE",
"645 639 OFFCURVE",
"683 642 CURVE",
"683 665 LINE",
"503 665 LINE",
"503 642 LINE",
"582 639 OFFCURVE",
"598 634 OFFCURVE",
"594 565 CURVE SMOOTH",
"567 123 LINE",
"565 123 LINE",
"230 565 LINE SMOOTH",
"207 596 OFFCURVE",
"183 630 OFFCURVE",
"165 665 CURVE",
"50 665 LINE",
"50 642 LINE",
"105 639 OFFCURVE",
"124 614 OFFCURVE",
"121 565 CURVE SMOOTH",
"89 100 LINE SMOOTH",
"84 30 OFFCURVE",
"78 25 OFFCURVE",
"40 23 CURVE",
"40 0 LINE",
"220 0 LINE",
"220 23 LINE",
"141 25 OFFCURVE",
"125 30 OFFCURVE",
"129 100 CURVE SMOOTH",
"157 537 LINE",
"159 537 LINE",
"487 104 LINE SMOOTH",
"523 56 OFFCURVE",
"546 23 OFFCURVE",
"564 -8 CURVE"
);
},
{
closed = 1;
nodes = (
"787 -233 OFFCURVE",
"854 -141 OFFCURVE",
"864 -15 CURVE SMOOTH",
"869 45 OFFCURVE",
"893 316 OFFCURVE",
"893 376 CURVE SMOOTH",
"893 409 OFFCURVE",
"889 438 OFFCURVE",
"881 455 CURVE",
"832 431 OFFCURVE",
"748 351 OFFCURVE",
"713 307 CURVE",
"729 291 LINE",
"764 328 OFFCURVE",
"805 361 OFFCURVE",
"819 361 CURVE SMOOTH",
"826 361 OFFCURVE",
"828 356 OFFCURVE",
"828 341 CURVE SMOOTH",
"828 291 OFFCURVE",
"807 69 OFFCURVE",
"801 0 CURVE SMOOTH",
"788 -144 OFFCURVE",
"746 -205 OFFCURVE",
"677 -212 CURVE",
"677 -235 LINE"
);
},
{
closed = 1;
nodes = (
"897 560 OFFCURVE",
"928 588 OFFCURVE",
"928 621 CURVE SMOOTH",
"928 640 OFFCURVE",
"918 654 OFFCURVE",
"896 654 CURVE SMOOTH",
"865 654 OFFCURVE",
"834 624 OFFCURVE",
"834 593 CURVE SMOOTH",
"834 574 OFFCURVE",
"844 560 OFFCURVE",
"866 560 CURVE SMOOTH"
);
}
);
width = 953;
}
);
leftKerningGroup = H;
rightKerningGroup = n;
unicode = 01CB;
},
{
glyphname = Eng;
layers = (
{
anchors = (
{
name = bottom;
position = "{352, 0}";
},
{
name = top;
position = "{372, 665}";
}
);
layerId = "230F8D9C-4AAC-4C97-935A-A5529CE4A32C";
paths = (
{
closed = 1;
nodes = (
"582 639 OFFCURVE",
"598 634 OFFCURVE",
"594 565 CURVE SMOOTH",
"567 123 LINE",
"565 123 LINE",
"230 565 LINE SMOOTH",
"207 596 OFFCURVE",
"183 630 OFFCURVE",
"165 665 CURVE",
"50 665 LINE",
"50 642 LINE",
"105 639 OFFCURVE",
"124 614 OFFCURVE",
"121 565 CURVE SMOOTH",
"89 100 LINE SMOOTH",
"84 30 OFFCURVE",
"78 25 OFFCURVE",
"40 23 CURVE",
"40 0 LINE",
"220 0 LINE",
"220 23 LINE",
"141 25 OFFCURVE",
"125 30 OFFCURVE",
"129 100 CURVE SMOOTH",
"157 537 LINE",
"159 537 LINE",
"487 104 LINE SMOOTH",
"503 83 OFFCURVE",
"516 65 OFFCURVE",
"527 49 CURVE",
"524 0 LINE SMOOTH",
"514 -138 OFFCURVE",
"496 -202 OFFCURVE",
"426 -212 CURVE",
"426 -235 LINE",
"513 -235 OFFCURVE",
"584 -150 OFFCURVE",
"593 -15 CURVE SMOOTH",
"634 565 LINE SMOOTH",
"639 634 OFFCURVE",
"645 639 OFFCURVE",
"683 642 CURVE",
"683 665 LINE",
"503 665 LINE",
"503 642 LINE"
);
}
);
width = 681;
}
);
leftKerningGroup = H;
leftMetricsKey = "=N";
rightKerningGroup = N;
rightMetricsKey = "=N";
unicode = 014A;
},
{
glyphname = O;
layers = (
{
anchors = (
{
name = bottom;
position = "{326, 0}";
},
{
name = center;
position = "{376, 333}";
},
{
name = ogonek;
position = "{438, 0}";
},
{
name = top;
position = "{406, 665}";
},
{
name = topleft;
position = "{113, 665}";
},
{
name = topright;
position = "{638, 585}";
}
);
layerId = "230F8D9C-4AAC-4C97-935A-A5529CE4A32C";
paths = (
{
closed = 1;
nodes = (
"227 680 OFFCURVE",
"43 534 OFFCURVE",
"43 303 CURVE SMOOTH",
"43 101 OFFCURVE",
"184 -15 OFFCURVE",
"341 -15 CURVE SMOOTH",
"517 -15 OFFCURVE",
"701 131 OFFCURVE",
"701 362 CURVE SMOOTH",
"701 564 OFFCURVE",
"560 680 OFFCURVE",
"403 680 CURVE SMOOTH"
);
},
{
closed = 1;
nodes = (
"210 18 OFFCURVE",
"123 121 OFFCURVE",
"123 301 CURVE SMOOTH",
"123 514 OFFCURVE",
"246 647 OFFCURVE",
"399 647 CURVE SMOOTH",
"534 647 OFFCURVE",
"621 544 OFFCURVE",
"621 364 CURVE SMOOTH",
"621 151 OFFCURVE",
"498 18 OFFCURVE",
"345 18 CURVE SMOOTH"
);
}
);
width = 744;
}
);
leftKerningGroup = O;
rightKerningGroup = O;
unicode = 004F;
},
{
glyphname = Oslash;
layers = (
{
anchors = (
{
name = bottom;
position = "{326, 0}";
},
{
name = center;
position = "{376, 333}";
},
{
name = ogonek;
position = "{438, 0}";
},
{
name = top;
position = "{406, 665}";
},
{
name = topleft;
position = "{113, 665}";
},
{
name = topright;
position = "{638, 585}";
}
);
layerId = "230F8D9C-4AAC-4C97-935A-A5529CE4A32C";
paths = (
{
closed = 1;
nodes = (
"99 -12 LINE",
"126 -31 LINE",
"622 677 LINE",
"595 696 LINE"
);
},
{
closed = 1;
nodes = (
"227 680 OFFCURVE",
"43 534 OFFCURVE",
"43 303 CURVE SMOOTH",
"43 101 OFFCURVE",
"184 -15 OFFCURVE",
"341 -15 CURVE SMOOTH",
"517 -15 OFFCURVE",
"701 131 OFFCURVE",
"701 362 CURVE SMOOTH",
"701 564 OFFCURVE",
"560 680 OFFCURVE",
"403 680 CURVE SMOOTH"
);
},
{
closed = 1;
nodes = (
"210 18 OFFCURVE",
"123 121 OFFCURVE",
"123 301 CURVE SMOOTH",
"123 514 OFFCURVE",
"246 647 OFFCURVE",
"399 647 CURVE SMOOTH",
"534 647 OFFCURVE",
"621 544 OFFCURVE",
"621 364 CURVE SMOOTH",
"621 151 OFFCURVE",
"498 18 OFFCURVE",
"345 18 CURVE SMOOTH"
);
}
);
width = 744;
}
);
leftKerningGroup = O;
leftMetricsKey = "=O";
rightKerningGroup = O;
rightMetricsKey = "=O";
unicode = 00D8;
},
{
glyphname = OE;
layers = (
{
anchors = (
{
name = bottom;
position = "{1069, 0}";
},
{
name = center;
position = "{417, 333}";
},
{
name = ogonek;
position = "{1310, 0}";
},
{
name = top;
position = "{499, 665}";
},
{
name = topleft;
position = "{605, 665}";
},
{
name = topright;
position = "{569, 665}";
}
);
layerId = "230F8D9C-4AAC-4C97-935A-A5529CE4A32C";
paths = (
{
closed = 1;
nodes = (
"840 85 OFFCURVE",
"807 30 OFFCURVE",
"707 30 CURVE SMOOTH",
"573 30 LINE SMOOTH",
"513 30 OFFCURVE",
"497 35 OFFCURVE",
"502 100 CURVE SMOOTH",
"517 316 LINE SMOOTH",
"520 354 OFFCURVE",
"532 363 OFFCURVE",
"569 363 CURVE SMOOTH",
"704 363 LINE SMOOTH",
"752 363 OFFCURVE",
"760 348 OFFCURVE",
"760 290 CURVE",
"783 290 LINE",
"795 460 LINE",
"772 460 LINE",
"767 416 OFFCURVE",
"744 393 OFFCURVE",
"704 393 CURVE SMOOTH",
"569 393 LINE SMOOTH",
"549 393 OFFCURVE",
"533 391 OFFCURVE",
"522 383 CURVE",
"534 565 LINE SMOOTH",
"538 630 OFFCURVE",
"544 635 OFFCURVE",
"583 635 CURVE SMOOTH",
"693 635 LINE SMOOTH",
"789 635 OFFCURVE",
"799 595 OFFCURVE",
"799 525 CURVE",
"822 525 LINE",
"831 665 LINE",
"413 665 LINE SMOOTH",
"237 665 OFFCURVE",
"44 542 OFFCURVE",
"44 317 CURVE SMOOTH",
"44 99 OFFCURVE",
"215 0 OFFCURVE",
"372 0 CURVE SMOOTH",
"855 0 LINE",
"874 155 LINE",
"851 155 LINE"
);
},
{
closed = 1;
nodes = (
"433 110 LINE SMOOTH",
"428 40 OFFCURVE",
"422 35 OFFCURVE",
"374 33 CURVE",
"239 33 OFFCURVE",
"124 116 OFFCURVE",
"124 320 CURVE SMOOTH",
"124 518 OFFCURVE",
"242 632 OFFCURVE",
"408 632 CURVE SMOOTH",
"459 632 OFFCURVE",
"470 621 OFFCURVE",
"465 555 CURVE SMOOTH"
);
}
);
width = 913;
}
);
leftKerningGroup = O;
leftMetricsKey = "=O";
rightKerningGroup = E;
rightMetricsKey = "=e";
unicode = 0152;
},
{
glyphname = P;
layers = (
{
anchors = (
{
name = bottom;
position = "{265, 0}";
},
{
name = top;
position = "{305, 665}";
}
);
layerId = "230F8D9C-4AAC-4C97-935A-A5529CE4A32C";
paths = (
{
closed = 1;
nodes = (
"250 0 LINE",
"250 23 LINE",
"170 25 OFFCURVE",
"154 30 OFFCURVE",
"159 100 CURVE SMOOTH",
"191 565 LINE SMOOTH",
"195 622 OFFCURVE",
"212 637 OFFCURVE",
"286 637 CURVE SMOOTH",
"367 637 OFFCURVE",
"432 611 OFFCURVE",
"432 517 CURVE SMOOTH",
"432 423 OFFCURVE",
"367 351 OFFCURVE",
"203 366 CURVE",
"201 342 LINE",
"405 323 OFFCURVE",
"512 417 OFFCURVE",
"512 526 CURVE SMOOTH",
"512 622 OFFCURVE",
"427 670 OFFCURVE",
"305 670 CURVE SMOOTH",
"266 670 OFFCURVE",
"212 665 OFFCURVE",
"131 665 CURVE SMOOTH",
"50 665 LINE",
"50 642 LINE",
"110 639 OFFCURVE",
"126 634 OFFCURVE",
"121 565 CURVE SMOOTH",
"89 100 LINE SMOOTH",
"84 30 OFFCURVE",
"78 25 OFFCURVE",
"40 23 CURVE",
"40 0 LINE"
);
}
);
width = 525;
}
);
leftKerningGroup = H;
leftMetricsKey = "=H";
rightKerningGroup = F;
unicode = 0050;
},
{
glyphname = Thorn;
layers = (
{
anchors = (
{
name = bottom;
position = "{120, 0}";
},
{
name = ogonek;
position = "{140, 0}";
},
{
name = top;
position = "{160, 665}";
},
{
name = topleft;
position = "{17, 665}";
}
);
layerId = "230F8D9C-4AAC-4C97-935A-A5529CE4A32C";
paths = (
{
closed = 1;
nodes = (
"230 0 LINE",
"230 23 LINE",
"170 25 OFFCURVE",
"154 30 OFFCURVE",
"159 100 CURVE SMOOTH",
"181 415 LINE SMOOTH",
"185 472 OFFCURVE",
"202 487 OFFCURVE",
"276 487 CURVE SMOOTH",
"354 487 OFFCURVE",
"422 470 OFFCURVE",
"422 369 CURVE SMOOTH",
"422 269 OFFCURVE",
"360 187 OFFCURVE",
"193 202 CURVE",
"191 178 LINE",
"395 159 OFFCURVE",
"502 260 OFFCURVE",
"502 378 CURVE SMOOTH",
"502 480 OFFCURVE",
"422 520 OFFCURVE",
"303 520 CURVE SMOOTH",
"264 520 OFFCURVE",
"232 517 OFFCURVE",
"188 507 CURVE",
"191 565 LINE SMOOTH",
"195 634 OFFCURVE",
"202 639 OFFCURVE",
"240 642 CURVE",
"240 665 LINE",
"50 665 LINE",
"50 642 LINE",
"110 639 OFFCURVE",
"126 634 OFFCURVE",
"121 565 CURVE SMOOTH",
"89 100 LINE SMOOTH",
"84 30 OFFCURVE",
"78 25 OFFCURVE",
"40 23 CURVE",
"40 0 LINE"
);
}
);
width = 525;
}
);
leftKerningGroup = H;
leftMetricsKey = "=H";
rightKerningGroup = O;
rightMetricsKey = "=P";
unicode = 00DE;
},
{
glyphname = Q;
layers = (
{
anchors = (
{
name = bottom;
position = "{356, -225}";
},
{
name = top;
position = "{376, 665}";
}
);
layerId = "230F8D9C-4AAC-4C97-935A-A5529CE4A32C";
paths = (
{
closed = 1;
nodes = (
"607 -178 OFFCURVE",
"642 -131 OFFCURVE",
"661 -87 CURVE",
"640 -79 LINE",
"616 -119 OFFCURVE",
"603 -131 OFFCURVE",
"568 -131 CURVE SMOOTH",
"482 -131 OFFCURVE",
"400 -40 OFFCURVE",
"258 -54 CURVE",
"258 -52 LINE",
"284 -30 OFFCURVE",
"315 -20 OFFCURVE",
"370 -14 CURVE SMOOTH",
"569 7 OFFCURVE",
"701 174 OFFCURVE",
"701 362 CURVE SMOOTH",
"701 564 OFFCURVE",
"560 680 OFFCURVE",
"404 680 CURVE SMOOTH",
"227 680 OFFCURVE",
"43 533 OFFCURVE",
"43 304 CURVE SMOOTH",
"43 129 OFFCURVE",
"155 22 OFFCURVE",
"283 -6 CURVE",
"283 -8 LINE",
"234 -30 OFFCURVE",
"193 -67 OFFCURVE",
"163 -95 CURVE",
"179 -111 LINE",
"205 -89 OFFCURVE",
"231 -79 OFFCURVE",
"256 -79 CURVE SMOOTH",
"339 -79 OFFCURVE",
"459 -187 OFFCURVE",
"564 -200 CURVE"
);
},
{
closed = 1;
nodes = (
"210 18 OFFCURVE",
"123 121 OFFCURVE",
"123 301 CURVE SMOOTH",
"123 514 OFFCURVE",
"246 647 OFFCURVE",
"399 647 CURVE SMOOTH",
"534 647 OFFCURVE",
"621 544 OFFCURVE",
"621 364 CURVE SMOOTH",
"621 151 OFFCURVE",
"498 18 OFFCURVE",
"345 18 CURVE SMOOTH"
);
}
);
width = 751;
}
);
leftKerningGroup = O;
leftMetricsKey = "=O";
rightKerningGroup = O;
unicode = 0051;
},
{
glyphname = R;
layers = (
{
anchors = (
{
name = bottom;
position = "{331, 0}";
},
{
name = top;
position = "{291, 665}";
}
);
layerId = "230F8D9C-4AAC-4C97-935A-A5529CE4A32C";
paths = (
{
closed = 1;
nodes = (
"588 -4 OFFCURVE",
"603 -3 OFFCURVE",
"619 0 CURVE",
"619 23 LINE",
"572 23 OFFCURVE",
"559 36 OFFCURVE",
"507 103 CURVE SMOOTH",
"311 356 LINE",
"311 356 OFFCURVE",
"311 358 OFFCURVE",
"311 358 CURVE SMOOTH",
"422 371 OFFCURVE",
"507 441 OFFCURVE",
"507 533 CURVE SMOOTH",
"507 616 OFFCURVE",
"436 670 OFFCURVE",
"313 670 CURVE SMOOTH",
"257 670 OFFCURVE",
"216 665 OFFCURVE",
"131 665 CURVE SMOOTH",
"50 665 LINE",
"50 642 LINE",
"110 639 OFFCURVE",
"126 634 OFFCURVE",
"121 565 CURVE SMOOTH",
"89 100 LINE SMOOTH",
"84 30 OFFCURVE",
"78 25 OFFCURVE",
"40 23 CURVE",
"40 0 LINE",
"230 0 LINE",
"230 23 LINE",
"170 25 OFFCURVE",
"154 30 OFFCURVE",
"159 100 CURVE SMOOTH",
"191 565 LINE SMOOTH",
"195 622 OFFCURVE",
"212 637 OFFCURVE",
"286 637 CURVE SMOOTH",
"367 637 OFFCURVE",
"427 611 OFFCURVE",
"427 523 CURVE SMOOTH",
"427 416 OFFCURVE",
"337 370 OFFCURVE",
"204 384 CURVE",
"202 360 LINE",
"217 359 OFFCURVE",
"222 354 OFFCURVE",
"237 334 CURVE SMOOTH",
"443 71 LINE SMOOTH",
"474 31 OFFCURVE",
"503 -4 OFFCURVE",
"575 -4 CURVE SMOOTH"
);
}
);
width = 604;
}
);
leftKerningGroup = H;
leftMetricsKey = "=H";
rightKerningGroup = K;
unicode = 0052;
},
{
glyphname = S;
layers = (
{
anchors = (
{
name = bottom;
position = "{219, 0}";
},
{
name = top;
position = "{289, 665}";
}
);
layerId = "230F8D9C-4AAC-4C97-935A-A5529CE4A32C";
paths = (
{
closed = 1;
nodes = (
"358 -15 OFFCURVE",
"455 84 OFFCURVE",
"455 215 CURVE SMOOTH",
"455 293 OFFCURVE",
"410 326 OFFCURVE",
"288 402 CURVE SMOOTH",
"198 458 OFFCURVE",
"134 492 OFFCURVE",
"134 539 CURVE SMOOTH",
"134 590 OFFCURVE",
"203 645 OFFCURVE",
"292 645 CURVE SMOOTH",
"381 645 OFFCURVE",
"419 590 OFFCURVE",
"419 510 CURVE",
"442 510 LINE",
"451 653 LINE",
"420 667 OFFCURVE",
"359 680 OFFCURVE",
"306 680 CURVE SMOOTH",
"167 680 OFFCURVE",
"77 590 OFFCURVE",
"77 510 CURVE SMOOTH",
"77 457 OFFCURVE",
"112 421 OFFCURVE",
"245 338 CURVE SMOOTH",
"344 276 OFFCURVE",
"396 242 OFFCURVE",
"396 181 CURVE SMOOTH",
"396 93 OFFCURVE",
"346 35 OFFCURVE",
"239 35 CURVE SMOOTH",
"167 35 OFFCURVE",
"91 74 OFFCURVE",
"91 134 CURVE SMOOTH",
"91 151 OFFCURVE",
"97 175 OFFCURVE",
"109 201 CURVE",
"89 210 LINE",
"42 130 LINE SMOOTH",
"36 119 OFFCURVE",
"33 108 OFFCURVE",
"33 98 CURVE SMOOTH",
"33 27 OFFCURVE",
"124 -15 OFFCURVE",
"209 -15 CURVE SMOOTH"
);
}
);
width = 513;
}
);
leftKerningGroup = O;
leftMetricsKey = "=O+5";
rightKerningGroup = O;
rightMetricsKey = "=O+5";
unicode = 0053;
},
{
glyphname = Germandbls;
layers = (
{
layerId = "230F8D9C-4AAC-4C97-935A-A5529CE4A32C";
paths = (
{
closed = 1;
nodes = (
"412 529 OFFCURVE",
"459 598 OFFCURVE",
"558 642 CURVE",
"558 665 LINE",
"50 665 LINE",
"50 642 LINE",
"110 639 OFFCURVE",
"126 634 OFFCURVE",
"121 565 CURVE SMOOTH",
"89 100 LINE SMOOTH",
"84 30 OFFCURVE",
"78 25 OFFCURVE",
"40 23 CURVE",
"40 0 LINE",
"210 0 LINE",
"210 23 LINE",
"165 25 OFFCURVE",
"154 30 OFFCURVE",
"159 100 CURVE SMOOTH",
"191 565 LINE SMOOTH",
"195 630 OFFCURVE",
"201 635 OFFCURVE",
"240 635 CURVE SMOOTH",
"481 635 LINE",
"481 633 LINE",
"411 586 OFFCURVE",
"347 530 OFFCURVE",
"347 440 CURVE SMOOTH",
"347 278 OFFCURVE",
"540 288 OFFCURVE",
"540 139 CURVE SMOOTH",
"540 73 OFFCURVE",
"504 20 OFFCURVE",
"429 20 CURVE SMOOTH",
"370 20 OFFCURVE",
"334 53 OFFCURVE",
"302 99 CURVE",
"278 85 OFFCURVE",
"261 63 OFFCURVE",
"251 35 CURVE",
"292 2 OFFCURVE",
"349 -15 OFFCURVE",
"407 -15 CURVE SMOOTH",
"527 -15 OFFCURVE",
"605 57 OFFCURVE",
"605 162 CURVE SMOOTH",
"605 331 OFFCURVE",
"412 331 OFFCURVE",
"412 463 CURVE SMOOTH"
);
}
);
width = 619;
}
);
leftKerningGroup = H;
leftMetricsKey = "=B";
rightKerningGroup = O;
unicode = 1E9E;
},
{
glyphname = Schwa;
layers = (
{
anchors = (
{
name = bottom;
position = "{309, 0}";
},
{
name = top;
position = "{359, 665}";
}
);
layerId = "230F8D9C-4AAC-4C97-935A-A5529CE4A32C";
paths = (
{
closed = 1;
nodes = (
"265 680 OFFCURVE",
"188 668 OFFCURVE",
"113 643 CURVE",
"98 485 LINE",
"121 485 LINE",
"140 609 OFFCURVE",
"260 647 OFFCURVE",
"348 647 CURVE SMOOTH",
"511 647 OFFCURVE",
"595 518 OFFCURVE",
"595 367 CURVE SMOOTH",
"595 184 OFFCURVE",
"500 18 OFFCURVE",
"324 18 CURVE SMOOTH",
"195 18 OFFCURVE",
"118 141 OFFCURVE",
"133 275 CURVE",
"619 275 LINE",
"624 305 LINE",
"53 305 LINE",
"41 107 OFFCURVE",
"164 -15 OFFCURVE",
"323 -15 CURVE SMOOTH",
"536 -15 OFFCURVE",
"675 154 OFFCURVE",
"675 368 CURVE SMOOTH",
"675 535 OFFCURVE",
"566 680 OFFCURVE",
"332 680 CURVE SMOOTH"
);
}
);
width = 718;
}
);
leftKerningGroup = O;
leftMetricsKey = "=O*1.3";
rightKerningGroup = O;
rightMetricsKey = "=O";
unicode = 018F;
},
{
glyphname = T;
layers = (
{
anchors = (
{
name = bottom;
position = "{237, 0}";
},
{
name = center;
position = "{443, 383}";
},
{
name = top;
position = "{296, 665}";
}
);
layerId = "230F8D9C-4AAC-4C97-935A-A5529CE4A32C";
paths = (
{
closed = 1;
nodes = (
"351 0 LINE",
"351 23 LINE",
"301 25 OFFCURVE",
"285 30 OFFCURVE",
"290 100 CURVE SMOOTH",
"327 635 LINE",
"401 635 LINE SMOOTH",
"497 635 OFFCURVE",
"513 580 OFFCURVE",
"513 510 CURVE",
"536 510 LINE",
"546 665 LINE",
"38 665 LINE",
"28 510 LINE",
"51 510 LINE",
"56 580 OFFCURVE",
"88 635 OFFCURVE",
"176 635 CURVE SMOOTH",
"257 635 LINE",
"220 100 LINE SMOOTH",
"215 30 OFFCURVE",
"199 25 OFFCURVE",
"131 23 CURVE",
"131 0 LINE"
);
}
);
width = 574;
}
);
leftKerningGroup = T;
rightKerningGroup = T;
unicode = 0054;
},
{
glyphname = U;
layers = (
{
anchors = (
{
name = bottom;
position = "{325, 0}";
},
{
name = ogonek;
position = "{617, 0}";
},
{
name = top;
position = "{375, 665}";
},
{
name = topright;
position = "{692, 665}";
}
);
layerId = "230F8D9C-4AAC-4C97-935A-A5529CE4A32C";
paths = (
{
closed = 1;
nodes = (
"355 -15 OFFCURVE",
"469 58 OFFCURVE",
"531 175 CURVE",
"533 175 LINE",
"528 100 LINE SMOOTH",
"525 48 OFFCURVE",
"527 21 OFFCURVE",
"534 0 CURVE",
"664 0 LINE",
"664 23 LINE",
"604 25 OFFCURVE",
"588 30 OFFCURVE",
"593 100 CURVE SMOOTH",
"625 565 LINE SMOOTH",
"630 634 OFFCURVE",
"636 639 OFFCURVE",
"674 642 CURVE",
"674 665 LINE",
"489 665 LINE",
"489 642 LINE",
"549 639 OFFCURVE",
"565 634 OFFCURVE",
"560 565 CURVE SMOOTH",
"543 322 LINE SMOOTH",
"532 167 OFFCURVE",
"393 30 OFFCURVE",
"264 30 CURVE SMOOTH",
"176 30 OFFCURVE",
"158 98 OFFCURVE",
"163 175 CURVE SMOOTH",
"190 565 LINE SMOOTH",
"195 634 OFFCURVE",
"201 639 OFFCURVE",
"239 642 CURVE",
"239 665 LINE",
"50 665 LINE",
"50 642 LINE",
"109 639 OFFCURVE",
"125 634 OFFCURVE",
"120 565 CURVE SMOOTH",
"92 158 LINE SMOOTH",
"85 50 OFFCURVE",
"125 -15 OFFCURVE",
"246 -15 CURVE SMOOTH"
);
}
);
width = 721;
}
);
leftKerningGroup = U;
leftMetricsKey = "=I*0.9";
rightKerningGroup = H;
rightMetricsKey = "=I+5";
unicode = 0055;
},
{
glyphname = Uhorn;
layers = (
{
anchors = (
{
name = bottom;
position = "{313, 0}";
},
{
name = ogonek;
position = "{605, 0}";
},
{
name = top;
position = "{363, 665}";
},
{
name = topright;
position = "{680, 665}";
}
);
layerId = "230F8D9C-4AAC-4C97-935A-A5529CE4A32C";
paths = (
{
closed = 1;
nodes = (
"696 808 OFFCURVE",
"680 806 OFFCURVE",
"671 803 CURVE",
"671 780 LINE",
"717 774 OFFCURVE",
"724 750 OFFCURVE",
"724 730 CURVE SMOOTH",
"724 689 OFFCURVE",
"687 665 OFFCURVE",
"630 665 CURVE SMOOTH",
"477 665 LINE",
"477 642 LINE",
"537 639 OFFCURVE",
"553 634 OFFCURVE",
"548 565 CURVE SMOOTH",
"531 322 LINE SMOOTH",
"520 167 OFFCURVE",
"381 30 OFFCURVE",
"252 30 CURVE SMOOTH",
"164 30 OFFCURVE",
"146 98 OFFCURVE",
"151 175 CURVE SMOOTH",
"178 565 LINE SMOOTH",
"183 634 OFFCURVE",
"189 639 OFFCURVE",
"227 642 CURVE",
"227 665 LINE",
"38 665 LINE",
"38 642 LINE",
"97 639 OFFCURVE",
"113 634 OFFCURVE",
"108 565 CURVE SMOOTH",
"80 158 LINE SMOOTH",
"73 50 OFFCURVE",
"113 -15 OFFCURVE",
"234 -15 CURVE SMOOTH",
"343 -15 OFFCURVE",
"457 58 OFFCURVE",
"519 175 CURVE",
"521 175 LINE",
"516 100 LINE SMOOTH",
"513 48 OFFCURVE",
"515 21 OFFCURVE",
"522 0 CURVE",
"652 0 LINE",
"652 23 LINE",
"592 25 OFFCURVE",
"576 30 OFFCURVE",
"581 100 CURVE SMOOTH",
"613 565 LINE SMOOTH",
"618 634 OFFCURVE",
"624 640 OFFCURVE",
"662 642 CURVE SMOOTH",
"725 645 OFFCURVE",
"780 692 OFFCURVE",
"780 748 CURVE SMOOTH",
"780 783 OFFCURVE",
"755 808 OFFCURVE",
"711 808 CURVE SMOOTH"
);
}
);
width = 709;
}
);
leftKerningGroup = U;
rightKerningGroup = H;
unicode = 01AF;
},
{
glyphname = V;
layers = (
{
anchors = (
{
name = bottom;
position = "{293, 0}";
},
{
name = top;
position = "{313, 665}";
}
);
layerId = "230F8D9C-4AAC-4C97-935A-A5529CE4A32C";
paths = (
{
closed = 1;
nodes = (
"283 -8 LINE",
"293 27 OFFCURVE",
"302 53 OFFCURVE",
"313 79 CURVE SMOOTH",
"510 565 LINE SMOOTH",
"538 634 OFFCURVE",
"554 639 OFFCURVE",
"582 642 CURVE",
"582 665 LINE",
"404 665 LINE",
"404 642 LINE",
"480 639 OFFCURVE",
"496 634 OFFCURVE",
"468 565 CURVE SMOOTH",
"288 115 LINE",
"286 115 LINE",
"164 565 LINE SMOOTH",
"145 634 OFFCURVE",
"153 639 OFFCURVE",
"194 642 CURVE",
"194 665 LINE",
"5 665 LINE",
"5 642 LINE",
"58 639 OFFCURVE",
"73 634 OFFCURVE",
"91 565 CURVE SMOOTH",
"220 79 LINE SMOOTH",
"227 53 OFFCURVE",
"234 27 OFFCURVE",
"240 -8 CURVE"
);
}
);
width = 585;
}
);
leftKerningGroup = V;
rightKerningGroup = V;
unicode = 0056;
},
{
glyphname = W;
layers = (
{
anchors = (
{
name = bottom;
position = "{428, 0}";
},
{
name = top;
position = "{438, 665}";
}
);
layerId = "230F8D9C-4AAC-4C97-935A-A5529CE4A32C";
paths = (
{
closed = 1;
nodes = (
"198 -8 LINE",
"207 27 OFFCURVE",
"214 50 OFFCURVE",
"226 79 CURVE SMOOTH",
"421 560 LINE",
"423 560 LINE",
"565 79 LINE SMOOTH",
"573 53 OFFCURVE",
"579 27 OFFCURVE",
"585 -8 CURVE",
"628 -8 LINE",
"633 27 OFFCURVE",
"639 53 OFFCURVE",
"646 79 CURVE SMOOTH",
"774 565 LINE SMOOTH",
"792 634 OFFCURVE",
"808 639 OFFCURVE",
"841 642 CURVE",
"841 665 LINE",
"663 665 LINE",
"663 642 LINE",
"733 639 OFFCURVE",
"749 634 OFFCURVE",
"732 565 CURVE SMOOTH",
"625 137 LINE",
"624 137 LINE",
"498 563 LINE SMOOTH",
"487 599 OFFCURVE",
"477 636 OFFCURVE",
"468 673 CURVE",
"425 673 LINE",
"213 137 LINE",
"211 137 LINE",
"158 565 LINE SMOOTH",
"149 634 OFFCURVE",
"156 639 OFFCURVE",
"223 642 CURVE",
"223 665 LINE",
"23 665 LINE",
"23 642 LINE",
"61 639 OFFCURVE",
"77 634 OFFCURVE",
"86 565 CURVE SMOOTH",
"146 79 LINE SMOOTH",
"149 54 OFFCURVE",
"152 27 OFFCURVE",
"155 -8 CURVE"
);
}
);
width = 846;
}
);
leftKerningGroup = W;
rightKerningGroup = W;
unicode = 0057;
},
{
glyphname = X;
layers = (
{
anchors = (
{
name = bottom;
position = "{299, 0}";
},
{
name = top;
position = "{339, 665}";
}
);
layerId = "230F8D9C-4AAC-4C97-935A-A5529CE4A32C";
paths = (
{
closed = 1;
nodes = (
"195 0 LINE",
"195 23 LINE",
"127 25 OFFCURVE",
"110 30 OFFCURVE",
"154 100 CURVE SMOOTH",
"291 315 LINE",
"293 315 LINE",
"389 100 LINE SMOOTH",
"420 30 OFFCURVE",
"404 25 OFFCURVE",
"365 23 CURVE",
"365 0 LINE",
"569 0 LINE",
"569 23 LINE",
"516 25 OFFCURVE",
"501 30 OFFCURVE",
"469 100 CURVE SMOOTH",
"356 348 LINE SMOOTH",
"347 367 OFFCURVE",
"351 388 OFFCURVE",
"363 405 CURVE SMOOTH",
"470 565 LINE SMOOTH",
"516 634 OFFCURVE",
"533 639 OFFCURVE",
"574 642 CURVE",
"574 665 LINE",
"393 665 LINE",
"393 642 LINE",
"453 639 OFFCURVE",
"469 634 OFFCURVE",
"424 565 CURVE SMOOTH",
"327 414 LINE",
"325 414 LINE",
"257 565 LINE SMOOTH",
"226 634 OFFCURVE",
"242 639 OFFCURVE",
"282 642 CURVE",
"282 665 LINE",
"77 665 LINE",
"77 642 LINE",
"130 639 OFFCURVE",
"147 634 OFFCURVE",
"178 565 CURVE SMOOTH",
"262 380 LINE SMOOTH",
"272 359 OFFCURVE",
"266 346 OFFCURVE",
"253 326 CURVE SMOOTH",
"107 100 LINE SMOOTH",
"62 30 OFFCURVE",
"47 25 OFFCURVE",
"3 23 CURVE",
"3 0 LINE"
);
}
);
width = 597;
}
);
leftKerningGroup = X;
rightKerningGroup = X;
unicode = 0058;
},
{
glyphname = Y;
layers = (
{
anchors = (
{
name = bottom;
position = "{214, 0}";
},
{
name = top;
position = "{284, 665}";
},
{
name = topleft;
position = "{12, 665}";
}
);
layerId = "230F8D9C-4AAC-4C97-935A-A5529CE4A32C";
paths = (
{
closed = 1;
nodes = (
"320 0 LINE",
"320 23 LINE",
"270 25 OFFCURVE",
"254 30 OFFCURVE",
"259 100 CURVE SMOOTH",
"272 287 LINE SMOOTH",
"275 323 OFFCURVE",
"282 333 OFFCURVE",
"296 355 CURVE SMOOTH",
"432 565 LINE SMOOTH",
"477 634 OFFCURVE",
"483 639 OFFCURVE",
"513 642 CURVE",
"513 665 LINE",
"345 665 LINE",
"345 642 LINE",
"414 639 OFFCURVE",
"430 634 OFFCURVE",
"386 565 CURVE SMOOTH",
"262 370 LINE",
"260 370 LINE",
"176 565 LINE SMOOTH",
"146 634 OFFCURVE",
"153 639 OFFCURVE",
"200 642 CURVE",
"200 665 LINE",
"5 665 LINE",
"5 642 LINE",
"56 639 OFFCURVE",
"72 634 OFFCURVE",
"101 565 CURVE SMOOTH",
"189 355 LINE SMOOTH",
"198 333 OFFCURVE",
"204 314 OFFCURVE",
"202 287 CURVE SMOOTH",
"189 100 LINE SMOOTH",
"184 30 OFFCURVE",
"168 25 OFFCURVE",
"100 23 CURVE",
"100 0 LINE"
);
}
);
width = 516;
}
);
leftKerningGroup = V;
leftMetricsKey = "=V";
rightKerningGroup = V;
rightMetricsKey = "=V";
unicode = 0059;
},
{
glyphname = Z;
layers = (
{
anchors = (
{
name = bottom;
position = "{272, 0}";
},
{
name = top;
position = "{292, 665}";
}
);
layerId = "230F8D9C-4AAC-4C97-935A-A5529CE4A32C";
paths = (
{
closed = 1;
nodes = (
"489 0 LINE",
"508 155 LINE",
"485 155 LINE",
"474 93 OFFCURVE",
"441 41 OFFCURVE",
"341 38 CURVE SMOOTH",
"110 30 LINE",
"110 32 LINE",
"481 589 LINE SMOOTH",
"492 606 OFFCURVE",
"505 625 OFFCURVE",
"520 642 CURVE",
"520 665 LINE",
"74 665 LINE",
"64 510 LINE",
"87 510 LINE",
"95 571 OFFCURVE",
"118 626 OFFCURVE",
"193 628 CURVE SMOOTH",
"425 635 LINE",
"425 633 LINE",
"53 75 LINE SMOOTH",
"42 58 OFFCURVE",
"28 39 OFFCURVE",
"13 23 CURVE",
"13 0 LINE"
);
}
);
width = 563;
}
);
leftKerningGroup = Z;
rightKerningGroup = Z;
unicode = 005A;
},
{
glyphname = Q.ss03;
layers = (
{
anchors = (
{
name = bottom;
position = "{356, -225}";
},
{
name = top;
position = "{376, 665}";
}
);
layerId = "230F8D9C-4AAC-4C97-935A-A5529CE4A32C";
paths = (
{
closed = 1;
nodes = (
"607 -178 OFFCURVE",
"642 -131 OFFCURVE",
"661 -87 CURVE",
"640 -79 LINE",
"616 -119 OFFCURVE",
"603 -131 OFFCURVE",
"568 -131 CURVE SMOOTH",
"482 -131 OFFCURVE",
"400 -40 OFFCURVE",
"258 -54 CURVE",
"258 -52 LINE",
"284 -30 OFFCURVE",
"315 -20 OFFCURVE",
"370 -14 CURVE SMOOTH",
"569 7 OFFCURVE",
"701 174 OFFCURVE",
"701 362 CURVE SMOOTH",
"701 564 OFFCURVE",
"560 680 OFFCURVE",
"404 680 CURVE SMOOTH",
"227 680 OFFCURVE",
"43 533 OFFCURVE",
"43 304 CURVE SMOOTH",
"43 129 OFFCURVE",
"155 22 OFFCURVE",
"283 -6 CURVE",
"283 -8 LINE",
"234 -30 OFFCURVE",
"193 -67 OFFCURVE",
"163 -95 CURVE",
"179 -111 LINE",
"205 -89 OFFCURVE",
"231 -79 OFFCURVE",
"256 -79 CURVE SMOOTH",
"339 -79 OFFCURVE",
"459 -187 OFFCURVE",
"564 -200 CURVE"
);
},
{
closed = 1;
nodes = (
"210 18 OFFCURVE",
"118 121 OFFCURVE",
"118 301 CURVE SMOOTH",
"118 514 OFFCURVE",
"246 647 OFFCURVE",
"399 647 CURVE SMOOTH",
"534 647 OFFCURVE",
"626 544 OFFCURVE",
"626 364 CURVE SMOOTH",
"626 151 OFFCURVE",
"498 18 OFFCURVE",
"345 18 CURVE SMOOTH"
);
}
);
width = 751;
}
);
leftKerningGroup = O;
leftMetricsKey = "=O";
rightKerningGroup = O;
},
{
glyphname = A.swsh;
layers = (
{
anchors = (
{
name = bottom;
position = "{427, 0}";
},
{
name = ogonek;
position = "{713, 10}";
},
{
name = top;
position = "{527, 665}";
}
);
layerId = "230F8D9C-4AAC-4C97-935A-A5529CE4A32C";
paths = (
{
closed = 1;
nodes = (
"570 586 LINE SMOOTH",
"562 621 OFFCURVE",
"554 653 OFFCURVE",
"548 688 CURVE",
"505 688 LINE",
"492 653 OFFCURVE",
"477 621 OFFCURVE",
"461 586 CURVE SMOOTH",
"243 100 LINE SMOOTH",
"161 -83 OFFCURVE",
"140 -125 OFFCURVE",
"91 -125 CURVE SMOOTH",
"47 -125 OFFCURVE",
"27 -91 OFFCURVE",
"27 -51 CURVE SMOOTH",
"27 -14 OFFCURVE",
"45 41 OFFCURVE",
"114 74 CURVE",
"114 100 LINE",
"15 65 OFFCURVE",
"-33 -5 OFFCURVE",
"-33 -77 CURVE SMOOTH",
"-33 -146 OFFCURVE",
"11 -195 OFFCURVE",
"73 -195 CURVE SMOOTH",
"154 -195 OFFCURVE",
"191 -111 OFFCURVE",
"285 100 CURVE SMOOTH",
"351 248 LINE SMOOTH",
"362 273 OFFCURVE",
"375 275 OFFCURVE",
"402 275 CURVE SMOOTH",
"534 275 LINE SMOOTH",
"547 275 OFFCURVE",
"560 276 OFFCURVE",
"569 283 CURVE",
"614 100 LINE SMOOTH",
"631 30 OFFCURVE",
"626 25 OFFCURVE",
"579 23 CURVE",
"579 0 LINE",
"772 0 LINE",
"772 23 LINE",
"720 25 OFFCURVE",
"704 30 OFFCURVE",
"687 100 CURVE SMOOTH"
);
},
{
closed = 1;
nodes = (
"402 305 LINE SMOOTH",
"392 305 OFFCURVE",
"383 305 OFFCURVE",
"375 302 CURVE",
"497 576 LINE",
"499 576 LINE",
"558 330 LINE SMOOTH",
"563 309 OFFCURVE",
"556 305 OFFCURVE",
"539 305 CURVE SMOOTH"
);
}
);
width = 785;
}
);
leftMetricsKey = "=A";
rightKerningGroup = A;
rightMetricsKey = "=A";
},
{
glyphname = Aogonek.swsh;
layers = (
{
anchors = (
{
name = _ogonek;
position = "{675, 0}";
},
{
name = bottom;
position = "{467, 0}";
},
{
name = ogonek;
position = "{713, 10}";
},
{
name = top;
position = "{527, 665}";
}
);
layerId = "230F8D9C-4AAC-4C97-935A-A5529CE4A32C";
paths = (
{
closed = 1;
nodes = (
"570 586 LINE SMOOTH",
"562 621 OFFCURVE",
"554 653 OFFCURVE",
"548 688 CURVE",
"505 688 LINE",
"492 653 OFFCURVE",
"477 621 OFFCURVE",
"461 586 CURVE SMOOTH",
"243 100 LINE SMOOTH",
"161 -83 OFFCURVE",
"140 -125 OFFCURVE",
"91 -125 CURVE SMOOTH",
"47 -125 OFFCURVE",
"27 -91 OFFCURVE",
"27 -51 CURVE SMOOTH",
"27 -14 OFFCURVE",
"45 41 OFFCURVE",
"114 74 CURVE",
"114 100 LINE",
"15 65 OFFCURVE",
"-33 -5 OFFCURVE",
"-33 -77 CURVE SMOOTH",
"-33 -146 OFFCURVE",
"11 -195 OFFCURVE",
"73 -195 CURVE SMOOTH",
"154 -195 OFFCURVE",
"191 -111 OFFCURVE",
"285 100 CURVE SMOOTH",
"351 248 LINE SMOOTH",
"362 273 OFFCURVE",
"375 275 OFFCURVE",
"402 275 CURVE SMOOTH",
"534 275 LINE SMOOTH",
"547 275 OFFCURVE",
"560 276 OFFCURVE",
"569 283 CURVE",
"638 0 LINE",
"643 -18 LINE",
"666 0 LINE",
"772 0 LINE",
"772 23 LINE",
"720 25 OFFCURVE",
"704 30 OFFCURVE",
"687 100 CURVE SMOOTH"
);
},
{
closed = 1;
nodes = (
"402 305 LINE SMOOTH",
"392 305 OFFCURVE",
"383 305 OFFCURVE",
"375 302 CURVE",
"497 576 LINE",
"499 576 LINE",
"558 330 LINE SMOOTH",
"563 309 OFFCURVE",
"556 305 OFFCURVE",
"539 305 CURVE SMOOTH"
);
},
{
closed = 1;
nodes = (
"638 0 LINE",
"561 -42 OFFCURVE",
"510 -103 OFFCURVE",
"510 -160 CURVE SMOOTH",
"510 -204 OFFCURVE",
"540 -235 OFFCURVE",
"583 -235 CURVE SMOOTH",
"617 -235 OFFCURVE",
"656 -216 OFFCURVE",
"693 -163 CURVE",
"676 -147 LINE",
"655 -170 OFFCURVE",
"636 -185 OFFCURVE",
"613 -185 CURVE SMOOTH",
"587 -185 OFFCURVE",
"575 -165 OFFCURVE",
"575 -141 CURVE SMOOTH",
"575 -87 OFFCURVE",
"639 0 OFFCURVE",
"721 0 CURVE"
);
}
);
width = 785;
}
);
leftMetricsKey = "=A.swsh";
rightKerningGroup = A;
rightMetricsKey = "=A.swsh";
},
{
glyphname = B.swsh;
layers = (
{
anchors = (
{
name = bottom;
position = "{601, 0}";
},
{
name = top;
position = "{601, 665}";
}
);
layerId = "230F8D9C-4AAC-4C97-935A-A5529CE4A32C";
paths = (
{
closed = 1;
nodes = (
"581 0 LINE SMOOTH",
"775 0 OFFCURVE",
"859 122 OFFCURVE",
"859 224 CURVE SMOOTH",
"859 332 OFFCURVE",
"765 382 OFFCURVE",
"650 387 CURVE",
"650 389 LINE",
"723 415 OFFCURVE",
"799 465 OFFCURVE",
"799 546 CURVE SMOOTH",
"799 620 OFFCURVE",
"737 670 OFFCURVE",
"535 670 CURVE SMOOTH",
"193 670 OFFCURVE",
"33 527 OFFCURVE",
"33 414 CURVE SMOOTH",
"33 349 OFFCURVE",
"87 310 OFFCURVE",
"158 310 CURVE SMOOTH",
"202 310 OFFCURVE",
"253 325 OFFCURVE",
"288 354 CURVE",
"282 377 LINE",
"249 358 OFFCURVE",
"213 350 OFFCURVE",
"187 350 CURVE SMOOTH",
"131 350 OFFCURVE",
"103 386 OFFCURVE",
"103 430 CURVE SMOOTH",
"103 515 OFFCURVE",
"211 637 OFFCURVE",
"528 637 CURVE SMOOTH",
"647 637 OFFCURVE",
"724 620 OFFCURVE",
"724 531 CURVE SMOOTH",
"724 421 OFFCURVE",
"607 401 OFFCURVE",
"533 390 CURVE SMOOTH",
"503 386 OFFCURVE",
"494 384 OFFCURVE",
"480 372 CURVE",
"500 637 LINE",
"450 637 LINE",
"429 616 OFFCURVE",
"427 589 OFFCURVE",
"425 565 CURVE SMOOTH",
"391 100 LINE SMOOTH",
"386 30 OFFCURVE",
"380 25 OFFCURVE",
"342 23 CURVE",
"342 0 LINE"
);
},
{
closed = 1;
nodes = (
"483 33 OFFCURVE",
"457 41 OFFCURVE",
"461 100 CURVE SMOOTH",
"475 304 LINE SMOOTH",
"478 349 OFFCURVE",
"507 361 OFFCURVE",
"570 363 CURVE SMOOTH",
"690 367 OFFCURVE",
"784 332 OFFCURVE",
"784 209 CURVE SMOOTH",
"784 135 OFFCURVE",
"750 33 OFFCURVE",
"541 33 CURVE SMOOTH"
);
}
);
width = 911;
}
);
leftKerningGroup = swash;
leftMetricsKey = "=H";
rightKerningGroup = O;
rightMetricsKey = "=O";
},
{
glyphname = D.swsh;
layers = (
{
anchors = (
{
name = bottom;
position = "{662, 0}";
},
{
name = center;
position = "{662, 353}";
},
{
name = top;
position = "{662, 665}";
}
);
layerId = "230F8D9C-4AAC-4C97-935A-A5529CE4A32C";
paths = (
{
closed = 1;
nodes = (
"564 0 LINE SMOOTH",
"798 0 OFFCURVE",
"969 151 OFFCURVE",
"969 365 CURVE SMOOTH",
"969 563 OFFCURVE",
"824 670 OFFCURVE",
"533 670 CURVE SMOOTH",
"201 670 OFFCURVE",
"33 531 OFFCURVE",
"33 415 CURVE SMOOTH",
"33 349 OFFCURVE",
"87 310 OFFCURVE",
"158 310 CURVE SMOOTH",
"202 310 OFFCURVE",
"253 325 OFFCURVE",
"288 354 CURVE",
"282 377 LINE",
"249 358 OFFCURVE",
"213 350 OFFCURVE",
"187 350 CURVE SMOOTH",
"131 350 OFFCURVE",
"103 386 OFFCURVE",
"103 430 CURVE SMOOTH",
"103 523 OFFCURVE",
"227 637 OFFCURVE",
"527 637 CURVE SMOOTH",
"784 637 OFFCURVE",
"889 553 OFFCURVE",
"889 360 CURVE SMOOTH",
"889 158 OFFCURVE",
"775 33 OFFCURVE",
"535 33 CURVE SMOOTH",
"474 33 OFFCURVE",
"459 41 OFFCURVE",
"463 100 CURVE SMOOTH",
"500 637 LINE",
"450 637 LINE",
"430 617 OFFCURVE",
"427 592 OFFCURVE",
"425 565 CURVE SMOOTH",
"393 100 LINE SMOOTH",
"388 30 OFFCURVE",
"382 25 OFFCURVE",
"344 23 CURVE",
"344 0 LINE"
);
}
);
width = 1012;
}
);
leftKerningGroup = swash;
leftMetricsKey = "=H";
rightKerningGroup = O;
rightMetricsKey = "=O";
},
{
glyphname = E.swsh;
layers = (
{
anchors = (
{
name = bottom;
position = "{594, 0}";
},
{
name = ogonek;
position = "{758, 0}";
},
{
name = top;
position = "{614, 665}";
},
{
name = topleft;
position = "{320, 665}";
}
);
layerId = "230F8D9C-4AAC-4C97-935A-A5529CE4A32C";
paths = (
{
closed = 1;
nodes = (
"810 85 OFFCURVE",
"777 30 OFFCURVE",
"677 30 CURVE SMOOTH",
"534 30 LINE SMOOTH",
"474 30 OFFCURVE",
"459 35 OFFCURVE",
"463 100 CURVE SMOOTH",
"476 311 LINE SMOOTH",
"478 349 OFFCURVE",
"491 358 OFFCURVE",
"528 358 CURVE SMOOTH",
"673 358 LINE SMOOTH",
"721 358 OFFCURVE",
"729 343 OFFCURVE",
"729 285 CURVE",
"752 285 LINE",
"764 455 LINE",
"741 455 LINE",
"736 411 OFFCURVE",
"713 388 OFFCURVE",
"673 388 CURVE SMOOTH",
"528 388 LINE SMOOTH",
"508 388 OFFCURVE",
"492 386 OFFCURVE",
"481 378 CURVE",
"494 565 LINE SMOOTH",
"499 630 OFFCURVE",
"504 635 OFFCURVE",
"543 635 CURVE SMOOTH",
"663 635 LINE SMOOTH",
"759 635 OFFCURVE",
"769 595 OFFCURVE",
"769 525 CURVE",
"792 525 LINE",
"801 665 LINE",
"373 665 LINE SMOOTH",
"166 665 OFFCURVE",
"34 527 OFFCURVE",
"34 425 CURVE SMOOTH",
"34 344 OFFCURVE",
"88 310 OFFCURVE",
"157 310 CURVE SMOOTH",
"204 310 OFFCURVE",
"254 325 OFFCURVE",
"289 354 CURVE",
"283 377 LINE",
"250 358 OFFCURVE",
"214 350 OFFCURVE",
"188 350 CURVE SMOOTH",
"132 350 OFFCURVE",
"104 386 OFFCURVE",
"104 433 CURVE SMOOTH",
"104 519 OFFCURVE",
"197 632 OFFCURVE",
"373 632 CURVE SMOOTH",
"449 632 LINE",
"427 610 OFFCURVE",
"426 587 OFFCURVE",
"424 565 CURVE SMOOTH",
"392 100 LINE SMOOTH",
"387 30 OFFCURVE",
"381 25 OFFCURVE",
"343 23 CURVE",
"343 0 LINE",
"825 0 LINE",
"844 155 LINE",
"821 155 LINE"
);
}
);
width = 867;
}
);
leftKerningGroup = swash;
leftMetricsKey = "=H";
rightKerningGroup = E;
rightMetricsKey = "=E";
},
{
glyphname = F.swsh;
layers = (
{
anchors = (
{
name = bottom;
position = "{579, 0}";
},
{
name = top;
position = "{579, 665}";
}
);
layerId = "230F8D9C-4AAC-4C97-935A-A5529CE4A32C";
paths = (
{
closed = 1;
nodes = (
"666 635 LINE SMOOTH",
"761 635 OFFCURVE",
"771 595 OFFCURVE",
"771 525 CURVE",
"794 525 LINE",
"803 665 LINE",
"375 665 LINE SMOOTH",
"168 665 OFFCURVE",
"36 527 OFFCURVE",
"36 425 CURVE SMOOTH",
"36 344 OFFCURVE",
"90 310 OFFCURVE",
"159 310 CURVE SMOOTH",
"206 310 OFFCURVE",
"256 325 OFFCURVE",
"291 354 CURVE",
"285 377 LINE",
"252 358 OFFCURVE",
"216 350 OFFCURVE",
"190 350 CURVE SMOOTH",
"134 350 OFFCURVE",
"106 386 OFFCURVE",
"106 433 CURVE SMOOTH",
"106 519 OFFCURVE",
"199 632 OFFCURVE",
"375 632 CURVE SMOOTH",
"471 632 LINE",
"449 610 OFFCURVE",
"448 587 OFFCURVE",
"446 565 CURVE SMOOTH",
"414 100 LINE SMOOTH",
"409 30 OFFCURVE",
"403 25 OFFCURVE",
"365 23 CURVE",
"365 0 LINE",
"575 0 LINE",
"575 23 LINE",
"495 25 OFFCURVE",
"479 30 OFFCURVE",
"484 100 CURVE SMOOTH",
"497 291 LINE SMOOTH",
"500 328 OFFCURVE",
"512 338 OFFCURVE",
"549 338 CURVE SMOOTH",
"685 338 LINE SMOOTH",
"733 338 OFFCURVE",
"741 323 OFFCURVE",
"741 265 CURVE",
"764 265 LINE",
"776 435 LINE",
"753 435 LINE",
"748 391 OFFCURVE",
"725 368 OFFCURVE",
"685 368 CURVE SMOOTH",
"549 368 LINE SMOOTH",
"529 368 OFFCURVE",
"513 366 OFFCURVE",
"502 358 CURVE",
"516 565 LINE SMOOTH",
"520 630 OFFCURVE",
"526 635 OFFCURVE",
"565 635 CURVE SMOOTH"
);
}
);
width = 836;
}
);
leftKerningGroup = swash;
leftMetricsKey = "=I";
rightKerningGroup = F;
rightMetricsKey = "=F";
},
{
glyphname = G.swsh;
layers = (
{
anchors = (
{
name = bottom;
position = "{329, 0}";
},
{
name = top;
position = "{419, 665}";
}
);
layerId = "230F8D9C-4AAC-4C97-935A-A5529CE4A32C";
paths = (
{
closed = 1;
nodes = (
"442 295 LINE",
"545 293 OFFCURVE",
"564 288 OFFCURVE",
"557 190 CURVE SMOOTH",
"553 136 OFFCURVE",
"553 119 OFFCURVE",
"544 99 CURVE SMOOTH",
"526 59 OFFCURVE",
"457 18 OFFCURVE",
"367 18 CURVE SMOOTH",
"221 18 OFFCURVE",
"123 123 OFFCURVE",
"123 300 CURVE SMOOTH",
"123 476 OFFCURVE",
"230 647 OFFCURVE",
"412 647 CURVE SMOOTH",
"489 647 OFFCURVE",
"611 619 OFFCURVE",
"611 490 CURVE",
"634 490 LINE",
"644 643 LINE",
"574 668 OFFCURVE",
"496 680 OFFCURVE",
"431 680 CURVE SMOOTH",
"176 680 OFFCURVE",
"43 496 OFFCURVE",
"43 304 CURVE SMOOTH",
"43 100 OFFCURVE",
"192 -15 OFFCURVE",
"364 -15 CURVE SMOOTH",
"453 -15 OFFCURVE",
"509 16 OFFCURVE",
"547 50 CURVE",
"544 0 LINE SMOOTH",
"535 -138 OFFCURVE",
"516 -192 OFFCURVE",
"441 -202 CURVE",
"441 -225 LINE",
"528 -225 OFFCURVE",
"599 -150 OFFCURVE",
"608 -15 CURVE SMOOTH",
"622 190 LINE",
"626 248 LINE SMOOTH",
"628 282 OFFCURVE",
"635 293 OFFCURVE",
"665 295 CURVE",
"665 318 LINE",
"442 318 LINE"
);
}
);
width = 698;
}
);
leftKerningGroup = swash;
leftMetricsKey = "=G";
rightKerningGroup = O;
rightMetricsKey = "=G";
},
{
glyphname = H.swsh;
layers = (
{
anchors = (
{
name = bottom;
position = "{657, 0}";
},
{
name = center;
position = "{657, 333}";
},
{
name = top;
position = "{657, 665}";
},
{
name = topleft;
position = "{330, 665}";
}
);
layerId = "230F8D9C-4AAC-4C97-935A-A5529CE4A32C";
paths = (
{
closed = 1;
nodes = (
"926 634 OFFCURVE",
"932 639 OFFCURVE",
"970 642 CURVE",
"970 665 LINE",
"780 665 LINE",
"780 642 LINE",
"840 639 OFFCURVE",
"856 634 OFFCURVE",
"851 565 CURVE SMOOTH",
"843 450 LINE SMOOTH",
"840 409 OFFCURVE",
"828 400 OFFCURVE",
"791 400 CURVE SMOOTH",
"529 400 LINE SMOOTH",
"509 400 OFFCURVE",
"493 398 OFFCURVE",
"482 390 CURVE",
"494 565 LINE SMOOTH",
"499 634 OFFCURVE",
"505 639 OFFCURVE",
"543 642 CURVE",
"543 665 LINE",
"373 665 LINE SMOOTH",
"166 665 OFFCURVE",
"34 527 OFFCURVE",
"34 425 CURVE SMOOTH",
"34 344 OFFCURVE",
"88 310 OFFCURVE",
"157 310 CURVE SMOOTH",
"204 310 OFFCURVE",
"254 325 OFFCURVE",
"289 354 CURVE",
"283 377 LINE",
"250 358 OFFCURVE",
"214 350 OFFCURVE",
"188 350 CURVE SMOOTH",
"132 350 OFFCURVE",
"104 386 OFFCURVE",
"104 433 CURVE SMOOTH",
"104 519 OFFCURVE",
"197 632 OFFCURVE",
"373 632 CURVE SMOOTH",
"449 632 LINE",
"427 610 OFFCURVE",
"426 593 OFFCURVE",
"424 565 CURVE SMOOTH",
"392 100 LINE SMOOTH",
"387 30 OFFCURVE",
"381 25 OFFCURVE",
"343 23 CURVE",
"343 0 LINE",
"533 0 LINE",
"533 23 LINE",
"473 25 OFFCURVE",
"457 30 OFFCURVE",
"462 100 CURVE SMOOTH",
"477 323 LINE SMOOTH",
"480 361 OFFCURVE",
"492 370 OFFCURVE",
"529 370 CURVE SMOOTH",
"791 370 LINE SMOOTH",
"812 370 OFFCURVE",
"828 373 OFFCURVE",
"839 383 CURVE",
"819 100 LINE SMOOTH",
"814 30 OFFCURVE",
"808 25 OFFCURVE",
"770 23 CURVE",
"770 0 LINE",
"960 0 LINE",
"960 23 LINE",
"900 25 OFFCURVE",
"884 30 OFFCURVE",
"889 100 CURVE SMOOTH",
"921 565 LINE SMOOTH"
);
}
);
width = 1010;
}
);
leftKerningGroup = swash;
leftMetricsKey = "=H";
rightMetricsKey = "=H";
},
{
glyphname = Hbar.swsh;
layers = (
{
components = (
{
name = H.swsh;
}
);
layerId = "230F8D9C-4AAC-4C97-935A-A5529CE4A32C";
paths = (
{
closed = 1;
nodes = (
"997 543 LINE",
"335 543 LINE",
"335 508 LINE",
"997 508 LINE"
);
}
);
width = 1012;
}
);
leftKerningGroup = swash;
leftMetricsKey = "=H";
rightMetricsKey = "=H";
},
{
glyphname = I.swsh;
layers = (
{
anchors = (
{
name = bottom;
position = "{443, 0}";
},
{
name = ogonek;
position = "{516, 0}";
},
{
name = top;
position = "{483, 665}";
},
{
name = topleft;
position = "{340, 665}";
}
);
layerId = "230F8D9C-4AAC-4C97-935A-A5529CE4A32C";
paths = (
{
closed = 1;
nodes = (
"519 634 OFFCURVE",
"525 639 OFFCURVE",
"563 642 CURVE",
"563 665 LINE",
"373 665 LINE SMOOTH",
"166 665 OFFCURVE",
"34 527 OFFCURVE",
"34 425 CURVE SMOOTH",
"34 344 OFFCURVE",
"88 310 OFFCURVE",
"157 310 CURVE SMOOTH",
"204 310 OFFCURVE",
"254 325 OFFCURVE",
"289 354 CURVE",
"283 377 LINE",
"250 358 OFFCURVE",
"214 350 OFFCURVE",
"188 350 CURVE SMOOTH",
"132 350 OFFCURVE",
"104 386 OFFCURVE",
"104 433 CURVE SMOOTH",
"104 519 OFFCURVE",
"197 632 OFFCURVE",
"373 632 CURVE SMOOTH",
"469 632 LINE",
"447 610 OFFCURVE",
"446 587 OFFCURVE",
"444 565 CURVE SMOOTH",
"412 100 LINE SMOOTH",
"407 30 OFFCURVE",
"401 25 OFFCURVE",
"363 23 CURVE",
"363 0 LINE",
"553 0 LINE",
"553 23 LINE",
"493 25 OFFCURVE",
"477 30 OFFCURVE",
"482 100 CURVE SMOOTH",
"514 565 LINE SMOOTH"
);
}
);
width = 605;
}
);
leftKerningGroup = swash;
leftMetricsKey = "=H";
rightMetricsKey = "=I";
},
{
glyphname = J.swsh;
layers = (
{
anchors = (
{
name = bottom;
position = "{455, 0}";
},
{
name = top;
position = "{455, 665}";
}
);
layerId = "230F8D9C-4AAC-4C97-935A-A5529CE4A32C";
paths = (
{
closed = 1;
nodes = (
"166 665 OFFCURVE",
"34 527 OFFCURVE",
"34 425 CURVE SMOOTH",
"34 344 OFFCURVE",
"88 310 OFFCURVE",
"157 310 CURVE SMOOTH",
"204 310 OFFCURVE",
"254 325 OFFCURVE",
"289 354 CURVE",
"283 377 LINE",
"250 358 OFFCURVE",
"214 350 OFFCURVE",
"188 350 CURVE SMOOTH",
"132 350 OFFCURVE",
"104 386 OFFCURVE",
"104 433 CURVE SMOOTH",
"104 519 OFFCURVE",
"197 632 OFFCURVE",
"373 632 CURVE SMOOTH",
"469 632 LINE",
"447 610 OFFCURVE",
"446 587 OFFCURVE",
"444 565 CURVE SMOOTH",
"405 0 LINE SMOOTH",
"395 -138 OFFCURVE",
"377 -192 OFFCURVE",
"307 -202 CURVE",
"307 -225 LINE",
"394 -225 OFFCURVE",
"465 -150 OFFCURVE",
"474 -15 CURVE SMOOTH",
"514 565 LINE SMOOTH",
"519 634 OFFCURVE",
"525 639 OFFCURVE",
"563 642 CURVE",
"563 665 LINE",
"373 665 LINE SMOOTH"
);
}
);
width = 561;
}
);
leftKerningGroup = swash;
leftMetricsKey = "=H";
rightKerningGroup = N;
rightMetricsKey = "=J";
},
{
glyphname = K.swsh;
layers = (
{
anchors = (
{
name = bottom;
position = "{624, 0}";
},
{
name = top;
position = "{624, 665}";
}
);
layerId = "230F8D9C-4AAC-4C97-935A-A5529CE4A32C";
paths = (
{
closed = 1;
nodes = (
"599 402 LINE SMOOTH",
"589 416 OFFCURVE",
"588 424 OFFCURVE",
"599 434 CURVE SMOOTH",
"766 590 LINE SMOOTH",
"805 627 OFFCURVE",
"828 639 OFFCURVE",
"878 642 CURVE",
"878 665 LINE",
"693 665 LINE",
"693 642 LINE",
"728 640 OFFCURVE",
"736 636 OFFCURVE",
"736 627 CURVE SMOOTH",
"736 614 OFFCURVE",
"726 603 OFFCURVE",
"693 573 CURVE SMOOTH",
"504 397 LINE",
"502 397 LINE",
"514 565 LINE SMOOTH",
"519 634 OFFCURVE",
"525 639 OFFCURVE",
"563 642 CURVE",
"563 665 LINE",
"373 665 LINE SMOOTH",
"166 665 OFFCURVE",
"34 527 OFFCURVE",
"34 425 CURVE SMOOTH",
"34 344 OFFCURVE",
"88 310 OFFCURVE",
"157 310 CURVE SMOOTH",
"204 310 OFFCURVE",
"254 325 OFFCURVE",
"289 354 CURVE",
"283 377 LINE",
"250 358 OFFCURVE",
"214 350 OFFCURVE",
"188 350 CURVE SMOOTH",
"132 350 OFFCURVE",
"104 386 OFFCURVE",
"104 433 CURVE SMOOTH",
"104 519 OFFCURVE",
"197 632 OFFCURVE",
"373 632 CURVE SMOOTH",
"469 632 LINE",
"447 610 OFFCURVE",
"446 587 OFFCURVE",
"444 565 CURVE SMOOTH",
"412 100 LINE SMOOTH",
"407 30 OFFCURVE",
"401 25 OFFCURVE",
"363 23 CURVE",
"363 0 LINE",
"553 0 LINE",
"553 23 LINE",
"493 25 OFFCURVE",
"477 30 OFFCURVE",
"482 100 CURVE SMOOTH",
"498 336 LINE SMOOTH",
"500 360 OFFCURVE",
"510 370 OFFCURVE",
"521 370 CURVE SMOOTH",
"530 370 OFFCURVE",
"538 364 OFFCURVE",
"553 344 CURVE SMOOTH",
"759 71 LINE SMOOTH",
"790 31 OFFCURVE",
"819 -4 OFFCURVE",
"891 -4 CURVE SMOOTH",
"904 -4 OFFCURVE",
"919 -3 OFFCURVE",
"936 0 CURVE",
"936 23 LINE",
"888 23 OFFCURVE",
"874 35 OFFCURVE",
"823 103 CURVE SMOOTH"
);
}
);
width = 926;
}
);
leftKerningGroup = swash;
leftMetricsKey = "=H";
rightKerningGroup = K;
rightMetricsKey = "=K";
},
{
glyphname = L.swsh;
layers = (
{
anchors = (
{
name = bottom;
position = "{559, 0}";
},
{
name = center;
position = "{559, 333}";
},
{
name = top;
position = "{468, 665}";
},
{
name = topright;
position = "{787, 665}";
}
);
layerId = "230F8D9C-4AAC-4C97-935A-A5529CE4A32C";
paths = (
{
closed = 1;
nodes = (
"760 85 OFFCURVE",
"727 30 OFFCURVE",
"627 30 CURVE SMOOTH",
"533 30 LINE SMOOTH",
"473 30 OFFCURVE",
"457 35 OFFCURVE",
"462 100 CURVE SMOOTH",
"494 565 LINE SMOOTH",
"499 634 OFFCURVE",
"505 639 OFFCURVE",
"543 642 CURVE",
"543 665 LINE",
"373 665 LINE SMOOTH",
"166 665 OFFCURVE",
"34 527 OFFCURVE",
"34 425 CURVE SMOOTH",
"34 344 OFFCURVE",
"88 310 OFFCURVE",
"157 310 CURVE SMOOTH",
"204 310 OFFCURVE",
"254 325 OFFCURVE",
"289 354 CURVE",
"283 377 LINE",
"250 358 OFFCURVE",
"214 350 OFFCURVE",
"188 350 CURVE SMOOTH",
"132 350 OFFCURVE",
"104 386 OFFCURVE",
"104 433 CURVE SMOOTH",
"104 519 OFFCURVE",
"197 632 OFFCURVE",
"373 632 CURVE SMOOTH",
"450 632 LINE",
"428 610 OFFCURVE",
"426 587 OFFCURVE",
"424 565 CURVE SMOOTH",
"392 100 LINE SMOOTH",
"387 30 OFFCURVE",
"381 25 OFFCURVE",
"343 23 CURVE",
"343 0 LINE",
"775 0 LINE",
"794 155 LINE",
"771 155 LINE"
);
}
);
width = 807;
}
);
leftKerningGroup = swash;
leftMetricsKey = "=H";
rightKerningGroup = L;
rightMetricsKey = "=L";
},
{
glyphname = Lslash.swsh;
layers = (
{
anchors = (
{
name = bottom;
position = "{559, 0}";
},
{
name = center;
position = "{559, 333}";
},
{
name = top;
position = "{468, 665}";
},
{
name = topright;
position = "{787, 665}";
}
);
layerId = "230F8D9C-4AAC-4C97-935A-A5529CE4A32C";
paths = (
{
closed = 1;
nodes = (
"699 438 LINE",
"699 478 LINE",
"447 351 LINE",
"447 311 LINE"
);
},
{
closed = 1;
nodes = (
"303 288 LINE",
"303 248 LINE",
"447 321 LINE",
"447 361 LINE"
);
},
{
closed = 1;
nodes = (
"760 85 OFFCURVE",
"727 30 OFFCURVE",
"627 30 CURVE SMOOTH",
"533 30 LINE SMOOTH",
"473 30 OFFCURVE",
"457 35 OFFCURVE",
"462 100 CURVE SMOOTH",
"494 565 LINE SMOOTH",
"499 634 OFFCURVE",
"505 639 OFFCURVE",
"543 642 CURVE",
"543 665 LINE",
"373 665 LINE SMOOTH",
"166 665 OFFCURVE",
"34 527 OFFCURVE",
"34 425 CURVE SMOOTH",
"34 344 OFFCURVE",
"88 310 OFFCURVE",
"157 310 CURVE SMOOTH",
"204 310 OFFCURVE",
"254 325 OFFCURVE",
"289 354 CURVE",
"283 377 LINE",
"250 358 OFFCURVE",
"214 350 OFFCURVE",
"188 350 CURVE SMOOTH",
"132 350 OFFCURVE",
"104 386 OFFCURVE",
"104 433 CURVE SMOOTH",
"104 519 OFFCURVE",
"197 632 OFFCURVE",
"373 632 CURVE SMOOTH",
"450 632 LINE",
"428 610 OFFCURVE",
"426 587 OFFCURVE",
"424 565 CURVE SMOOTH",
"392 100 LINE SMOOTH",
"387 30 OFFCURVE",
"381 25 OFFCURVE",
"343 23 CURVE",
"343 0 LINE",
"775 0 LINE",
"794 155 LINE",
"771 155 LINE"
);
}
);
width = 807;
}
);
leftKerningGroup = swash;
leftMetricsKey = "=H";
rightKerningGroup = L;
rightMetricsKey = "=L";
},
{
glyphname = M.swsh;
layers = (
{
anchors = (
{
name = bottom;
position = "{723, 0}";
},
{
name = top;
position = "{723, 665}";
}
);
layerId = "230F8D9C-4AAC-4C97-935A-A5529CE4A32C";
paths = (
{
closed = 1;
nodes = (
"1123 665 LINE",
"986 665 LINE",
"974 632 OFFCURVE",
"960 599 OFFCURVE",
"944 565 CURVE SMOOTH",
"715 89 LINE",
"713 89 LINE",
"533 565 LINE SMOOTH",
"519 602 OFFCURVE",
"509 630 OFFCURVE",
"501 665 CURVE",
"378 665 LINE SMOOTH",
"171 665 OFFCURVE",
"39 527 OFFCURVE",
"39 425 CURVE SMOOTH",
"39 344 OFFCURVE",
"93 310 OFFCURVE",
"162 310 CURVE SMOOTH",
"209 310 OFFCURVE",
"259 325 OFFCURVE",
"294 354 CURVE",
"288 377 LINE",
"255 358 OFFCURVE",
"219 350 OFFCURVE",
"193 350 CURVE SMOOTH",
"137 350 OFFCURVE",
"109 386 OFFCURVE",
"109 433 CURVE SMOOTH",
"109 519 OFFCURVE",
"202 632 OFFCURVE",
"378 632 CURVE SMOOTH",
"456 632 LINE",
"434 610 OFFCURVE",
"431 587 OFFCURVE",
"429 565 CURVE SMOOTH",
"377 100 LINE SMOOTH",
"369 30 OFFCURVE",
"363 25 OFFCURVE",
"328 23 CURVE",
"328 0 LINE",
"508 0 LINE",
"508 23 LINE",
"427 25 OFFCURVE",
"411 30 OFFCURVE",
"419 100 CURVE SMOOTH",
"463 535 LINE",
"465 535 LINE",
"629 104 LINE SMOOTH",
"650 48 OFFCURVE",
"661 23 OFFCURVE",
"670 -8 CURVE",
"715 -8 LINE",
"726 23 OFFCURVE",
"738 48 OFFCURVE",
"765 104 CURVE SMOOTH",
"975 535 LINE",
"977 535 LINE",
"977 100 LINE SMOOTH",
"977 30 OFFCURVE",
"971 25 OFFCURVE",
"933 23 CURVE",
"933 0 LINE",
"1123 0 LINE",
"1123 23 LINE",
"1063 25 OFFCURVE",
"1047 30 OFFCURVE",
"1047 100 CURVE SMOOTH",
"1047 565 LINE SMOOTH",
"1047 634 OFFCURVE",
"1063 640 OFFCURVE",
"1123 642 CURVE"
);
}
);
width = 1173;
}
);
leftKerningGroup = swash;
leftMetricsKey = "=H+5";
rightMetricsKey = "=H";
},
{
glyphname = N.swsh;
layers = (
{
anchors = (
{
name = bottom;
position = "{655, 0}";
},
{
name = top;
position = "{675, 665}";
}
);
layerId = "230F8D9C-4AAC-4C97-935A-A5529CE4A32C";
paths = (
{
closed = 1;
nodes = (
"806 642 LINE",
"885 639 OFFCURVE",
"901 634 OFFCURVE",
"897 565 CURVE SMOOTH",
"870 123 LINE",
"868 123 LINE",
"533 565 LINE SMOOTH",
"510 596 OFFCURVE",
"486 630 OFFCURVE",
"468 665 CURVE",
"373 665 LINE SMOOTH",
"166 665 OFFCURVE",
"34 527 OFFCURVE",
"34 425 CURVE SMOOTH",
"34 344 OFFCURVE",
"88 310 OFFCURVE",
"157 310 CURVE SMOOTH",
"204 310 OFFCURVE",
"254 325 OFFCURVE",
"289 354 CURVE",
"283 377 LINE",
"250 358 OFFCURVE",
"214 350 OFFCURVE",
"188 350 CURVE SMOOTH",
"132 350 OFFCURVE",
"104 386 OFFCURVE",
"104 433 CURVE SMOOTH",
"104 519 OFFCURVE",
"197 632 OFFCURVE",
"373 632 CURVE SMOOTH",
"449 632 LINE",
"427 610 OFFCURVE",
"426 587 OFFCURVE",
"424 565 CURVE SMOOTH",
"392 100 LINE SMOOTH",
"387 30 OFFCURVE",
"381 25 OFFCURVE",
"343 23 CURVE",
"343 0 LINE",
"523 0 LINE",
"523 23 LINE",
"444 25 OFFCURVE",
"428 30 OFFCURVE",
"432 100 CURVE SMOOTH",
"460 537 LINE",
"462 537 LINE",
"790 104 LINE SMOOTH",
"826 56 OFFCURVE",
"849 23 OFFCURVE",
"867 -8 CURVE",
"899 -8 LINE",
"899 30 OFFCURVE",
"902 63 OFFCURVE",
"904 100 CURVE SMOOTH",
"937 565 LINE SMOOTH",
"942 634 OFFCURVE",
"948 639 OFFCURVE",
"986 642 CURVE",
"986 665 LINE",
"806 665 LINE"
);
}
);
width = 984;
}
);
leftKerningGroup = swash;
leftMetricsKey = "=H";
rightMetricsKey = "=N";
},
{
glyphname = P.swsh;
layers = (
{
anchors = (
{
name = bottom;
position = "{569, 0}";
},
{
name = top;
position = "{569, 665}";
}
);
layerId = "230F8D9C-4AAC-4C97-935A-A5529CE4A32C";
paths = (
{
closed = 1;
nodes = (
"202 310 OFFCURVE",
"253 325 OFFCURVE",
"288 354 CURVE",
"282 377 LINE",
"249 358 OFFCURVE",
"213 350 OFFCURVE",
"187 350 CURVE SMOOTH",
"131 350 OFFCURVE",
"103 388 OFFCURVE",
"103 430 CURVE SMOOTH",
"103 515 OFFCURVE",
"216 637 OFFCURVE",
"521 637 CURVE SMOOTH",
"687 637 OFFCURVE",
"736 595 OFFCURVE",
"736 517 CURVE SMOOTH",
"736 430 OFFCURVE",
"674 351 OFFCURVE",
"507 366 CURVE",
"505 342 LINE",
"709 323 OFFCURVE",
"816 421 OFFCURVE",
"816 526 CURVE SMOOTH",
"816 616 OFFCURVE",
"736 670 OFFCURVE",
"535 670 CURVE SMOOTH",
"194 670 OFFCURVE",
"33 529 OFFCURVE",
"33 415 CURVE SMOOTH",
"33 348 OFFCURVE",
"87 310 OFFCURVE",
"158 310 CURVE SMOOTH"
);
},
{
closed = 1;
nodes = (
"554 0 LINE",
"554 23 LINE",
"474 25 OFFCURVE",
"458 30 OFFCURVE",
"463 100 CURVE SMOOTH",
"500 637 LINE",
"450 637 LINE",
"430 617 OFFCURVE",
"427 592 OFFCURVE",
"425 565 CURVE SMOOTH",
"393 100 LINE SMOOTH",
"388 30 OFFCURVE",
"382 25 OFFCURVE",
"344 23 CURVE",
"344 0 LINE"
);
}
);
width = 829;
}
);
leftKerningGroup = swash;
leftMetricsKey = "=H";
rightKerningGroup = F;
rightMetricsKey = "=P";
},
{
glyphname = Q.swsh;
layers = (
{
anchors = (
{
name = bottom;
position = "{379, 0}";
},
{
name = top;
position = "{379, 665}";
}
);
layerId = "230F8D9C-4AAC-4C97-935A-A5529CE4A32C";
paths = (
{
closed = 1;
nodes = (
"455 -131 OFFCURVE",
"392 -49 OFFCURVE",
"259 -49 CURVE SMOOTH",
"250 -49 OFFCURVE",
"241 -49 OFFCURVE",
"231 -50 CURVE",
"231 -48 LINE",
"515 10 OFFCURVE",
"704 169 OFFCURVE",
"704 390 CURVE SMOOTH",
"704 582 OFFCURVE",
"561 680 OFFCURVE",
"406 680 CURVE SMOOTH",
"230 680 OFFCURVE",
"46 553 OFFCURVE",
"46 352 CURVE SMOOTH",
"46 194 OFFCURVE",
"160 130 OFFCURVE",
"252 130 CURVE SMOOTH",
"352 130 OFFCURVE",
"489 205 OFFCURVE",
"489 346 CURVE SMOOTH",
"489 429 OFFCURVE",
"438 465 OFFCURVE",
"383 465 CURVE SMOOTH",
"341 465 OFFCURVE",
"308 444 OFFCURVE",
"269 403 CURVE",
"285 387 LINE",
"312 410 OFFCURVE",
"333 421 OFFCURVE",
"358 421 CURVE SMOOTH",
"393 421 OFFCURVE",
"419 397 OFFCURVE",
"419 330 CURVE SMOOTH",
"419 220 OFFCURVE",
"350 163 OFFCURVE",
"270 163 CURVE SMOOTH",
"190 163 OFFCURVE",
"126 220 OFFCURVE",
"126 352 CURVE SMOOTH",
"126 532 OFFCURVE",
"249 647 OFFCURVE",
"400 647 CURVE SMOOTH",
"536 647 OFFCURVE",
"624 553 OFFCURVE",
"624 379 CURVE SMOOTH",
"624 187 OFFCURVE",
"516 40 OFFCURVE",
"144 -46 CURVE",
"144 -69 LINE",
"339 -69 OFFCURVE",
"392 -187 OFFCURVE",
"567 -200 CURVE",
"610 -178 OFFCURVE",
"645 -131 OFFCURVE",
"664 -87 CURVE",
"643 -79 LINE",
"616 -124 OFFCURVE",
"603 -131 OFFCURVE",
"570 -131 CURVE SMOOTH"
);
}
);
width = 754;
}
);
leftKerningGroup = O;
leftMetricsKey = "=O";
rightKerningGroup = O;
},
{
glyphname = R.swsh;
layers = (
{
anchors = (
{
name = bottom;
position = "{633, 0}";
},
{
name = top;
position = "{593, 665}";
}
);
layerId = "230F8D9C-4AAC-4C97-935A-A5529CE4A32C";
paths = (
{
closed = 1;
nodes = (
"613 366 LINE",
"613 368 LINE",
"714 381 OFFCURVE",
"799 445 OFFCURVE",
"799 534 CURVE SMOOTH",
"799 613 OFFCURVE",
"730 670 OFFCURVE",
"532 670 CURVE SMOOTH",
"198 670 OFFCURVE",
"33 534 OFFCURVE",
"33 416 CURVE SMOOTH",
"33 348 OFFCURVE",
"88 310 OFFCURVE",
"158 310 CURVE SMOOTH",
"202 310 OFFCURVE",
"253 325 OFFCURVE",
"288 354 CURVE",
"282 377 LINE",
"249 358 OFFCURVE",
"213 350 OFFCURVE",
"187 350 CURVE SMOOTH",
"131 350 OFFCURVE",
"103 387 OFFCURVE",
"103 432 CURVE SMOOTH",
"103 519 OFFCURVE",
"208 637 OFFCURVE",
"529 637 CURVE SMOOTH",
"670 637 OFFCURVE",
"719 605 OFFCURVE",
"719 525 CURVE SMOOTH",
"719 413 OFFCURVE",
"621 381 OFFCURVE",
"506 394 CURVE",
"504 370 LINE",
"519 369 OFFCURVE",
"524 364 OFFCURVE",
"539 344 CURVE SMOOTH",
"745 71 LINE SMOOTH",
"776 31 OFFCURVE",
"805 -4 OFFCURVE",
"877 -4 CURVE SMOOTH",
"890 -4 OFFCURVE",
"905 -3 OFFCURVE",
"921 0 CURVE",
"921 23 LINE",
"874 23 OFFCURVE",
"860 35 OFFCURVE",
"809 103 CURVE SMOOTH"
);
},
{
closed = 1;
nodes = (
"500 637 LINE",
"449 637 LINE",
"430 617 OFFCURVE",
"427 589 OFFCURVE",
"425 565 CURVE SMOOTH",
"391 100 LINE SMOOTH",
"386 30 OFFCURVE",
"380 25 OFFCURVE",
"342 23 CURVE",
"342 0 LINE",
"532 0 LINE",
"532 23 LINE",
"472 25 OFFCURVE",
"456 30 OFFCURVE",
"461 100 CURVE SMOOTH"
);
}
);
width = 906;
}
);
leftKerningGroup = swash;
leftMetricsKey = "=H";
rightKerningGroup = K;
rightMetricsKey = "=R";
},
{
glyphname = T.swsh;
layers = (
{
anchors = (
{
name = bottom;
position = "{448, 0}";
},
{
name = center;
position = "{654, 383}";
},
{
name = top;
position = "{507, 665}";
}
);
layerId = "230F8D9C-4AAC-4C97-935A-A5529CE4A32C";
paths = (
{
closed = 1;
nodes = (
"562 0 LINE",
"562 23 LINE",
"518 25 OFFCURVE",
"500 29 OFFCURVE",
"500 78 CURVE SMOOTH",
"500 85 OFFCURVE",
"500 92 OFFCURVE",
"501 100 CURVE SMOOTH",
"538 631 LINE",
"469 646 LINE",
"431 100 LINE SMOOTH",
"426 30 OFFCURVE",
"410 25 OFFCURVE",
"342 23 CURVE",
"342 0 LINE"
);
},
{
closed = 1;
nodes = (
"715 766 LINE",
"736 745 OFFCURVE",
"742 723 OFFCURVE",
"742 704 CURVE SMOOTH",
"742 664 OFFCURVE",
"716 644 OFFCURVE",
"667 644 CURVE SMOOTH",
"595 644 OFFCURVE",
"470 665 OFFCURVE",
"373 665 CURVE",
"373 632 LINE",
"445 632 OFFCURVE",
"579 611 OFFCURVE",
"676 611 CURVE SMOOTH",
"749 611 OFFCURVE",
"807 638 OFFCURVE",
"807 693 CURVE SMOOTH",
"807 732 OFFCURVE",
"777 765 OFFCURVE",
"730 782 CURVE"
);
},
{
closed = 1;
nodes = (
"204 310 OFFCURVE",
"254 325 OFFCURVE",
"289 354 CURVE",
"283 377 LINE",
"250 358 OFFCURVE",
"214 350 OFFCURVE",
"188 350 CURVE SMOOTH",
"132 350 OFFCURVE",
"104 386 OFFCURVE",
"104 433 CURVE SMOOTH",
"104 519 OFFCURVE",
"197 632 OFFCURVE",
"373 632 CURVE",
"373 665 LINE",
"166 665 OFFCURVE",
"34 527 OFFCURVE",
"34 425 CURVE",
"34 344 OFFCURVE",
"88 310 OFFCURVE",
"157 310 CURVE"
);
}
);
width = 797;
}
);
leftKerningGroup = swash;
leftMetricsKey = "=H";
rightKerningGroup = T.swsh;
},
{
glyphname = U.swsh;
layers = (
{
anchors = (
{
name = bottom;
position = "{628, 0}";
},
{
name = ogonek;
position = "{920, 0}";
},
{
name = top;
position = "{678, 665}";
},
{
name = topright;
position = "{995, 665}";
}
);
layerId = "230F8D9C-4AAC-4C97-935A-A5529CE4A32C";
paths = (
{
closed = 1;
nodes = (
"938 634 OFFCURVE",
"944 639 OFFCURVE",
"982 642 CURVE",
"982 665 LINE",
"792 665 LINE",
"792 642 LINE",
"852 639 OFFCURVE",
"868 634 OFFCURVE",
"863 565 CURVE SMOOTH",
"846 322 LINE SMOOTH",
"835 167 OFFCURVE",
"696 30 OFFCURVE",
"567 30 CURVE SMOOTH",
"479 30 OFFCURVE",
"461 98 OFFCURVE",
"466 175 CURVE SMOOTH",
"493 565 LINE SMOOTH",
"498 634 OFFCURVE",
"504 639 OFFCURVE",
"542 642 CURVE",
"542 665 LINE",
"373 665 LINE SMOOTH",
"166 665 OFFCURVE",
"34 527 OFFCURVE",
"34 425 CURVE SMOOTH",
"34 344 OFFCURVE",
"88 310 OFFCURVE",
"157 310 CURVE SMOOTH",
"204 310 OFFCURVE",
"254 325 OFFCURVE",
"289 354 CURVE",
"283 377 LINE",
"250 358 OFFCURVE",
"214 350 OFFCURVE",
"188 350 CURVE SMOOTH",
"132 350 OFFCURVE",
"104 386 OFFCURVE",
"104 433 CURVE SMOOTH",
"104 519 OFFCURVE",
"197 632 OFFCURVE",
"373 632 CURVE SMOOTH",
"448 632 LINE",
"426 610 OFFCURVE",
"425 587 OFFCURVE",
"423 565 CURVE SMOOTH",
"395 158 LINE SMOOTH",
"388 50 OFFCURVE",
"428 -15 OFFCURVE",
"549 -15 CURVE SMOOTH",
"658 -15 OFFCURVE",
"772 58 OFFCURVE",
"834 175 CURVE",
"836 175 LINE",
"831 100 LINE SMOOTH",
"828 48 OFFCURVE",
"829 21 OFFCURVE",
"836 0 CURVE",
"972 0 LINE",
"972 23 LINE",
"912 25 OFFCURVE",
"896 30 OFFCURVE",
"901 100 CURVE SMOOTH",
"933 565 LINE SMOOTH"
);
}
);
width = 1029;
}
);
leftKerningGroup = swash;
leftMetricsKey = "=U";
rightMetricsKey = "=U";
},
{
glyphname = Uogonek.swsh;
layers = (
{
anchors = (
{
name = _ogonek;
position = "{924, 0}";
}
);
components = (
{
name = U.swsh;
}
);
layerId = "230F8D9C-4AAC-4C97-935A-A5529CE4A32C";
paths = (
{
closed = 1;
nodes = (
"841 0 LINE",
"764 -42 OFFCURVE",
"713 -103 OFFCURVE",
"713 -160 CURVE SMOOTH",
"713 -204 OFFCURVE",
"743 -235 OFFCURVE",
"786 -235 CURVE SMOOTH",
"820 -235 OFFCURVE",
"859 -216 OFFCURVE",
"896 -163 CURVE",
"879 -147 LINE",
"858 -170 OFFCURVE",
"839 -185 OFFCURVE",
"816 -185 CURVE SMOOTH",
"790 -185 OFFCURVE",
"778 -165 OFFCURVE",
"778 -141 CURVE SMOOTH",
"778 -87 OFFCURVE",
"842 0 OFFCURVE",
"924 0 CURVE"
);
}
);
width = 1033;
}
);
leftKerningGroup = swash;
},
{
glyphname = V.swsh;
layers = (
{
anchors = (
{
name = bottom;
position = "{661, 0}";
},
{
name = top;
position = "{661, 665}";
}
);
layerId = "230F8D9C-4AAC-4C97-935A-A5529CE4A32C";
paths = (
{
closed = 1;
nodes = (
"772 642 LINE",
"848 639 OFFCURVE",
"864 634 OFFCURVE",
"836 565 CURVE SMOOTH",
"656 115 LINE",
"654 115 LINE",
"532 565 LINE SMOOTH",
"513 634 OFFCURVE",
"521 639 OFFCURVE",
"562 642 CURVE",
"562 665 LINE",
"373 665 LINE SMOOTH",
"166 665 OFFCURVE",
"34 527 OFFCURVE",
"34 425 CURVE SMOOTH",
"34 344 OFFCURVE",
"88 310 OFFCURVE",
"157 310 CURVE SMOOTH",
"204 310 OFFCURVE",
"254 325 OFFCURVE",
"289 354 CURVE",
"283 377 LINE",
"250 358 OFFCURVE",
"214 350 OFFCURVE",
"188 350 CURVE SMOOTH",
"132 350 OFFCURVE",
"104 386 OFFCURVE",
"104 433 CURVE SMOOTH",
"104 519 OFFCURVE",
"197 632 OFFCURVE",
"373 632 CURVE SMOOTH",
"462 632 LINE",
"448 610 OFFCURVE",
"453 587 OFFCURVE",
"459 565 CURVE SMOOTH",
"588 79 LINE SMOOTH",
"595 53 OFFCURVE",
"602 27 OFFCURVE",
"608 -8 CURVE",
"651 -8 LINE",
"661 27 OFFCURVE",
"670 53 OFFCURVE",
"681 79 CURVE SMOOTH",
"878 565 LINE SMOOTH",
"906 634 OFFCURVE",
"922 639 OFFCURVE",
"950 642 CURVE",
"950 665 LINE",
"772 665 LINE"
);
}
);
width = 953;
}
);
leftKerningGroup = swash;
leftMetricsKey = "=H";
rightKerningGroup = V;
rightMetricsKey = "=V";
},
{
glyphname = W.swsh;
layers = (
{
anchors = (
{
name = bottom;
position = "{778, 0}";
},
{
name = top;
position = "{788, 665}";
}
);
layerId = "230F8D9C-4AAC-4C97-935A-A5529CE4A32C";
paths = (
{
closed = 1;
nodes = (
"1013 642 LINE",
"1083 639 OFFCURVE",
"1099 634 OFFCURVE",
"1082 565 CURVE SMOOTH",
"975 137 LINE",
"974 137 LINE",
"848 563 LINE SMOOTH",
"837 599 OFFCURVE",
"827 636 OFFCURVE",
"818 673 CURVE",
"775 673 LINE",
"563 137 LINE",
"561 137 LINE",
"508 565 LINE SMOOTH",
"499 634 OFFCURVE",
"506 639 OFFCURVE",
"573 642 CURVE",
"573 665 LINE",
"373 665 LINE SMOOTH",
"166 665 OFFCURVE",
"34 527 OFFCURVE",
"34 425 CURVE SMOOTH",
"34 344 OFFCURVE",
"88 310 OFFCURVE",
"157 310 CURVE SMOOTH",
"204 310 OFFCURVE",
"254 325 OFFCURVE",
"289 354 CURVE",
"283 377 LINE",
"250 358 OFFCURVE",
"214 350 OFFCURVE",
"188 350 CURVE SMOOTH",
"132 350 OFFCURVE",
"104 386 OFFCURVE",
"104 433 CURVE SMOOTH",
"104 519 OFFCURVE",
"197 632 OFFCURVE",
"373 632 CURVE SMOOTH",
"449 632 LINE",
"431 610 OFFCURVE",
"434 587 OFFCURVE",
"436 565 CURVE SMOOTH",
"496 79 LINE SMOOTH",
"499 54 OFFCURVE",
"502 27 OFFCURVE",
"505 -8 CURVE",
"548 -8 LINE",
"557 27 OFFCURVE",
"564 50 OFFCURVE",
"576 79 CURVE SMOOTH",
"771 560 LINE",
"773 560 LINE",
"915 79 LINE SMOOTH",
"923 53 OFFCURVE",
"929 27 OFFCURVE",
"935 -8 CURVE",
"978 -8 LINE",
"983 27 OFFCURVE",
"989 53 OFFCURVE",
"996 79 CURVE SMOOTH",
"1124 565 LINE SMOOTH",
"1142 634 OFFCURVE",
"1158 639 OFFCURVE",
"1191 642 CURVE",
"1191 665 LINE",
"1013 665 LINE"
);
}
);
width = 1196;
}
);
leftKerningGroup = swash;
leftMetricsKey = "=H";
rightKerningGroup = W;
rightMetricsKey = "=W";
},
{
glyphname = X.swsh;
layers = (
{
anchors = (
{
name = bottom;
position = "{595, 0}";
},
{
name = top;
position = "{595, 665}";
}
);
layerId = "230F8D9C-4AAC-4C97-935A-A5529CE4A32C";
paths = (
{
closed = 1;
nodes = (
"812 634 OFFCURVE",
"829 639 OFFCURVE",
"870 642 CURVE",
"870 665 LINE",
"689 665 LINE",
"689 642 LINE",
"749 639 OFFCURVE",
"765 634 OFFCURVE",
"720 565 CURVE SMOOTH",
"623 414 LINE",
"621 414 LINE",
"553 565 LINE SMOOTH",
"522 634 OFFCURVE",
"538 639 OFFCURVE",
"578 642 CURVE",
"578 665 LINE",
"373 665 LINE SMOOTH",
"166 665 OFFCURVE",
"34 527 OFFCURVE",
"34 425 CURVE SMOOTH",
"34 344 OFFCURVE",
"88 310 OFFCURVE",
"157 310 CURVE SMOOTH",
"204 310 OFFCURVE",
"254 325 OFFCURVE",
"289 354 CURVE",
"283 377 LINE",
"250 358 OFFCURVE",
"214 350 OFFCURVE",
"188 350 CURVE SMOOTH",
"132 350 OFFCURVE",
"104 386 OFFCURVE",
"104 433 CURVE SMOOTH",
"104 519 OFFCURVE",
"197 632 OFFCURVE",
"373 632 CURVE SMOOTH",
"463 632 LINE",
"453 610 OFFCURVE",
"464 587 OFFCURVE",
"474 565 CURVE SMOOTH",
"558 380 LINE SMOOTH",
"568 359 OFFCURVE",
"562 346 OFFCURVE",
"549 326 CURVE SMOOTH",
"403 100 LINE SMOOTH",
"358 30 OFFCURVE",
"343 25 OFFCURVE",
"299 23 CURVE",
"299 0 LINE",
"491 0 LINE",
"491 23 LINE",
"423 25 OFFCURVE",
"406 30 OFFCURVE",
"450 100 CURVE SMOOTH",
"587 315 LINE",
"589 315 LINE",
"685 100 LINE SMOOTH",
"716 30 OFFCURVE",
"700 25 OFFCURVE",
"661 23 CURVE",
"661 0 LINE",
"865 0 LINE",
"865 23 LINE",
"812 25 OFFCURVE",
"797 30 OFFCURVE",
"765 100 CURVE SMOOTH",
"652 348 LINE SMOOTH",
"643 367 OFFCURVE",
"647 388 OFFCURVE",
"659 405 CURVE SMOOTH",
"766 565 LINE SMOOTH"
);
}
);
width = 893;
}
);
leftKerningGroup = swash;
leftMetricsKey = "=H";
rightKerningGroup = X;
rightMetricsKey = "=X";
},
{
glyphname = Y.swsh;
layers = (
{
anchors = (
{
name = bottom;
position = "{622, 0}";
},
{
name = top;
position = "{652, 665}";
},
{
name = topleft;
position = "{380, 665}";
}
);
layerId = "230F8D9C-4AAC-4C97-935A-A5529CE4A32C";
paths = (
{
closed = 1;
nodes = (
"713 642 LINE",
"782 639 OFFCURVE",
"798 634 OFFCURVE",
"754 565 CURVE SMOOTH",
"630 370 LINE",
"628 370 LINE",
"544 565 LINE SMOOTH",
"514 634 OFFCURVE",
"521 639 OFFCURVE",
"568 642 CURVE",
"568 665 LINE",
"373 665 LINE SMOOTH",
"166 665 OFFCURVE",
"34 527 OFFCURVE",
"34 425 CURVE SMOOTH",
"34 344 OFFCURVE",
"88 310 OFFCURVE",
"157 310 CURVE SMOOTH",
"204 310 OFFCURVE",
"254 325 OFFCURVE",
"289 354 CURVE",
"283 377 LINE",
"250 358 OFFCURVE",
"214 350 OFFCURVE",
"188 350 CURVE SMOOTH",
"132 350 OFFCURVE",
"104 386 OFFCURVE",
"104 433 CURVE SMOOTH",
"104 519 OFFCURVE",
"197 632 OFFCURVE",
"373 632 CURVE SMOOTH",
"462 632 LINE",
"451 610 OFFCURVE",
"460 587 OFFCURVE",
"469 565 CURVE SMOOTH",
"557 355 LINE SMOOTH",
"566 333 OFFCURVE",
"572 314 OFFCURVE",
"570 287 CURVE SMOOTH",
"557 100 LINE SMOOTH",
"552 30 OFFCURVE",
"536 25 OFFCURVE",
"468 23 CURVE",
"468 0 LINE",
"688 0 LINE",
"688 23 LINE",
"638 25 OFFCURVE",
"622 30 OFFCURVE",
"627 100 CURVE SMOOTH",
"640 287 LINE SMOOTH",
"643 323 OFFCURVE",
"650 333 OFFCURVE",
"664 355 CURVE SMOOTH",
"800 565 LINE SMOOTH",
"845 634 OFFCURVE",
"851 639 OFFCURVE",
"881 642 CURVE",
"881 665 LINE",
"713 665 LINE"
);
}
);
width = 884;
}
);
leftKerningGroup = swash;
leftMetricsKey = "=H";
rightKerningGroup = V;
rightMetricsKey = "=Y";
},
{
glyphname = A_H;
layers = (
{
anchors = (
{
name = caret_1;
position = "{413, 0}";
}
);
layerId = "230F8D9C-4AAC-4C97-935A-A5529CE4A32C";
paths = (
{
closed = 1;
nodes = (
"897 634 OFFCURVE",
"903 639 OFFCURVE",
"941 642 CURVE",
"941 665 LINE",
"751 665 LINE",
"751 642 LINE",
"811 639 OFFCURVE",
"827 634 OFFCURVE",
"822 565 CURVE SMOOTH",
"814 450 LINE SMOOTH",
"811 409 OFFCURVE",
"799 400 OFFCURVE",
"762 400 CURVE SMOOTH",
"520 400 LINE SMOOTH",
"500 400 OFFCURVE",
"484 398 OFFCURVE",
"473 390 CURVE",
"485 565 LINE SMOOTH",
"490 634 OFFCURVE",
"496 639 OFFCURVE",
"534 642 CURVE",
"534 665 LINE",
"324 665 LINE",
"324 642 LINE",
"361 640 OFFCURVE",
"389 638 OFFCURVE",
"404 620 CURVE",
"65 100 LINE SMOOTH",
"20 31 OFFCURVE",
"7 25 OFFCURVE",
"-27 23 CURVE",
"-27 0 LINE",
"158 0 LINE",
"158 23 LINE",
"89 25 OFFCURVE",
"70 31 OFFCURVE",
"114 100 CURVE SMOOTH",
"202 236 LINE SMOOTH",
"230 279 OFFCURVE",
"239 285 OFFCURVE",
"273 285 CURVE SMOOTH",
"361 285 LINE SMOOTH",
"374 285 OFFCURVE",
"387 286 OFFCURVE",
"396 292 CURVE",
"383 100 LINE SMOOTH",
"378 30 OFFCURVE",
"372 25 OFFCURVE",
"334 23 CURVE",
"334 0 LINE",
"524 0 LINE",
"524 23 LINE",
"464 25 OFFCURVE",
"448 30 OFFCURVE",
"453 100 CURVE SMOOTH",
"469 332 LINE SMOOTH",
"471 362 OFFCURVE",
"486 370 OFFCURVE",
"520 370 CURVE SMOOTH",
"762 370 LINE SMOOTH",
"783 370 OFFCURVE",
"799 373 OFFCURVE",
"810 383 CURVE",
"790 100 LINE SMOOTH",
"785 30 OFFCURVE",
"779 25 OFFCURVE",
"741 23 CURVE",
"741 0 LINE",
"931 0 LINE",
"931 23 LINE",
"871 25 OFFCURVE",
"855 30 OFFCURVE",
"860 100 CURVE SMOOTH",
"892 565 LINE SMOOTH"
);
},
{
closed = 1;
nodes = (
"398 319 OFFCURVE",
"388 315 OFFCURVE",
"370 315 CURVE SMOOTH",
"277 315 LINE SMOOTH",
"267 315 OFFCURVE",
"258 315 OFFCURVE",
"250 312 CURVE",
"413 565 LINE",
"415 565 LINE",
"399 339 LINE SMOOTH"
);
}
);
width = 981;
}
);
leftKerningGroup = A;
leftMetricsKey = A;
rightMetricsKey = H;
},
{
glyphname = T_T;
layers = (
{
anchors = (
{
name = caret_1;
position = "{502, 0}";
}
);
layerId = "230F8D9C-4AAC-4C97-935A-A5529CE4A32C";
paths = (
{
closed = 1;
nodes = (
"38 665 LINE",
"28 510 LINE",
"51 510 LINE",
"56 580 OFFCURVE",
"88 635 OFFCURVE",
"176 635 CURVE SMOOTH",
"257 635 LINE",
"220 100 LINE SMOOTH",
"215 30 OFFCURVE",
"199 25 OFFCURVE",
"131 23 CURVE",
"131 0 LINE",
"351 0 LINE",
"351 23 LINE",
"301 25 OFFCURVE",
"285 30 OFFCURVE",
"290 100 CURVE SMOOTH",
"327 635 LINE",
"401 635 LINE SMOOTH",
"497 635 OFFCURVE",
"513 580 OFFCURVE",
"513 510 CURVE",
"536 510 LINE",
"541 580 OFFCURVE",
"573 635 OFFCURVE",
"661 635 CURVE SMOOTH",
"742 635 LINE",
"705 100 LINE SMOOTH",
"700 30 OFFCURVE",
"684 25 OFFCURVE",
"616 23 CURVE",
"616 0 LINE",
"836 0 LINE",
"836 23 LINE",
"786 25 OFFCURVE",
"770 30 OFFCURVE",
"775 100 CURVE SMOOTH",
"812 635 LINE",
"886 635 LINE SMOOTH",
"982 635 OFFCURVE",
"998 580 OFFCURVE",
"998 510 CURVE",
"1021 510 LINE",
"1031 665 LINE"
);
}
);
width = 1059;
}
);
leftKerningGroup = T;
leftMetricsKey = T;
rightKerningGroup = T;
rightMetricsKey = T;
},
{
glyphname = T_h;
layers = (
{
anchors = (
{
name = caret_1;
position = "{433, 0}";
}
);
layerId = "230F8D9C-4AAC-4C97-935A-A5529CE4A32C";
paths = (
{
closed = 1;
nodes = (
"748 455 OFFCURVE",
"646 375 OFFCURVE",
"596 290 CURVE",
"594 290 LINE",
"609 445 OFFCURVE",
"619 523 OFFCURVE",
"619 631 CURVE SMOOTH",
"619 664 OFFCURVE",
"615 693 OFFCURVE",
"607 710 CURVE",
"589 701 OFFCURVE",
"567 685 OFFCURVE",
"545 665 CURVE",
"38 665 LINE",
"28 510 LINE",
"51 510 LINE",
"56 580 OFFCURVE",
"88 635 OFFCURVE",
"176 635 CURVE SMOOTH",
"257 635 LINE",
"220 100 LINE SMOOTH",
"215 30 OFFCURVE",
"199 25 OFFCURVE",
"131 23 CURVE",
"131 0 LINE",
"351 0 LINE",
"351 23 LINE",
"301 25 OFFCURVE",
"285 30 OFFCURVE",
"290 100 CURVE SMOOTH",
"327 635 LINE",
"441 635 LINE SMOOTH",
"537 635 OFFCURVE",
"554 616 OFFCURVE",
"554 546 CURVE SMOOTH",
"554 471 OFFCURVE",
"527 165 OFFCURVE",
"509 -15 CURVE",
"530 -7 OFFCURVE",
"551 -2 OFFCURVE",
"574 0 CURVE",
"576 118 OFFCURVE",
"581 195 OFFCURVE",
"617 265 CURVE SMOOTH",
"655 338 OFFCURVE",
"724 394 OFFCURVE",
"772 394 CURVE SMOOTH",
"800 394 OFFCURVE",
"819 375 OFFCURVE",
"819 291 CURVE SMOOTH",
"819 201 OFFCURVE",
"799 50 OFFCURVE",
"748 50 CURVE SMOOTH",
"737 50 OFFCURVE",
"726 57 OFFCURVE",
"718 64 CURVE",
"694 49 OFFCURVE",
"688 13 OFFCURVE",
"697 -15 CURVE",
"820 -9 OFFCURVE",
"889 178 OFFCURVE",
"889 322 CURVE SMOOTH",
"889 424 OFFCURVE",
"854 455 OFFCURVE",
"813 455 CURVE SMOOTH"
);
}
);
width = 932;
}
);
leftKerningGroup = T;
leftMetricsKey = "=T";
rightKerningGroup = h;
rightMetricsKey = "=h";
},
{
glyphname = T_h.swsh;
layers = (
{
anchors = (
{
name = caret_1;
position = "{612, 0}";
}
);
layerId = "230F8D9C-4AAC-4C97-935A-A5529CE4A32C";
paths = (
{
closed = 1;
nodes = (
"933 455 OFFCURVE",
"831 375 OFFCURVE",
"781 290 CURVE",
"779 290 LINE",
"794 445 OFFCURVE",
"804 523 OFFCURVE",
"804 631 CURVE SMOOTH",
"804 664 OFFCURVE",
"800 693 OFFCURVE",
"792 710 CURVE",
"774 701 OFFCURVE",
"752 685 OFFCURVE",
"730 665 CURVE",
"361 665 LINE SMOOTH",
"154 665 OFFCURVE",
"22 527 OFFCURVE",
"22 425 CURVE SMOOTH",
"22 344 OFFCURVE",
"76 310 OFFCURVE",
"145 310 CURVE SMOOTH",
"192 310 OFFCURVE",
"242 325 OFFCURVE",
"277 354 CURVE",
"271 377 LINE",
"238 358 OFFCURVE",
"202 350 OFFCURVE",
"176 350 CURVE SMOOTH",
"120 350 OFFCURVE",
"92 386 OFFCURVE",
"92 433 CURVE SMOOTH",
"92 519 OFFCURVE",
"185 632 OFFCURVE",
"361 632 CURVE SMOOTH",
"442 632 LINE",
"405 100 LINE SMOOTH",
"400 30 OFFCURVE",
"384 25 OFFCURVE",
"316 23 CURVE",
"316 0 LINE",
"536 0 LINE",
"536 23 LINE",
"486 25 OFFCURVE",
"470 30 OFFCURVE",
"475 100 CURVE SMOOTH",
"512 632 LINE",
"626 632 LINE SMOOTH",
"722 632 OFFCURVE",
"739 616 OFFCURVE",
"739 546 CURVE SMOOTH",
"739 471 OFFCURVE",
"712 165 OFFCURVE",
"694 -15 CURVE",
"715 -7 OFFCURVE",
"736 -2 OFFCURVE",
"759 0 CURVE",
"761 118 OFFCURVE",
"766 195 OFFCURVE",
"802 265 CURVE SMOOTH",
"840 338 OFFCURVE",
"909 394 OFFCURVE",
"957 394 CURVE SMOOTH",
"985 394 OFFCURVE",
"1004 375 OFFCURVE",
"1004 291 CURVE SMOOTH",
"1004 201 OFFCURVE",
"984 50 OFFCURVE",
"933 50 CURVE SMOOTH",
"922 50 OFFCURVE",
"911 57 OFFCURVE",
"903 64 CURVE",
"879 49 OFFCURVE",
"873 13 OFFCURVE",
"882 -15 CURVE",
"1005 -9 OFFCURVE",
"1074 178 OFFCURVE",
"1074 322 CURVE SMOOTH",
"1074 424 OFFCURVE",
"1039 455 OFFCURVE",
"998 455 CURVE SMOOTH"
);
}
);
width = 1117;
}
);
leftMetricsKey = T;
rightKerningGroup = n;
rightMetricsKey = h;
},
{
glyphname = Bsmall;
layers = (
{
layerId = "230F8D9C-4AAC-4C97-935A-A5529CE4A32C";
paths = (
{
closed = 1;
nodes = (
"259 0 LINE SMOOTH",
"402 0 OFFCURVE",
"454 76 OFFCURVE",
"454 151 CURVE SMOOTH",
"454 208 OFFCURVE",
"409 249 OFFCURVE",
"330 259 CURVE",
"330 261 LINE",
"394 274 OFFCURVE",
"422 314 OFFCURVE",
"422 363 CURVE SMOOTH",
"422 412 OFFCURVE",
"390 445 OFFCURVE",
"286 445 CURVE SMOOTH",
"238 445 OFFCURVE",
"212 440 OFFCURVE",
"126 440 CURVE SMOOTH",
"41 440 LINE",
"39 417 LINE",
"117 415 OFFCURVE",
"123 398 OFFCURVE",
"119 339 CURVE SMOOTH",
"102 101 LINE SMOOTH",
"97 31 OFFCURVE",
"81 25 OFFCURVE",
"37 23 CURVE",
"35 0 LINE"
);
},
{
closed = 1;
nodes = (
"180 35 OFFCURVE",
"168 45 OFFCURVE",
"171 87 CURVE SMOOTH",
"178 185 LINE SMOOTH",
"180 218 OFFCURVE",
"199 234 OFFCURVE",
"265 234 CURVE SMOOTH",
"334 234 OFFCURVE",
"379 201 OFFCURVE",
"379 143 CURVE SMOOTH",
"379 100 OFFCURVE",
"355 35 OFFCURVE",
"252 35 CURVE SMOOTH"
);
},
{
closed = 1;
nodes = (
"190 353 LINE SMOOTH",
"193 398 OFFCURVE",
"208 410 OFFCURVE",
"265 410 CURVE SMOOTH",
"300 410 OFFCURVE",
"351 399 OFFCURVE",
"351 353 CURVE SMOOTH",
"351 301 OFFCURVE",
"311 271 OFFCURVE",
"231 264 CURVE SMOOTH",
"209 262 OFFCURVE",
"196 260 OFFCURVE",
"183 251 CURVE"
);
}
);
width = 504;
}
);
leftKerningGroup = n;
leftMetricsKey = "=n";
rightKerningGroup = o;
rightMetricsKey = "=o";
unicode = 0299;
},
{
glyphname = Gsmall;
layers = (
{
layerId = "230F8D9C-4AAC-4C97-935A-A5529CE4A32C";
paths = (
{
closed = 1;
nodes = (
"304 182 LINE",
"345 179 OFFCURVE",
"360 177 OFFCURVE",
"360 143 CURVE SMOOTH",
"360 111 OFFCURVE",
"354 86 OFFCURVE",
"347 71 CURVE SMOOTH",
"332 39 OFFCURVE",
"296 20 OFFCURVE",
"250 20 CURVE SMOOTH",
"153 20 OFFCURVE",
"118 123 OFFCURVE",
"118 212 CURVE SMOOTH",
"118 335 OFFCURVE",
"179 418 OFFCURVE",
"269 418 CURVE SMOOTH",
"327 418 OFFCURVE",
"395 395 OFFCURVE",
"401 308 CURVE",
"424 308 LINE",
"431 419 LINE",
"394 445 OFFCURVE",
"342 455 OFFCURVE",
"291 455 CURVE SMOOTH",
"146 455 OFFCURVE",
"44 339 OFFCURVE",
"44 188 CURVE SMOOTH",
"44 83 OFFCURVE",
"96 -13 OFFCURVE",
"238 -13 CURVE SMOOTH",
"337 -13 OFFCURVE",
"391 34 OFFCURVE",
"424 70 CURVE",
"420 99 OFFCURVE",
"421 112 OFFCURVE",
"422 131 CURVE SMOOTH",
"423 147 LINE SMOOTH",
"424 168 OFFCURVE",
"430 180 OFFCURVE",
"451 182 CURVE",
"453 205 LINE",
"306 205 LINE"
);
}
);
width = 499;
}
);
leftKerningGroup = o;
leftMetricsKey = "=o";
rightKerningGroup = n;
rightMetricsKey = "=o";
unicode = 0262;
},
{
glyphname = Gsmallhook;
layers = (
{
layerId = "230F8D9C-4AAC-4C97-935A-A5529CE4A32C";
paths = (
{
closed = 1;
nodes = (
"435 575 OFFCURVE",
"399 492 OFFCURVE",
"384 419 CURVE",
"407 432 LINE",
"373 449 OFFCURVE",
"332 455 OFFCURVE",
"291 455 CURVE SMOOTH",
"146 455 OFFCURVE",
"44 339 OFFCURVE",
"44 188 CURVE SMOOTH",
"44 83 OFFCURVE",
"96 -13 OFFCURVE",
"238 -13 CURVE SMOOTH",
"337 -13 OFFCURVE",
"391 34 OFFCURVE",
"424 70 CURVE",
"420 99 OFFCURVE",
"421 112 OFFCURVE",
"422 131 CURVE SMOOTH",
"423 147 LINE SMOOTH",
"424 168 OFFCURVE",
"430 180 OFFCURVE",
"451 182 CURVE",
"453 205 LINE",
"306 205 LINE",
"304 182 LINE",
"345 179 OFFCURVE",
"360 177 OFFCURVE",
"360 143 CURVE SMOOTH",
"360 111 OFFCURVE",
"354 86 OFFCURVE",
"347 71 CURVE SMOOTH",
"332 39 OFFCURVE",
"296 20 OFFCURVE",
"250 20 CURVE SMOOTH",
"153 20 OFFCURVE",
"118 123 OFFCURVE",
"118 212 CURVE SMOOTH",
"118 335 OFFCURVE",
"179 418 OFFCURVE",
"269 418 CURVE SMOOTH",
"327 418 OFFCURVE",
"395 395 OFFCURVE",
"401 308 CURVE",
"424 308 LINE",
"431 419 LINE SMOOTH",
"436 504 OFFCURVE",
"451 532 OFFCURVE",
"473 532 CURVE SMOOTH",
"488 532 OFFCURVE",
"497 509 OFFCURVE",
"493 454 CURVE",
"515 454 LINE",
"532 509 OFFCURVE",
"543 565 OFFCURVE",
"497 604 CURVE"
);
}
);
width = 493;
}
);
leftKerningGroup = o;
leftMetricsKey = "=o";
unicode = 029B;
},
{
glyphname = Hsmall;
layers = (
{
layerId = "230F8D9C-4AAC-4C97-935A-A5529CE4A32C";
paths = (
{
closed = 1;
nodes = (
"476 406 OFFCURVE",
"488 414 OFFCURVE",
"537 417 CURVE",
"537 440 LINE",
"322 440 LINE",
"322 417 LINE",
"391 415 OFFCURVE",
"406 409 OFFCURVE",
"401 339 CURVE SMOOTH",
"398 304 LINE SMOOTH",
"395 268 OFFCURVE",
"382 259 OFFCURVE",
"346 259 CURVE SMOOTH",
"228 259 LINE SMOOTH",
"209 259 OFFCURVE",
"194 257 OFFCURVE",
"183 251 CURVE",
"189 339 LINE SMOOTH",
"194 406 OFFCURVE",
"206 414 OFFCURVE",
"255 417 CURVE",
"255 440 LINE",
"40 440 LINE",
"40 417 LINE",
"120 415 OFFCURVE",
"123 398 OFFCURVE",
"119 339 CURVE SMOOTH",
"102 101 LINE SMOOTH",
"97 38 OFFCURVE",
"88 26 OFFCURVE",
"36 23 CURVE",
"36 0 LINE",
"251 0 LINE",
"251 23 LINE",
"170 25 OFFCURVE",
"168 43 OFFCURVE",
"172 101 CURVE SMOOTH",
"178 179 LINE SMOOTH",
"181 214 OFFCURVE",
"194 223 OFFCURVE",
"230 223 CURVE SMOOTH",
"348 223 LINE SMOOTH",
"366 223 OFFCURVE",
"382 225 OFFCURVE",
"393 233 CURVE",
"384 101 LINE SMOOTH",
"379 31 OFFCURVE",
"364 25 OFFCURVE",
"318 23 CURVE",
"318 0 LINE",
"533 0 LINE",
"533 23 LINE",
"452 25 OFFCURVE",
"450 43 OFFCURVE",
"454 101 CURVE SMOOTH",
"471 339 LINE SMOOTH"
);
}
);
width = 573;
}
);
leftKerningGroup = n;
leftMetricsKey = "=n";
rightKerningGroup = n;
rightMetricsKey = "=|n";
unicode = 029C;
},
{
glyphname = Ismall;
layers = (
{
layerId = "230F8D9C-4AAC-4C97-935A-A5529CE4A32C";
paths = (
{
closed = 1;
nodes = (
"251 0 LINE",
"251 23 LINE",
"181 25 OFFCURVE",
"167 31 OFFCURVE",
"172 101 CURVE SMOOTH",
"189 338 LINE SMOOTH",
"193 400 OFFCURVE",
"203 414 OFFCURVE",
"255 416 CURVE",
"255 439 LINE",
"40 439 LINE",
"40 416 LINE",
"110 414 OFFCURVE",
"124 408 OFFCURVE",
"119 338 CURVE SMOOTH",
"102 101 LINE SMOOTH",
"97 38 OFFCURVE",
"88 26 OFFCURVE",
"36 23 CURVE",
"36 0 LINE"
);
}
);
width = 291;
}
);
leftKerningGroup = n;
leftMetricsKey = "=n";
rightKerningGroup = n;
rightMetricsKey = "=|n";
unicode = 026A;
},
{
glyphname = Lsmall;
layers = (
{
layerId = "230F8D9C-4AAC-4C97-935A-A5529CE4A32C";
paths = (
{
closed = 1;
nodes = (
"359 80 OFFCURVE",
"338 31 OFFCURVE",
"276 31 CURVE SMOOTH",
"228 31 LINE SMOOTH",
"174 31 OFFCURVE",
"169 61 OFFCURVE",
"172 101 CURVE SMOOTH",
"189 339 LINE SMOOTH",
"194 406 OFFCURVE",
"206 414 OFFCURVE",
"255 417 CURVE",
"255 440 LINE",
"40 440 LINE",
"40 417 LINE",
"120 415 OFFCURVE",
"123 398 OFFCURVE",
"119 339 CURVE SMOOTH",
"102 101 LINE SMOOTH",
"97 38 OFFCURVE",
"88 26 OFFCURVE",
"36 23 CURVE",
"36 0 LINE",
"375 0 LINE",
"390 132 LINE",
"367 132 LINE"
);
}
);
width = 404;
}
);
leftKerningGroup = n;
leftMetricsKey = "=n";
rightKerningGroup = l.sc;
rightMetricsKey = "=l.sc";
unicode = 029F;
},
{
glyphname = Nsmall;
layers = (
{
layerId = "230F8D9C-4AAC-4C97-935A-A5529CE4A32C";
paths = (
{
closed = 1;
nodes = (
"449 -7 LINE",
"449 29 OFFCURVE",
"451 53 OFFCURVE",
"453 84 CURVE SMOOTH",
"472 352 LINE SMOOTH",
"475 393 OFFCURVE",
"489 413 OFFCURVE",
"522 417 CURVE",
"522 440 LINE",
"375 440 LINE",
"375 417 LINE",
"426 414 OFFCURVE",
"437 391 OFFCURVE",
"434 352 CURVE SMOOTH",
"415 115 LINE",
"413 115 LINE",
"190 366 LINE SMOOTH",
"171 387 OFFCURVE",
"156 408 OFFCURVE",
"138 440 CURVE",
"40 440 LINE",
"40 421 LINE",
"85 418 OFFCURVE",
"100 399 OFFCURVE",
"97 356 CURVE SMOOTH",
"78 88 LINE SMOOTH",
"76 54 OFFCURVE",
"66 26 OFFCURVE",
"29 23 CURVE",
"29 0 LINE",
"184 0 LINE",
"184 23 LINE",
"117 26 OFFCURVE",
"114 57 OFFCURVE",
"116 88 CURVE SMOOTH",
"134 325 LINE",
"136 325 LINE",
"358 75 LINE SMOOTH",
"389 40 OFFCURVE",
"401 20 OFFCURVE",
"418 -7 CURVE"
);
}
);
width = 533;
}
);
leftKerningGroup = n;
leftMetricsKey = "=n";
rightKerningGroup = n;
rightMetricsKey = "=|n";
unicode = 0274;
},
{
glyphname = OEsmall;
layers = (
{
layerId = "230F8D9C-4AAC-4C97-935A-A5529CE4A32C";
paths = (
{
closed = 1;
nodes = (
"579 80 OFFCURVE",
"551 36 OFFCURVE",
"489 36 CURVE SMOOTH",
"449 36 LINE SMOOTH",
"396 36 OFFCURVE",
"388 47 OFFCURVE",
"391 89 CURVE SMOOTH",
"398 190 LINE SMOOTH",
"400 221 OFFCURVE",
"416 227 OFFCURVE",
"441 227 CURVE SMOOTH",
"489 227 LINE SMOOTH",
"522 227 OFFCURVE",
"530 217 OFFCURVE",
"529 180 CURVE",
"553 180 LINE",
"562 305 LINE",
"538 305 LINE",
"534 269 OFFCURVE",
"519 263 OFFCURVE",
"492 263 CURVE SMOOTH",
"442 263 LINE SMOOTH",
"431 263 OFFCURVE",
"415 263 OFFCURVE",
"403 255 CURVE",
"410 351 LINE SMOOTH",
"414 403 OFFCURVE",
"432 403 OFFCURVE",
"449 403 CURVE SMOOTH",
"483 403 LINE SMOOTH",
"536 403 OFFCURVE",
"559 394 OFFCURVE",
"559 337 CURVE",
"582 337 LINE",
"589 440 LINE",
"297 440 LINE SMOOTH",
"148 440 OFFCURVE",
"45 339 OFFCURVE",
"45 204 CURVE SMOOTH",
"45 89 OFFCURVE",
"122 0 OFFCURVE",
"250 0 CURVE SMOOTH",
"595 0 LINE",
"610 130 LINE",
"587 130 LINE"
);
},
{
closed = 1;
nodes = (
"317 50 OFFCURVE",
"308 38 OFFCURVE",
"265 36 CURVE",
"173 36 OFFCURVE",
"123 114 OFFCURVE",
"123 213 CURVE SMOOTH",
"123 333 OFFCURVE",
"185 403 OFFCURVE",
"293 403 CURVE SMOOTH",
"335 403 OFFCURVE",
"340 388 OFFCURVE",
"337 339 CURVE SMOOTH",
"320 96 LINE SMOOTH"
);
}
);
width = 634;
}
);
leftKerningGroup = o;
leftMetricsKey = "=o";
rightKerningGroup = n;
rightMetricsKey = "=e.sc";
unicode = 0276;
},
{
glyphname = Rsmall;
layers = (
{
layerId = "230F8D9C-4AAC-4C97-935A-A5529CE4A32C";
paths = (
{
closed = 1;
nodes = (
"426 -7 OFFCURVE",
"445 -5 OFFCURVE",
"462 0 CURVE",
"462 23 LINE",
"426 23 OFFCURVE",
"408 38 OFFCURVE",
"378 86 CURVE SMOOTH",
"291 225 LINE",
"291 227 LINE",
"363 244 OFFCURVE",
"404 288 OFFCURVE",
"404 348 CURVE SMOOTH",
"404 403 OFFCURVE",
"373 444 OFFCURVE",
"258 444 CURVE SMOOTH",
"225 444 OFFCURVE",
"194 440 OFFCURVE",
"124 440 CURVE SMOOTH",
"40 440 LINE",
"40 417 LINE",
"120 415 OFFCURVE",
"123 398 OFFCURVE",
"119 339 CURVE SMOOTH",
"102 101 LINE SMOOTH",
"97 38 OFFCURVE",
"88 26 OFFCURVE",
"36 23 CURVE",
"36 0 LINE",
"231 0 LINE",
"231 23 LINE",
"172 25 OFFCURVE",
"168 43 OFFCURVE",
"172 101 CURVE SMOOTH",
"190 356 LINE SMOOTH",
"193 401 OFFCURVE",
"207 413 OFFCURVE",
"249 413 CURVE SMOOTH",
"296 413 OFFCURVE",
"328 392 OFFCURVE",
"328 344 CURVE SMOOTH",
"328 278 OFFCURVE",
"283 238 OFFCURVE",
"197 243 CURVE",
"197 217 LINE",
"207 216 OFFCURVE",
"214 211 OFFCURVE",
"224 195 CURVE SMOOTH",
"304 64 LINE SMOOTH",
"326 28 OFFCURVE",
"350 -7 OFFCURVE",
"409 -7 CURVE SMOOTH"
);
}
);
width = 462;
}
);
leftKerningGroup = n;
leftMetricsKey = "=n";
rightKerningGroup = x;
rightMetricsKey = "=r.sc";
unicode = 0280;
},
{
glyphname = Rsmallinverted;
layers = (
{
layerId = "230F8D9C-4AAC-4C97-935A-A5529CE4A32C";
paths = (
{
closed = 1;
nodes = (
"367 447 OFFCURVE",
"338 412 OFFCURVE",
"311 376 CURVE SMOOTH",
"213 245 LINE SMOOTH",
"200 229 OFFCURVE",
"193 224 OFFCURVE",
"183 223 CURVE",
"179 197 LINE",
"258 202 OFFCURVE",
"297 169 OFFCURVE",
"297 114 CURVE SMOOTH",
"297 53 OFFCURVE",
"260 27 OFFCURVE",
"207 27 CURVE SMOOTH",
"165 27 OFFCURVE",
"153 39 OFFCURVE",
"156 84 CURVE SMOOTH",
"174 339 LINE SMOOTH",
"178 397 OFFCURVE",
"185 415 OFFCURVE",
"235 417 CURVE",
"235 440 LINE",
"40 440 LINE",
"40 417 LINE",
"92 414 OFFCURVE",
"108 405 OFFCURVE",
"105 362 CURVE SMOOTH",
"88 101 LINE",
"83 42 OFFCURVE",
"78 25 OFFCURVE",
"26 23 CURVE",
"26 0 LINE",
"78 0 LINE SMOOTH",
"148 0 OFFCURVE",
"179 -4 OFFCURVE",
"212 -4 CURVE SMOOTH",
"339 -4 OFFCURVE",
"372 46 OFFCURVE",
"372 110 CURVE SMOOTH",
"372 161 OFFCURVE",
"338 198 OFFCURVE",
"275 213 CURVE",
"275 215 LINE",
"382 354 LINE SMOOTH",
"419 402 OFFCURVE",
"439 417 OFFCURVE",
"476 417 CURVE",
"476 440 LINE",
"462 445 OFFCURVE",
"443 447 OFFCURVE",
"426 447 CURVE SMOOTH"
);
}
);
width = 447;
}
);
leftKerningGroup = n;
leftMetricsKey = "=n";
rightKerningGroup = x;
rightMetricsKey = "=r.sc";
unicode = 0281;
},
{
glyphname = Ysmall;
layers = (
{
layerId = "230F8D9C-4AAC-4C97-935A-A5529CE4A32C";
paths = (
{
closed = 1;
nodes = (
"245 421 LINE",
"290 418 OFFCURVE",
"303 397 OFFCURVE",
"275 356 CURVE SMOOTH",
"199 244 LINE",
"197 244 LINE",
"144 356 LINE SMOOTH",
"123 401 OFFCURVE",
"122 417 OFFCURVE",
"167 421 CURVE",
"167 440 LINE",
"-8 440 LINE",
"-8 421 LINE",
"29 418 OFFCURVE",
"37 407 OFFCURVE",
"62 356 CURVE SMOOTH",
"126 224 LINE SMOOTH",
"137 202 OFFCURVE",
"137 190 OFFCURVE",
"136 167 CURVE SMOOTH",
"132 101 LINE SMOOTH",
"128 36 OFFCURVE",
"116 26 OFFCURVE",
"66 23 CURVE",
"66 0 LINE",
"281 0 LINE",
"281 23 LINE",
"211 25 OFFCURVE",
"198 32 OFFCURVE",
"202 101 CURVE SMOOTH",
"206 167 LINE SMOOTH",
"208 199 OFFCURVE",
"214 209 OFFCURVE",
"225 224 CURVE SMOOTH",
"315 356 LINE SMOOTH",
"341 394 OFFCURVE",
"359 417 OFFCURVE",
"393 421 CURVE",
"393 440 LINE",
"245 440 LINE"
);
}
);
width = 409;
}
);
leftKerningGroup = v;
leftMetricsKey = "=y.sc";
rightKerningGroup = v;
rightMetricsKey = "=y.sc";
unicode = 028F;
},
{
glyphname = a;
layers = (
{
anchors = (
{
name = bottom;
position = "{186, 0}";
},
{
name = ogonek;
position = "{376, 0}";
},
{
name = top;
position = "{304, 440}";
}
);
layerId = "230F8D9C-4AAC-4C97-935A-A5529CE4A32C";
paths = (
{
closed = 1;
nodes = (
"203 -15 OFFCURVE",
"282 70 OFFCURVE",
"348 203 CURVE",
"350 203 LINE",
"340 134 OFFCURVE",
"337 102 OFFCURVE",
"337 60 CURVE SMOOTH",
"337 28 OFFCURVE",
"343 2 OFFCURVE",
"356 -15 CURVE",
"400 6 OFFCURVE",
"458 49 OFFCURVE",
"497 92 CURVE",
"480 108 LINE",
"455 83 OFFCURVE",
"432 66 OFFCURVE",
"419 66 CURVE SMOOTH",
"407 66 OFFCURVE",
"403 83 OFFCURVE",
"403 98 CURVE SMOOTH",
"403 134 OFFCURVE",
"409 258 OFFCURVE",
"431 455 CURVE",
"372 428 LINE",
"355 443 OFFCURVE",
"336 455 OFFCURVE",
"307 455 CURVE SMOOTH",
"183 455 OFFCURVE",
"40 249 OFFCURVE",
"40 106 CURVE SMOOTH",
"40 41 OFFCURVE",
"66 -15 OFFCURVE",
"129 -15 CURVE SMOOTH"
);
},
{
closed = 1;
nodes = (
"123 50 OFFCURVE",
"110 82 OFFCURVE",
"110 134 CURVE SMOOTH",
"110 250 OFFCURVE",
"199 425 OFFCURVE",
"300 425 CURVE SMOOTH",
"347 425 OFFCURVE",
"356 382 OFFCURVE",
"356 350 CURVE SMOOTH",
"356 232 OFFCURVE",
"232 50 OFFCURVE",
"159 50 CURVE SMOOTH"
);
}
);
width = 512;
}
);
leftKerningGroup = o;
rightKerningGroup = n;
unicode = 0061;
},
{
glyphname = "alphaturned-latin";
layers = (
{
anchors = (
{
name = bottom;
position = "{208, 0}";
},
{
name = ogonek;
position = "{136, 440}";
},
{
name = top;
position = "{326, 440}";
}
);
layerId = "230F8D9C-4AAC-4C97-935A-A5529CE4A32C";
paths = (
{
closed = 1;
nodes = (
"309 455 OFFCURVE",
"230 370 OFFCURVE",
"164 237 CURVE",
"162 237 LINE",
"172 306 OFFCURVE",
"175 338 OFFCURVE",
"175 380 CURVE SMOOTH",
"175 412 OFFCURVE",
"169 438 OFFCURVE",
"156 455 CURVE",
"112 434 OFFCURVE",
"54 391 OFFCURVE",
"15 348 CURVE",
"32 332 LINE",
"57 357 OFFCURVE",
"80 374 OFFCURVE",
"93 374 CURVE SMOOTH",
"105 374 OFFCURVE",
"109 357 OFFCURVE",
"109 342 CURVE SMOOTH",
"109 306 OFFCURVE",
"103 182 OFFCURVE",
"81 -15 CURVE",
"140 12 LINE",
"157 -3 OFFCURVE",
"176 -15 OFFCURVE",
"205 -15 CURVE SMOOTH",
"329 -15 OFFCURVE",
"472 191 OFFCURVE",
"472 334 CURVE SMOOTH",
"472 399 OFFCURVE",
"446 455 OFFCURVE",
"383 455 CURVE SMOOTH"
);
},
{
closed = 1;
nodes = (
"389 390 OFFCURVE",
"402 358 OFFCURVE",
"402 306 CURVE SMOOTH",
"402 190 OFFCURVE",
"313 15 OFFCURVE",
"212 15 CURVE SMOOTH",
"165 15 OFFCURVE",
"156 58 OFFCURVE",
"156 90 CURVE SMOOTH",
"156 208 OFFCURVE",
"280 390 OFFCURVE",
"353 390 CURVE SMOOTH"
);
}
);
width = 512;
}
);
leftKerningGroup = n;
rightKerningGroup = o;
unicode = 0252;
},
{
glyphname = aogonek;
layers = (
{
anchors = (
{
name = bottom;
position = "{216, 0}";
},
{
name = ogonek;
position = "{376, 0}";
},
{
name = top;
position = "{314, 440}";
}
);
layerId = "230F8D9C-4AAC-4C97-935A-A5529CE4A32C";
paths = (
{
closed = 1;
nodes = (
"480 108 LINE",
"455 83 OFFCURVE",
"432 66 OFFCURVE",
"419 66 CURVE SMOOTH",
"407 66 OFFCURVE",
"403 83 OFFCURVE",
"403 98 CURVE SMOOTH",
"403 134 OFFCURVE",
"409 258 OFFCURVE",
"431 455 CURVE",
"372 428 LINE",
"355 443 OFFCURVE",
"336 455 OFFCURVE",
"307 455 CURVE SMOOTH",
"183 455 OFFCURVE",
"40 249 OFFCURVE",
"40 106 CURVE SMOOTH",
"40 41 OFFCURVE",
"68 -15 OFFCURVE",
"129 -15 CURVE SMOOTH",
"203 -15 OFFCURVE",
"282 70 OFFCURVE",
"348 203 CURVE",
"350 203 LINE",
"340 134 OFFCURVE",
"337 102 OFFCURVE",
"337 62 CURVE SMOOTH",
"337 37 OFFCURVE",
"344 16 OFFCURVE",
"367 0 CURVE",
"367 -2 LINE",
"325 -32 OFFCURVE",
"259 -104 OFFCURVE",
"259 -171 CURVE SMOOTH",
"259 -214 OFFCURVE",
"287 -235 OFFCURVE",
"321 -235 CURVE SMOOTH",
"354 -235 OFFCURVE",
"393 -215 OFFCURVE",
"429 -163 CURVE",
"412 -147 LINE",
"391 -169 OFFCURVE",
"372 -185 OFFCURVE",
"351 -185 CURVE SMOOTH",
"335 -185 OFFCURVE",
"319 -175 OFFCURVE",
"319 -145 CURVE SMOOTH",
"319 -67 OFFCURVE",
"427 18 OFFCURVE",
"497 92 CURVE"
);
},
{
closed = 1;
nodes = (
"125 50 OFFCURVE",
"105 82 OFFCURVE",
"105 134 CURVE SMOOTH",
"105 250 OFFCURVE",
"199 425 OFFCURVE",
"300 425 CURVE SMOOTH",
"347 425 OFFCURVE",
"356 382 OFFCURVE",
"356 350 CURVE SMOOTH",
"356 232 OFFCURVE",
"232 50 OFFCURVE",
"159 50 CURVE SMOOTH"
);
}
);
width = 512;
}
);
leftKerningGroup = o;
leftMetricsKey = "=a";
rightKerningGroup = n;
rightMetricsKey = "=a";
unicode = 0105;
},
{
glyphname = aturned;
layers = (
{
anchors = (
{
name = bottom;
position = "{208, 0}";
},
{
name = ogonek;
position = "{136, 440}";
},
{
name = top;
position = "{326, 440}";
}
);
layerId = "230F8D9C-4AAC-4C97-935A-A5529CE4A32C";
paths = (
{
closed = 1;
nodes = (
"309 455 OFFCURVE",
"230 370 OFFCURVE",
"164 237 CURVE",
"162 237 LINE",
"172 306 OFFCURVE",
"175 338 OFFCURVE",
"175 380 CURVE SMOOTH",
"175 412 OFFCURVE",
"169 438 OFFCURVE",
"156 455 CURVE",
"112 434 OFFCURVE",
"54 391 OFFCURVE",
"15 348 CURVE",
"32 332 LINE",
"57 357 OFFCURVE",
"80 374 OFFCURVE",
"93 374 CURVE SMOOTH",
"105 374 OFFCURVE",
"109 357 OFFCURVE",
"109 342 CURVE SMOOTH",
"109 306 OFFCURVE",
"103 182 OFFCURVE",
"81 -15 CURVE",
"140 12 LINE",
"157 -3 OFFCURVE",
"176 -15 OFFCURVE",
"205 -15 CURVE SMOOTH",
"329 -15 OFFCURVE",
"472 191 OFFCURVE",
"472 334 CURVE SMOOTH",
"472 399 OFFCURVE",
"446 455 OFFCURVE",
"383 455 CURVE SMOOTH"
);
},
{
closed = 1;
nodes = (
"389 390 OFFCURVE",
"402 358 OFFCURVE",
"402 306 CURVE SMOOTH",
"402 190 OFFCURVE",
"313 15 OFFCURVE",
"212 15 CURVE SMOOTH",
"165 15 OFFCURVE",
"156 58 OFFCURVE",
"156 90 CURVE SMOOTH",
"156 208 OFFCURVE",
"280 390 OFFCURVE",
"353 390 CURVE SMOOTH"
);
}
);
width = 512;
}
);
leftKerningGroup = n;
rightKerningGroup = o;
unicode = 0250;
},
{
glyphname = ae;
layers = (
{
anchors = (
{
name = bottom;
position = "{323, 0}";
},
{
name = top;
position = "{393, 440}";
}
);
layerId = "230F8D9C-4AAC-4C97-935A-A5529CE4A32C";
paths = (
{
closed = 1;
nodes = (
"202 -15 OFFCURVE",
"280 70 OFFCURVE",
"343 203 CURVE",
"345 203 LINE",
"404 377 LINE",
"422 455 LINE",
"363 428 LINE",
"346 443 OFFCURVE",
"327 455 OFFCURVE",
"298 455 CURVE SMOOTH",
"175 455 OFFCURVE",
"40 253 OFFCURVE",
"40 108 CURVE SMOOTH",
"40 44 OFFCURVE",
"66 -15 OFFCURVE",
"128 -15 CURVE SMOOTH"
);
},
{
closed = 1;
nodes = (
"122 50 OFFCURVE",
"110 87 OFFCURVE",
"110 133 CURVE SMOOTH",
"110 255 OFFCURVE",
"192 425 OFFCURVE",
"290 425 CURVE SMOOTH",
"340 425 OFFCURVE",
"349 381 OFFCURVE",
"349 347 CURVE SMOOTH",
"349 230 OFFCURVE",
"230 50 OFFCURVE",
"156 50 CURVE SMOOTH"
);
},
{
closed = 1;
nodes = (
"481 -15 OFFCURVE",
"552 55 OFFCURVE",
"596 134 CURVE",
"575 142 LINE",
"535 83 OFFCURVE",
"493 50 OFFCURVE",
"440 50 CURVE",
"395 50 OFFCURVE",
"365 91 OFFCURVE",
"365 163 CURVE SMOOTH",
"365 285 OFFCURVE",
"454 415 OFFCURVE",
"516 415 CURVE",
"533 415 OFFCURVE",
"542 404 OFFCURVE",
"542 374 CURVE SMOOTH",
"542 316 OFFCURVE",
"492 241 OFFCURVE",
"361 161 CURVE",
"361 131 LINE",
"517 226 OFFCURVE",
"615 302 OFFCURVE",
"615 389 CURVE SMOOTH",
"615 426 OFFCURVE",
"603 455 OFFCURVE",
"551 455 CURVE",
"501 455 OFFCURVE",
"449 425 OFFCURVE",
"406 377 CURVE",
"404 377 LINE",
"350 316 OFFCURVE",
"310 224 OFFCURVE",
"310 129 CURVE SMOOTH",
"310 26 OFFCURVE",
"355 -15 OFFCURVE",
"410 -15 CURVE"
);
}
);
width = 637;
}
);
leftKerningGroup = o;
leftMetricsKey = "=a";
rightKerningGroup = o;
rightMetricsKey = "=e";
unicode = 00E6;
},
{
glyphname = b;
layers = (
{
anchors = (
{
name = bottom;
position = "{206, 0}";
},
{
name = ogonek;
position = "{206, 0}";
},
{
name = top;
position = "{326, 750}";
}
);
layerId = "230F8D9C-4AAC-4C97-935A-A5529CE4A32C";
paths = (
{
closed = 1;
nodes = (
"127 15 LINE",
"145 -5 OFFCURVE",
"174 -15 OFFCURVE",
"202 -15 CURVE SMOOTH",
"324 -15 OFFCURVE",
"449 175 OFFCURVE",
"449 322 CURVE SMOOTH",
"449 405 OFFCURVE",
"409 455 OFFCURVE",
"348 455 CURVE SMOOTH",
"276 455 OFFCURVE",
"200 385 OFFCURVE",
"149 290 CURVE",
"147 290 LINE",
"162 445 OFFCURVE",
"178 603 OFFCURVE",
"178 711 CURVE SMOOTH",
"178 744 OFFCURVE",
"174 773 OFFCURVE",
"166 790 CURVE",
"116 766 OFFCURVE",
"48 689 OFFCURVE",
"13 644 CURVE",
"30 628 LINE",
"64 666 OFFCURVE",
"91 696 OFFCURVE",
"104 696 CURVE SMOOTH",
"110 696 OFFCURVE",
"113 691 OFFCURVE",
"113 676 CURVE SMOOTH",
"113 529 OFFCURVE",
"79 155 OFFCURVE",
"62 -15 CURVE"
);
},
{
closed = 1;
nodes = (
"153 15 OFFCURVE",
"136 69 OFFCURVE",
"136 124 CURVE SMOOTH",
"136 259 OFFCURVE",
"241 395 OFFCURVE",
"319 395 CURVE SMOOTH",
"362 395 OFFCURVE",
"379 352 OFFCURVE",
"379 295 CURVE SMOOTH",
"379 174 OFFCURVE",
"303 15 OFFCURVE",
"208 15 CURVE SMOOTH"
);
}
);
width = 488;
}
);
leftKerningGroup = l;
rightKerningGroup = o;
rightMetricsKey = "=o";
unicode = 0062;
},
{
glyphname = bhook;
layers = (
{
anchors = (
{
name = bottom;
position = "{206, 0}";
},
{
name = ogonek;
position = "{206, 0}";
},
{
name = top;
position = "{326, 750}";
}
);
layerId = "230F8D9C-4AAC-4C97-935A-A5529CE4A32C";
paths = (
{
closed = 1;
nodes = (
"127 15 LINE",
"145 -5 OFFCURVE",
"174 -15 OFFCURVE",
"202 -15 CURVE SMOOTH",
"324 -15 OFFCURVE",
"449 175 OFFCURVE",
"449 322 CURVE SMOOTH",
"449 405 OFFCURVE",
"409 455 OFFCURVE",
"348 455 CURVE SMOOTH",
"276 455 OFFCURVE",
"200 385 OFFCURVE",
"149 290 CURVE",
"62 -15 LINE"
);
},
{
closed = 1;
nodes = (
"153 15 OFFCURVE",
"136 69 OFFCURVE",
"136 124 CURVE SMOOTH",
"136 259 OFFCURVE",
"241 395 OFFCURVE",
"319 395 CURVE SMOOTH",
"362 395 OFFCURVE",
"379 352 OFFCURVE",
"379 295 CURVE SMOOTH",
"379 174 OFFCURVE",
"303 15 OFFCURVE",
"208 15 CURVE SMOOTH"
);
},
{
closed = 1;
nodes = (
"149 290 LINE",
"147 290 LINE",
"178 658 OFFCURVE",
"193 718 OFFCURVE",
"213 718 CURVE SMOOTH",
"236 718 OFFCURVE",
"248 658 OFFCURVE",
"241 593 CURVE",
"263 593 LINE",
"283 658 OFFCURVE",
"291 751 OFFCURVE",
"245 790 CURVE",
"96 721 OFFCURVE",
"99 339 OFFCURVE",
"62 -15 CURVE"
);
}
);
width = 488;
}
);
leftKerningGroup = l;
leftMetricsKey = "=hhook";
rightKerningGroup = o;
rightMetricsKey = "=b";
unicode = 0253;
},
{
glyphname = bidentalpercussive;
layers = (
{
layerId = "230F8D9C-4AAC-4C97-935A-A5529CE4A32C";
paths = (
{
closed = 1;
nodes = (
"29 284 LINE",
"52 284 LINE",
"60 334 OFFCURVE",
"79 384 OFFCURVE",
"139 384 CURVE SMOOTH",
"169 384 LINE",
"210 384 LINE",
"238 384 LINE SMOOTH",
"299 384 OFFCURVE",
"313 334 OFFCURVE",
"312 284 CURVE",
"335 284 LINE",
"346 440 LINE",
"40 440 LINE"
);
},
{
closed = 1;
nodes = (
"10 0 LINE",
"33 0 LINE",
"40 50 OFFCURVE",
"60 100 OFFCURVE",
"120 100 CURVE SMOOTH",
"150 100 LINE",
"191 100 LINE",
"219 100 LINE SMOOTH",
"280 100 OFFCURVE",
"293 50 OFFCURVE",
"293 0 CURVE",
"316 0 LINE",
"327 156 LINE",
"21 156 LINE"
);
}
);
width = 344;
}
);
leftKerningGroup = n;
leftMetricsKey = "=n";
rightKerningGroup = n;
rightMetricsKey = "=n";
unicode = 02AD;
},
{
glyphname = bilabialclick;
layers = (
{
components = (
{
name = O;
}
);
layerId = "230F8D9C-4AAC-4C97-935A-A5529CE4A32C";
paths = (
{
closed = 1;
nodes = (
"394 295 OFFCURVE",
"417 317 OFFCURVE",
"417 345 CURVE SMOOTH",
"417 370 OFFCURVE",
"398 389 OFFCURVE",
"373 389 CURVE SMOOTH",
"345 389 OFFCURVE",
"323 367 OFFCURVE",
"323 339 CURVE SMOOTH",
"323 315 OFFCURVE",
"341 295 OFFCURVE",
"367 295 CURVE SMOOTH"
);
}
);
width = 744;
}
);
leftKerningGroup = O;
leftMetricsKey = "=O";
rightKerningGroup = O;
rightMetricsKey = "=O";
unicode = 0298;
},
{
glyphname = bilabialpercussive;
layers = (
{
anchors = (
{
name = bottom;
position = "{299, -265}";
},
{
name = top;
position = "{328, 68}";
}
);
layerId = "230F8D9C-4AAC-4C97-935A-A5529CE4A32C";
paths = (
{
closed = 1;
nodes = (
"194 363 OFFCURVE",
"258 415 OFFCURVE",
"297 495 CURVE",
"297 495 LINE",
"301 424 OFFCURVE",
"342 350 OFFCURVE",
"378 350 CURVE SMOOTH",
"428 350 OFFCURVE",
"533 497 OFFCURVE",
"533 616 CURVE SMOOTH",
"533 651 OFFCURVE",
"523 682 OFFCURVE",
"498 682 CURVE SMOOTH",
"470 682 OFFCURVE",
"422 639 OFFCURVE",
"393 607 CURVE",
"404 597 LINE",
"422 614 OFFCURVE",
"444 627 OFFCURVE",
"459 627 CURVE SMOOTH",
"476 627 OFFCURVE",
"479 606 OFFCURVE",
"479 587 CURVE SMOOTH",
"479 500 OFFCURVE",
"439 413 OFFCURVE",
"400 413 CURVE SMOOTH",
"366 413 OFFCURVE",
"350 482 OFFCURVE",
"350 558 CURVE SMOOTH",
"350 594 OFFCURVE",
"354 633 OFFCURVE",
"360 673 CURVE",
"341 674 OFFCURVE",
"311 667 OFFCURVE",
"297 662 CURVE",
"298 582 OFFCURVE",
"285 530 OFFCURVE",
"261 485 CURVE SMOOTH",
"234 437 OFFCURVE",
"197 413 OFFCURVE",
"182 413 CURVE SMOOTH",
"175 413 OFFCURVE",
"169 420 OFFCURVE",
"169 440 CURVE SMOOTH",
"169 479 OFFCURVE",
"190 575 OFFCURVE",
"190 621 CURVE SMOOTH",
"190 639 OFFCURVE",
"186 661 OFFCURVE",
"180 673 CURVE",
"146 656 OFFCURVE",
"79 605 OFFCURVE",
"55 576 CURVE",
"66 566 LINE",
"90 592 OFFCURVE",
"114 598 OFFCURVE",
"122 598 CURVE SMOOTH",
"129 598 OFFCURVE",
"131 593 OFFCURVE",
"131 583 CURVE SMOOTH",
"131 555 OFFCURVE",
"111 453 OFFCURVE",
"111 414 CURVE SMOOTH",
"111 382 OFFCURVE",
"123 362 OFFCURVE",
"142 350 CURVE"
);
},
{
closed = 1;
nodes = (
"164 1 OFFCURVE",
"228 53 OFFCURVE",
"267 133 CURVE",
"267 133 LINE",
"271 62 OFFCURVE",
"312 -12 OFFCURVE",
"348 -12 CURVE SMOOTH",
"398 -12 OFFCURVE",
"503 135 OFFCURVE",
"503 254 CURVE SMOOTH",
"503 289 OFFCURVE",
"493 320 OFFCURVE",
"468 320 CURVE SMOOTH",
"440 320 OFFCURVE",
"392 277 OFFCURVE",
"363 245 CURVE",
"374 235 LINE",
"392 252 OFFCURVE",
"414 265 OFFCURVE",
"429 265 CURVE SMOOTH",
"446 265 OFFCURVE",
"449 244 OFFCURVE",
"449 225 CURVE SMOOTH",
"449 138 OFFCURVE",
"409 51 OFFCURVE",
"370 51 CURVE SMOOTH",
"336 51 OFFCURVE",
"320 120 OFFCURVE",
"320 196 CURVE SMOOTH",
"320 232 OFFCURVE",
"324 271 OFFCURVE",
"330 311 CURVE",
"311 312 OFFCURVE",
"281 305 OFFCURVE",
"267 300 CURVE",
"268 220 OFFCURVE",
"255 168 OFFCURVE",
"231 123 CURVE SMOOTH",
"204 75 OFFCURVE",
"167 51 OFFCURVE",
"152 51 CURVE SMOOTH",
"145 51 OFFCURVE",
"139 58 OFFCURVE",
"139 78 CURVE SMOOTH",
"139 117 OFFCURVE",
"160 213 OFFCURVE",
"160 259 CURVE SMOOTH",
"160 277 OFFCURVE",
"156 299 OFFCURVE",
"150 311 CURVE",
"116 294 OFFCURVE",
"49 243 OFFCURVE",
"25 214 CURVE",
"36 204 LINE",
"60 230 OFFCURVE",
"84 236 OFFCURVE",
"92 236 CURVE SMOOTH",
"99 236 OFFCURVE",
"101 231 OFFCURVE",
"101 221 CURVE SMOOTH",
"101 193 OFFCURVE",
"81 91 OFFCURVE",
"81 52 CURVE SMOOTH",
"81 20 OFFCURVE",
"93 0 OFFCURVE",
"112 -12 CURVE"
);
}
);
width = 551;
}
);
leftKerningGroup = H;
leftMetricsKey = "=w";
rightKerningGroup = H;
rightMetricsKey = "=w";
unicode = 02AC;
},
{
glyphname = c;
layers = (
{
anchors = (
{
name = bottom;
position = "{140, 0}";
},
{
name = ogonek;
position = "{155, 0}";
},
{
name = top;
position = "{250, 440}";
}
);
layerId = "230F8D9C-4AAC-4C97-935A-A5529CE4A32C";
paths = (
{
closed = 1;
nodes = (
"218 -15 OFFCURVE",
"297 40 OFFCURVE",
"361 152 CURVE",
"340 160 LINE",
"284 81 OFFCURVE",
"226 50 OFFCURVE",
"183 50 CURVE SMOOTH",
"135 50 OFFCURVE",
"109 90 OFFCURVE",
"109 161 CURVE SMOOTH",
"109 282 OFFCURVE",
"184 420 OFFCURVE",
"270 420 CURVE SMOOTH",
"311 420 OFFCURVE",
"338 389 OFFCURVE",
"294 297 CURVE",
"315 289 LINE",
"382 405 LINE",
"359 435 OFFCURVE",
"331 455 OFFCURVE",
"290 455 CURVE SMOOTH",
"174 455 OFFCURVE",
"39 297 OFFCURVE",
"39 130 CURVE SMOOTH",
"39 25 OFFCURVE",
"92 -15 OFFCURVE",
"150 -15 CURVE SMOOTH"
);
}
);
width = 390;
}
);
leftKerningGroup = o;
leftMetricsKey = "=o";
rightKerningGroup = o;
unicode = 0063;
},
{
glyphname = ccurl;
layers = (
{
anchors = (
{
name = bottom;
position = "{140, 0}";
},
{
name = ogonek;
position = "{155, 0}";
},
{
name = top;
position = "{250, 440}";
}
);
layerId = "230F8D9C-4AAC-4C97-935A-A5529CE4A32C";
paths = (
{
closed = 1;
nodes = (
"218 -15 OFFCURVE",
"311 41 OFFCURVE",
"311 139 CURVE",
"311 178 OFFCURVE",
"289 196 OFFCURVE",
"258 196 CURVE",
"166 196 OFFCURVE",
"118 67 OFFCURVE",
"108 -105 CURVE",
"131 -105 LINE",
"141 44 OFFCURVE",
"196 161 OFFCURVE",
"240 161 CURVE",
"255 161 OFFCURVE",
"265 153 OFFCURVE",
"265 130 CURVE",
"265 93 OFFCURVE",
"227 40 OFFCURVE",
"179 40 CURVE SMOOTH",
"137 40 OFFCURVE",
"109 80 OFFCURVE",
"109 158 CURVE SMOOTH",
"109 288 OFFCURVE",
"187 420 OFFCURVE",
"270 420 CURVE SMOOTH",
"311 420 OFFCURVE",
"338 389 OFFCURVE",
"294 297 CURVE",
"315 289 LINE",
"382 405 LINE",
"359 435 OFFCURVE",
"331 455 OFFCURVE",
"290 455 CURVE SMOOTH",
"174 455 OFFCURVE",
"39 297 OFFCURVE",
"39 130 CURVE SMOOTH",
"39 25 OFFCURVE",
"92 -15 OFFCURVE",
"150 -15 CURVE SMOOTH"
);
}
);
width = 390;
}
);
leftKerningGroup = o;
leftMetricsKey = "=c";
rightKerningGroup = o;
rightMetricsKey = "=c";
unicode = 0255;
},
{
glyphname = chook;
layers = (
{
anchors = (
{
name = bottom;
position = "{140, 0}";
},
{
name = ogonek;
position = "{155, 0}";
},
{
name = top;
position = "{250, 440}";
}
);
layerId = "230F8D9C-4AAC-4C97-935A-A5529CE4A32C";
paths = (
{
closed = 1;
nodes = (
"396 566 OFFCURVE",
"362 501 OFFCURVE",
"339 413 CURVE",
"362 427 LINE",
"342 448 OFFCURVE",
"320 455 OFFCURVE",
"290 455 CURVE SMOOTH",
"174 455 OFFCURVE",
"39 297 OFFCURVE",
"39 130 CURVE SMOOTH",
"39 25 OFFCURVE",
"92 -15 OFFCURVE",
"150 -15 CURVE SMOOTH",
"218 -15 OFFCURVE",
"297 40 OFFCURVE",
"361 152 CURVE",
"340 160 LINE",
"284 81 OFFCURVE",
"226 50 OFFCURVE",
"183 50 CURVE SMOOTH",
"135 50 OFFCURVE",
"109 90 OFFCURVE",
"109 161 CURVE SMOOTH",
"109 282 OFFCURVE",
"184 420 OFFCURVE",
"270 420 CURVE SMOOTH",
"311 420 OFFCURVE",
"338 389 OFFCURVE",
"294 297 CURVE",
"315 289 LINE",
"382 405 LINE",
"391 490 OFFCURVE",
"402 518 OFFCURVE",
"424 518 CURVE SMOOTH",
"439 518 OFFCURVE",
"448 495 OFFCURVE",
"444 440 CURVE",
"466 440 LINE",
"483 495 OFFCURVE",
"494 551 OFFCURVE",
"448 590 CURVE"
);
}
);
width = 390;
}
);
leftKerningGroup = o;
leftMetricsKey = "=c";
unicode = 0188;
},
{
glyphname = d;
layers = (
{
anchors = (
{
name = bottom;
position = "{184, 0}";
},
{
name = center;
position = "{254, 220}";
},
{
name = ogonek;
position = "{365, 0}";
},
{
name = top;
position = "{255, 750}";
},
{
name = topright;
position = "{511, 560}";
}
);
layerId = "230F8D9C-4AAC-4C97-935A-A5529CE4A32C";
paths = (
{
closed = 1;
nodes = (
"211 -15 OFFCURVE",
"286 55 OFFCURVE",
"337 150 CURVE",
"339 150 LINE",
"336 120 OFFCURVE",
"334 90 OFFCURVE",
"334 64 CURVE SMOOTH",
"334 30 OFFCURVE",
"340 3 OFFCURVE",
"354 -15 CURVE",
"398 6 OFFCURVE",
"455 49 OFFCURVE",
"493 92 CURVE",
"476 108 LINE",
"451 83 OFFCURVE",
"429 66 OFFCURVE",
"416 66 CURVE SMOOTH",
"403 66 OFFCURVE",
"399 84 OFFCURVE",
"399 99 CURVE SMOOTH",
"399 259 OFFCURVE",
"447 554 OFFCURVE",
"447 711 CURVE SMOOTH",
"447 744 OFFCURVE",
"443 773 OFFCURVE",
"435 790 CURVE",
"385 766 OFFCURVE",
"317 689 OFFCURVE",
"282 644 CURVE",
"299 628 LINE",
"333 666 OFFCURVE",
"360 696 OFFCURVE",
"373 696 CURVE SMOOTH",
"379 696 OFFCURVE",
"382 691 OFFCURVE",
"382 676 CURVE SMOOTH",
"382 613 OFFCURVE",
"375 515 OFFCURVE",
"364 420 CURVE",
"349 436 OFFCURVE",
"325 455 OFFCURVE",
"286 455 CURVE SMOOTH",
"164 455 OFFCURVE",
"39 265 OFFCURVE",
"39 118 CURVE SMOOTH",
"39 35 OFFCURVE",
"78 -15 OFFCURVE",
"139 -15 CURVE SMOOTH"
);
},
{
closed = 1;
nodes = (
"125 45 OFFCURVE",
"109 88 OFFCURVE",
"109 145 CURVE SMOOTH",
"109 268 OFFCURVE",
"184 425 OFFCURVE",
"279 425 CURVE SMOOTH",
"334 425 OFFCURVE",
"352 371 OFFCURVE",
"352 315 CURVE SMOOTH",
"352 182 OFFCURVE",
"247 45 OFFCURVE",
"169 45 CURVE SMOOTH"
);
}
);
width = 507;
}
);
leftKerningGroup = o;
leftMetricsKey = "=o";
rightKerningGroup = l;
rightMetricsKey = "=l";
unicode = 0064;
},
{
glyphname = eth;
layers = (
{
anchors = (
{
name = bottom;
position = "{229, 0}";
},
{
name = center;
position = "{229, 220}";
},
{
name = ogonek;
position = "{423, 10}";
},
{
name = top;
position = "{299, 440}";
},
{
name = topright;
position = "{451, 440}";
}
);
layerId = "230F8D9C-4AAC-4C97-935A-A5529CE4A32C";
paths = (
{
closed = 1;
nodes = (
"313 790 LINE",
"141 629 LINE",
"160 610 LINE",
"332 771 LINE"
);
},
{
closed = 1;
nodes = (
"119 765 LINE",
"271 693 OFFCURVE",
"338 530 OFFCURVE",
"349 414 CURVE",
"347 414 LINE",
"337 420 OFFCURVE",
"320 425 OFFCURVE",
"295 425 CURVE SMOOTH",
"161 425 OFFCURVE",
"40 286 OFFCURVE",
"40 136 CURVE SMOOTH",
"40 36 OFFCURVE",
"100 -15 OFFCURVE",
"174 -15 CURVE SMOOTH",
"267 -15 OFFCURVE",
"418 77 OFFCURVE",
"418 317 CURVE SMOOTH",
"418 475 OFFCURVE",
"355 702 OFFCURVE",
"129 790 CURVE"
);
},
{
closed = 1;
nodes = (
"330 385 OFFCURVE",
"365 328 OFFCURVE",
"365 251 CURVE SMOOTH",
"365 133 OFFCURVE",
"283 35 OFFCURVE",
"203 35 CURVE SMOOTH",
"143 35 OFFCURVE",
"110 91 OFFCURVE",
"110 171 CURVE SMOOTH",
"110 288 OFFCURVE",
"181 385 OFFCURVE",
"266 385 CURVE SMOOTH"
);
}
);
width = 458;
}
);
leftKerningGroup = o;
leftMetricsKey = "=o";
rightKerningGroup = O;
rightMetricsKey = "=o";
unicode = 00F0;
},
{
glyphname = dezh;
layers = (
{
layerId = "230F8D9C-4AAC-4C97-935A-A5529CE4A32C";
paths = (
{
closed = 1;
nodes = (
"712 327 OFFCURVE",
"778 367 OFFCURVE",
"796 455 CURVE",
"773 455 LINE",
"766 440 OFFCURVE",
"751 426 OFFCURVE",
"713 426 CURVE SMOOTH",
"611 426 OFFCURVE",
"479 468 OFFCURVE",
"429 445 CURVE",
"439 557 OFFCURVE",
"447 651 OFFCURVE",
"447 711 CURVE SMOOTH",
"447 744 OFFCURVE",
"443 773 OFFCURVE",
"435 790 CURVE",
"385 766 OFFCURVE",
"317 689 OFFCURVE",
"282 644 CURVE",
"299 628 LINE",
"333 666 OFFCURVE",
"360 696 OFFCURVE",
"373 696 CURVE SMOOTH",
"379 696 OFFCURVE",
"382 691 OFFCURVE",
"382 676 CURVE SMOOTH",
"382 613 OFFCURVE",
"375 515 OFFCURVE",
"364 420 CURVE",
"349 436 OFFCURVE",
"325 455 OFFCURVE",
"286 455 CURVE SMOOTH",
"164 455 OFFCURVE",
"39 265 OFFCURVE",
"39 118 CURVE SMOOTH",
"39 35 OFFCURVE",
"78 -15 OFFCURVE",
"139 -15 CURVE SMOOTH",
"211 -15 OFFCURVE",
"286 55 OFFCURVE",
"337 150 CURVE",
"339 150 LINE",
"336 120 OFFCURVE",
"326 11 OFFCURVE",
"326 -15 CURVE",
"347 -7 OFFCURVE",
"368 -2 OFFCURVE",
"391 0 CURVE",
"391 78 OFFCURVE",
"405 211 OFFCURVE",
"418 346 CURVE SMOOTH",
"422 383 OFFCURVE",
"435 395 OFFCURVE",
"459 395 CURVE SMOOTH",
"547 395 OFFCURVE",
"603 359 OFFCURVE",
"714 375 CURVE",
"714 373 LINE",
"652 294 OFFCURVE",
"576 255 OFFCURVE",
"518 141 CURVE",
"539 133 LINE",
"553 143 OFFCURVE",
"566 147 OFFCURVE",
"577 147 CURVE SMOOTH",
"613 147 OFFCURVE",
"669 126 OFFCURVE",
"669 21 CURVE SMOOTH",
"669 -86 OFFCURVE",
"604 -185 OFFCURVE",
"514 -185 CURVE SMOOTH",
"480 -185 OFFCURVE",
"451 -167 OFFCURVE",
"451 -128 CURVE SMOOTH",
"451 -116 OFFCURVE",
"454 -99 OFFCURVE",
"463 -80 CURVE",
"442 -72 LINE",
"386 -170 LINE",
"403 -195 OFFCURVE",
"449 -220 OFFCURVE",
"498 -220 CURVE SMOOTH",
"618 -220 OFFCURVE",
"739 -104 OFFCURVE",
"739 46 CURVE SMOOTH",
"739 176 OFFCURVE",
"662 207 OFFCURVE",
"603 208 CURVE"
);
},
{
closed = 1;
nodes = (
"125 45 OFFCURVE",
"109 88 OFFCURVE",
"109 145 CURVE SMOOTH",
"109 268 OFFCURVE",
"184 425 OFFCURVE",
"279 425 CURVE SMOOTH",
"334 425 OFFCURVE",
"352 371 OFFCURVE",
"352 315 CURVE SMOOTH",
"352 182 OFFCURVE",
"247 45 OFFCURVE",
"169 45 CURVE SMOOTH"
);
}
);
width = 811;
}
);
leftKerningGroup = o;
leftMetricsKey = "=d";
rightKerningGroup = n;
rightMetricsKey = "=ezh";
unicode = 02A4;
},
{
glyphname = dhook;
layers = (
{
anchors = (
{
name = bottom;
position = "{184, 0}";
},
{
name = center;
position = "{254, 220}";
},
{
name = ogonek;
position = "{365, 0}";
},
{
name = top;
position = "{255, 750}";
},
{
name = topright;
position = "{511, 560}";
}
);
layerId = "230F8D9C-4AAC-4C97-935A-A5529CE4A32C";
paths = (
{
closed = 1;
nodes = (
"450 759 OFFCURVE",
"391 648 OFFCURVE",
"364 420 CURVE",
"349 436 OFFCURVE",
"325 455 OFFCURVE",
"286 455 CURVE SMOOTH",
"164 455 OFFCURVE",
"39 265 OFFCURVE",
"39 118 CURVE SMOOTH",
"39 35 OFFCURVE",
"78 -15 OFFCURVE",
"139 -15 CURVE SMOOTH",
"211 -15 OFFCURVE",
"286 55 OFFCURVE",
"337 150 CURVE",
"339 150 LINE",
"336 120 OFFCURVE",
"334 90 OFFCURVE",
"334 64 CURVE SMOOTH",
"334 30 OFFCURVE",
"340 3 OFFCURVE",
"354 -15 CURVE",
"398 6 OFFCURVE",
"455 49 OFFCURVE",
"493 92 CURVE",
"476 108 LINE",
"451 83 OFFCURVE",
"429 66 OFFCURVE",
"416 66 CURVE SMOOTH",
"403 66 OFFCURVE",
"399 84 OFFCURVE",
"399 99 CURVE SMOOTH",
"399 153 OFFCURVE",
"406 282 OFFCURVE",
"419 408 CURVE SMOOTH",
"435 565 OFFCURVE",
"460 718 OFFCURVE",
"491 718 CURVE SMOOTH",
"503 718 OFFCURVE",
"515 657 OFFCURVE",
"507 593 CURVE",
"529 593 LINE",
"549 658 OFFCURVE",
"560 751 OFFCURVE",
"514 790 CURVE"
);
},
{
closed = 1;
nodes = (
"125 45 OFFCURVE",
"109 88 OFFCURVE",
"109 145 CURVE SMOOTH",
"109 268 OFFCURVE",
"184 425 OFFCURVE",
"279 425 CURVE SMOOTH",
"334 425 OFFCURVE",
"352 371 OFFCURVE",
"352 315 CURVE SMOOTH",
"352 182 OFFCURVE",
"247 45 OFFCURVE",
"169 45 CURVE SMOOTH"
);
}
);
width = 506;
}
);
leftKerningGroup = o;
leftMetricsKey = "=d";
rightKerningGroup = l;
unicode = 0257;
},
{
glyphname = dtail;
layers = (
{
anchors = (
{
name = bottom;
position = "{184, 0}";
},
{
name = center;
position = "{254, 220}";
},
{
name = ogonek;
position = "{365, 0}";
},
{
name = top;
position = "{255, 750}";
},
{
name = topright;
position = "{511, 560}";
}
);
layerId = "230F8D9C-4AAC-4C97-935A-A5529CE4A32C";
paths = (
{
closed = 1;
nodes = (
"386 -211 OFFCURVE",
"455 -156 OFFCURVE",
"490 -111 CURVE",
"474 -95 LINE",
"439 -133 OFFCURVE",
"411 -154 OFFCURVE",
"398 -154 CURVE SMOOTH",
"385 -154 OFFCURVE",
"381 -136 OFFCURVE",
"381 -121 CURVE SMOOTH",
"381 40 OFFCURVE",
"447 617 OFFCURVE",
"447 711 CURVE SMOOTH",
"447 744 OFFCURVE",
"443 773 OFFCURVE",
"435 790 CURVE",
"385 766 OFFCURVE",
"317 689 OFFCURVE",
"282 644 CURVE",
"299 628 LINE",
"333 666 OFFCURVE",
"360 696 OFFCURVE",
"373 696 CURVE SMOOTH",
"379 696 OFFCURVE",
"382 691 OFFCURVE",
"382 676 CURVE SMOOTH",
"382 613 OFFCURVE",
"375 515 OFFCURVE",
"364 420 CURVE",
"349 436 OFFCURVE",
"325 455 OFFCURVE",
"286 455 CURVE SMOOTH",
"164 455 OFFCURVE",
"39 265 OFFCURVE",
"39 118 CURVE SMOOTH",
"39 35 OFFCURVE",
"78 -15 OFFCURVE",
"139 -15 CURVE SMOOTH",
"211 -15 OFFCURVE",
"286 55 OFFCURVE",
"337 150 CURVE",
"339 150 LINE",
"323 13 OFFCURVE",
"316 -74 OFFCURVE",
"316 -156 CURVE SMOOTH",
"316 -190 OFFCURVE",
"322 -217 OFFCURVE",
"336 -235 CURVE"
);
},
{
closed = 1;
nodes = (
"125 45 OFFCURVE",
"109 88 OFFCURVE",
"109 145 CURVE SMOOTH",
"109 268 OFFCURVE",
"184 425 OFFCURVE",
"279 425 CURVE SMOOTH",
"334 425 OFFCURVE",
"352 371 OFFCURVE",
"352 315 CURVE SMOOTH",
"352 182 OFFCURVE",
"247 45 OFFCURVE",
"169 45 CURVE SMOOTH"
);
}
);
width = 518;
}
);
leftKerningGroup = o;
leftMetricsKey = "=o";
rightKerningGroup = l;
rightMetricsKey = "=l";
unicode = 0256;
},
{
glyphname = dzaltone;
layers = (
{
anchors = (
{
name = bottom;
position = "{184, 0}";
},
{
name = center;
position = "{254, 220}";
},
{
name = ogonek;
position = "{365, 0}";
},
{
name = top;
position = "{255, 750}";
},
{
name = topright;
position = "{511, 560}";
}
);
layerId = "230F8D9C-4AAC-4C97-935A-A5529CE4A32C";
paths = (
{
closed = 1;
nodes = (
"211 -15 OFFCURVE",
"286 55 OFFCURVE",
"337 150 CURVE",
"339 150 LINE",
"336 120 OFFCURVE",
"326 11 OFFCURVE",
"326 -15 CURVE",
"347 -7 OFFCURVE",
"368 -2 OFFCURVE",
"391 0 CURVE",
"391 78 OFFCURVE",
"405 211 OFFCURVE",
"418 346 CURVE SMOOTH",
"422 383 OFFCURVE",
"435 395 OFFCURVE",
"459 395 CURVE SMOOTH",
"547 395 OFFCURVE",
"603 359 OFFCURVE",
"714 375 CURVE",
"714 373 LINE",
"629 248 OFFCURVE",
"456 120 OFFCURVE",
"436 0 CURVE",
"461 0 LINE",
"465 22 OFFCURVE",
"480 46 OFFCURVE",
"514 46 CURVE SMOOTH",
"557 46 OFFCURVE",
"641 -15 OFFCURVE",
"722 -15 CURVE SMOOTH",
"764 -15 OFFCURVE",
"775 16 OFFCURVE",
"775 53 CURVE SMOOTH",
"775 75 OFFCURVE",
"771 99 OFFCURVE",
"766 120 CURVE",
"743 120 LINE",
"749 85 OFFCURVE",
"739 55 OFFCURVE",
"707 55 CURVE SMOOTH",
"667 55 OFFCURVE",
"605 94 OFFCURVE",
"551 94 CURVE SMOOTH",
"543 94 OFFCURVE",
"528 93 OFFCURVE",
"520 90 CURVE",
"520 92 LINE",
"598 213 OFFCURVE",
"773 340 OFFCURVE",
"796 455 CURVE",
"773 455 LINE",
"766 440 OFFCURVE",
"751 426 OFFCURVE",
"713 426 CURVE SMOOTH",
"611 426 OFFCURVE",
"479 468 OFFCURVE",
"429 445 CURVE",
"439 557 OFFCURVE",
"447 651 OFFCURVE",
"447 711 CURVE SMOOTH",
"447 744 OFFCURVE",
"443 773 OFFCURVE",
"435 790 CURVE",
"385 766 OFFCURVE",
"317 689 OFFCURVE",
"282 644 CURVE",
"299 628 LINE",
"333 666 OFFCURVE",
"360 696 OFFCURVE",
"373 696 CURVE SMOOTH",
"379 696 OFFCURVE",
"382 691 OFFCURVE",
"382 676 CURVE SMOOTH",
"382 613 OFFCURVE",
"375 515 OFFCURVE",
"364 420 CURVE",
"349 436 OFFCURVE",
"325 455 OFFCURVE",
"286 455 CURVE SMOOTH",
"164 455 OFFCURVE",
"39 265 OFFCURVE",
"39 118 CURVE SMOOTH",
"39 35 OFFCURVE",
"78 -15 OFFCURVE",
"139 -15 CURVE SMOOTH"
);
},
{
closed = 1;
nodes = (
"125 45 OFFCURVE",
"109 88 OFFCURVE",
"109 145 CURVE SMOOTH",
"109 268 OFFCURVE",
"184 425 OFFCURVE",
"279 425 CURVE SMOOTH",
"334 425 OFFCURVE",
"352 371 OFFCURVE",
"352 315 CURVE SMOOTH",
"352 182 OFFCURVE",
"247 45 OFFCURVE",
"169 45 CURVE SMOOTH"
);
}
);
width = 809;
}
);
leftKerningGroup = o;
leftMetricsKey = "=d";
rightKerningGroup = n;
rightMetricsKey = "=z";
unicode = 02A3;
},
{
glyphname = dzcurl;
layers = (
{
layerId = "230F8D9C-4AAC-4C97-935A-A5529CE4A32C";
paths = (
{
closed = 1;
nodes = (
"663 196 OFFCURVE",
"615 67 OFFCURVE",
"605 -105 CURVE",
"628 -105 LINE",
"638 44 OFFCURVE",
"693 161 OFFCURVE",
"737 161 CURVE SMOOTH",
"752 161 OFFCURVE",
"762 153 OFFCURVE",
"762 130 CURVE SMOOTH",
"762 93 OFFCURVE",
"724 40 OFFCURVE",
"676 40 CURVE SMOOTH",
"631 40 OFFCURVE",
"605 94 OFFCURVE",
"551 94 CURVE SMOOTH",
"543 94 OFFCURVE",
"528 93 OFFCURVE",
"520 90 CURVE",
"520 92 LINE",
"598 213 OFFCURVE",
"773 340 OFFCURVE",
"796 455 CURVE",
"773 455 LINE",
"766 440 OFFCURVE",
"751 426 OFFCURVE",
"713 426 CURVE SMOOTH",
"611 426 OFFCURVE",
"479 468 OFFCURVE",
"429 445 CURVE",
"439 557 OFFCURVE",
"447 651 OFFCURVE",
"447 711 CURVE SMOOTH",
"447 744 OFFCURVE",
"443 773 OFFCURVE",
"435 790 CURVE",
"385 766 OFFCURVE",
"317 689 OFFCURVE",
"282 644 CURVE",
"299 628 LINE",
"333 666 OFFCURVE",
"360 696 OFFCURVE",
"373 696 CURVE SMOOTH",
"379 696 OFFCURVE",
"382 691 OFFCURVE",
"382 676 CURVE SMOOTH",
"382 613 OFFCURVE",
"375 515 OFFCURVE",
"364 420 CURVE",
"349 436 OFFCURVE",
"325 455 OFFCURVE",
"286 455 CURVE SMOOTH",
"164 455 OFFCURVE",
"39 265 OFFCURVE",
"39 118 CURVE SMOOTH",
"39 35 OFFCURVE",
"78 -15 OFFCURVE",
"139 -15 CURVE SMOOTH",
"211 -15 OFFCURVE",
"286 55 OFFCURVE",
"337 150 CURVE",
"339 150 LINE",
"336 120 OFFCURVE",
"326 11 OFFCURVE",
"326 -15 CURVE",
"347 -7 OFFCURVE",
"368 -2 OFFCURVE",
"391 0 CURVE",
"391 78 OFFCURVE",
"405 211 OFFCURVE",
"418 346 CURVE SMOOTH",
"422 383 OFFCURVE",
"435 395 OFFCURVE",
"459 395 CURVE SMOOTH",
"547 395 OFFCURVE",
"603 359 OFFCURVE",
"714 375 CURVE",
"714 373 LINE",
"629 248 OFFCURVE",
"456 120 OFFCURVE",
"436 0 CURVE",
"461 0 LINE",
"465 22 OFFCURVE",
"480 46 OFFCURVE",
"514 46 CURVE SMOOTH",
"557 46 OFFCURVE",
"587 -15 OFFCURVE",
"667 -15 CURVE SMOOTH",
"745 -15 OFFCURVE",
"808 61 OFFCURVE",
"808 139 CURVE SMOOTH",
"808 178 OFFCURVE",
"786 196 OFFCURVE",
"755 196 CURVE SMOOTH"
);
},
{
closed = 1;
nodes = (
"125 45 OFFCURVE",
"109 88 OFFCURVE",
"109 145 CURVE SMOOTH",
"109 268 OFFCURVE",
"184 425 OFFCURVE",
"279 425 CURVE SMOOTH",
"334 425 OFFCURVE",
"352 371 OFFCURVE",
"352 315 CURVE SMOOTH",
"352 182 OFFCURVE",
"247 45 OFFCURVE",
"169 45 CURVE SMOOTH"
);
}
);
width = 836;
}
);
leftKerningGroup = o;
leftMetricsKey = "=d";
rightKerningGroup = n;
rightMetricsKey = "=z";
unicode = 02A5;
},
{
glyphname = e;
layers = (
{
anchors = (
{
name = bottom;
position = "{161, 0}";
},
{
name = ogonek;
position = "{233, 0}";
},
{
name = top;
position = "{241, 440}";
}
);
layerId = "230F8D9C-4AAC-4C97-935A-A5529CE4A32C";
paths = (
{
closed = 1;
nodes = (
"231 -15 OFFCURVE",
"312 55 OFFCURVE",
"356 134 CURVE",
"335 142 LINE",
"295 83 OFFCURVE",
"243 50 OFFCURVE",
"190 50 CURVE",
"145 50 OFFCURVE",
"107 89 OFFCURVE",
"107 166 CURVE SMOOTH",
"107 283 OFFCURVE",
"194 415 OFFCURVE",
"266 415 CURVE",
"286 415 OFFCURVE",
"300 404 OFFCURVE",
"300 378 CURVE SMOOTH",
"300 314 OFFCURVE",
"233 242 OFFCURVE",
"101 161 CURVE",
"101 131 LINE",
"261 229 OFFCURVE",
"375 300 OFFCURVE",
"375 393 CURVE SMOOTH",
"375 426 OFFCURVE",
"361 455 OFFCURVE",
"301 455 CURVE",
"177 455 OFFCURVE",
"40 294 OFFCURVE",
"40 134 CURVE SMOOTH",
"40 23 OFFCURVE",
"105 -15 OFFCURVE",
"160 -15 CURVE"
);
}
);
width = 397;
}
);
leftKerningGroup = o;
leftMetricsKey = "=o";
rightKerningGroup = o;
unicode = 0065;
},
{
glyphname = eogonek;
layers = (
{
anchors = (
{
name = _ogonek;
position = "{233, 0}";
},
{
name = bottom;
position = "{199, 0}";
},
{
name = ogonek;
position = "{216, 0}";
},
{
name = top;
position = "{279, 440}";
}
);
layerId = "230F8D9C-4AAC-4C97-935A-A5529CE4A32C";
paths = (
{
closed = 1;
nodes = (
"140 50 OFFCURVE",
"107 93 OFFCURVE",
"107 166 CURVE SMOOTH",
"107 287 OFFCURVE",
"196 415 OFFCURVE",
"266 415 CURVE SMOOTH",
"287 415 OFFCURVE",
"300 403 OFFCURVE",
"300 378 CURVE SMOOTH",
"300 314 OFFCURVE",
"234 243 OFFCURVE",
"101 161 CURVE",
"101 131 LINE",
"262 229 OFFCURVE",
"375 302 OFFCURVE",
"375 392 CURVE SMOOTH",
"375 422 OFFCURVE",
"363 455 OFFCURVE",
"305 455 CURVE SMOOTH",
"177 455 OFFCURVE",
"40 298 OFFCURVE",
"40 134 CURVE SMOOTH",
"40 23 OFFCURVE",
"102 -15 OFFCURVE",
"157 -15 CURVE SMOOTH",
"164 -15 OFFCURVE",
"175 -15 OFFCURVE",
"182 -13 CURVE",
"182 -14 LINE",
"134 -57 OFFCURVE",
"95 -119 OFFCURVE",
"95 -168 CURVE SMOOTH",
"95 -207 OFFCURVE",
"120 -235 OFFCURVE",
"157 -235 CURVE SMOOTH",
"190 -235 OFFCURVE",
"231 -213 OFFCURVE",
"265 -163 CURVE",
"248 -147 LINE",
"229 -168 OFFCURVE",
"204 -185 OFFCURVE",
"184 -185 CURVE SMOOTH",
"165 -185 OFFCURVE",
"155 -170 OFFCURVE",
"155 -147 CURVE SMOOTH",
"155 -103 OFFCURVE",
"191 -37 OFFCURVE",
"246 11 CURVE SMOOTH",
"281 41 OFFCURVE",
"313 57 OFFCURVE",
"356 134 CURVE",
"335 142 LINE",
"296 82 OFFCURVE",
"236 50 OFFCURVE",
"192 50 CURVE SMOOTH"
);
}
);
width = 397;
}
);
leftKerningGroup = o;
leftMetricsKey = "=e";
rightKerningGroup = o;
rightMetricsKey = "=e";
unicode = 0119;
},
{
glyphname = eopen;
layers = (
{
anchors = (
{
name = bottom;
position = "{146, 0}";
},
{
name = ogonek;
position = "{161, 0}";
},
{
name = top;
position = "{224, 440}";
}
);
layerId = "230F8D9C-4AAC-4C97-935A-A5529CE4A32C";
paths = (
{
closed = 1;
nodes = (
"241 -15 OFFCURVE",
"300 34 OFFCURVE",
"331 125 CURVE",
"310 133 LINE",
"278 72 OFFCURVE",
"239 45 OFFCURVE",
"195 45 CURVE SMOOTH",
"140 45 OFFCURVE",
"105 80 OFFCURVE",
"105 127 CURVE SMOOTH",
"105 189 OFFCURVE",
"168 230 OFFCURVE",
"247 230 CURVE",
"247 253 LINE",
"192 265 OFFCURVE",
"152 297 OFFCURVE",
"152 342 CURVE SMOOTH",
"152 385 OFFCURVE",
"187 422 OFFCURVE",
"238 422 CURVE",
"242 455 LINE",
"177 455 OFFCURVE",
"90 409 OFFCURVE",
"90 336 CURVE SMOOTH",
"90 284 OFFCURVE",
"133 257 OFFCURVE",
"178 246 CURVE",
"80 226 OFFCURVE",
"37 163 OFFCURVE",
"37 104 CURVE SMOOTH",
"37 37 OFFCURVE",
"93 -15 OFFCURVE",
"168 -15 CURVE SMOOTH"
);
},
{
closed = 1;
nodes = (
"361 395 LINE",
"332 437 OFFCURVE",
"288 455 OFFCURVE",
"242 455 CURVE",
"238 422 LINE",
"274 422 OFFCURVE",
"327 389 OFFCURVE",
"294 324 CURVE",
"314 314 LINE"
);
}
);
width = 370;
}
);
leftKerningGroup = o;
leftMetricsKey = "=e";
rightKerningGroup = o;
rightMetricsKey = "=c";
unicode = 025B;
},
{
glyphname = eopenreversedhook;
layers = (
{
components = (
{
name = eopenreversed;
}
);
layerId = "230F8D9C-4AAC-4C97-935A-A5529CE4A32C";
paths = (
{
closed = 1;
nodes = (
"326 334 LINE",
"355 352 OFFCURVE",
"388 370 OFFCURVE",
"424 390 CURVE",
"432 425 LINE",
"394 404 OFFCURVE",
"358 384 OFFCURVE",
"326 365 CURVE"
);
},
{
closed = 1;
nodes = (
"402 342 OFFCURVE",
"410 300 OFFCURVE",
"424 282 CURVE",
"457 298 OFFCURVE",
"498 341 OFFCURVE",
"528 378 CURVE",
"512 394 LINE",
"481 362 OFFCURVE",
"468 349 OFFCURVE",
"455 349 CURVE SMOOTH",
"442 349 OFFCURVE",
"432 379 OFFCURVE",
"432 425 CURVE",
"407 389 LINE"
);
}
);
width = 428;
}
);
leftKerningGroup = o;
leftMetricsKey = "=eopenreversed";
rightKerningGroup = o;
unicode = 025D;
},
{
glyphname = ereversed;
layers = (
{
layerId = "230F8D9C-4AAC-4C97-935A-A5529CE4A32C";
paths = (
{
closed = 1;
nodes = (
"153 455 OFFCURVE",
"92 407 OFFCURVE",
"92 322 CURVE",
"92 273 OFFCURVE",
"134 171 OFFCURVE",
"284 131 CURVE",
"284 161 LINE",
"170 211 OFFCURVE",
"162 295 OFFCURVE",
"162 332 CURVE",
"162 376 OFFCURVE",
"180 420 OFFCURVE",
"221 420 CURVE SMOOTH",
"282 420 OFFCURVE",
"294 347 OFFCURVE",
"294 284 CURVE SMOOTH",
"294 155 OFFCURVE",
"219 20 OFFCURVE",
"133 20 CURVE SMOOTH",
"92 20 OFFCURVE",
"65 51 OFFCURVE",
"109 143 CURVE",
"88 151 LINE",
"21 35 LINE",
"44 5 OFFCURVE",
"72 -15 OFFCURVE",
"113 -15 CURVE SMOOTH",
"229 -15 OFFCURVE",
"364 144 OFFCURVE",
"364 304 CURVE SMOOTH",
"364 406 OFFCURVE",
"309 455 OFFCURVE",
"226 455 CURVE SMOOTH"
);
}
);
width = 404;
}
);
leftKerningGroup = o;
leftMetricsKey = "=|e";
rightKerningGroup = o;
rightMetricsKey = "=o";
unicode = 0258;
},
{
glyphname = esh;
layers = (
{
layerId = "230F8D9C-4AAC-4C97-935A-A5529CE4A32C";
paths = (
{
closed = 1;
nodes = (
"188 759 OFFCURVE",
"122 648 OFFCURVE",
"108 440 CURVE SMOOTH",
"86 115 LINE SMOOTH",
"71 -103 OFFCURVE",
"56 -163 OFFCURVE",
"36 -163 CURVE SMOOTH",
"13 -163 OFFCURVE",
"1 -103 OFFCURVE",
"8 -38 CURVE",
"-14 -38 LINE",
"-34 -103 OFFCURVE",
"-42 -196 OFFCURVE",
"4 -235 CURVE",
"71 -204 OFFCURVE",
"137 -93 OFFCURVE",
"151 115 CURVE SMOOTH",
"173 440 LINE SMOOTH",
"188 658 OFFCURVE",
"203 718 OFFCURVE",
"223 718 CURVE SMOOTH",
"246 718 OFFCURVE",
"258 658 OFFCURVE",
"251 593 CURVE",
"273 593 LINE",
"293 658 OFFCURVE",
"301 751 OFFCURVE",
"255 790 CURVE"
);
}
);
width = 239;
}
);
leftKerningGroup = l;
unicode = 0283;
},
{
glyphname = schwa;
layers = (
{
anchors = (
{
name = bottom;
position = "{156, 0}";
},
{
name = ogonek;
position = "{164, 440}";
},
{
name = top;
position = "{236, 440}";
}
);
layerId = "230F8D9C-4AAC-4C97-935A-A5529CE4A32C";
paths = (
{
closed = 1;
nodes = (
"166 455 OFFCURVE",
"105 385 OFFCURVE",
"61 306 CURVE",
"82 298 LINE",
"122 357 OFFCURVE",
"164 390 OFFCURVE",
"217 390 CURVE",
"262 390 OFFCURVE",
"290 351 OFFCURVE",
"290 274 CURVE SMOOTH",
"290 157 OFFCURVE",
"203 25 OFFCURVE",
"131 25 CURVE",
"111 25 OFFCURVE",
"97 36 OFFCURVE",
"97 62 CURVE SMOOTH",
"97 126 OFFCURVE",
"164 198 OFFCURVE",
"296 279 CURVE",
"296 309 LINE",
"136 211 OFFCURVE",
"22 140 OFFCURVE",
"22 47 CURVE SMOOTH",
"22 14 OFFCURVE",
"36 -15 OFFCURVE",
"96 -15 CURVE",
"220 -15 OFFCURVE",
"357 146 OFFCURVE",
"357 306 CURVE SMOOTH",
"357 417 OFFCURVE",
"292 455 OFFCURVE",
"237 455 CURVE"
);
}
);
width = 397;
}
);
leftKerningGroup = o;
leftMetricsKey = "=|e";
rightKerningGroup = o;
rightMetricsKey = "=|e";
unicode = 0259;
},
{
glyphname = schwahook;
layers = (
{
anchors = (
{
name = bottom;
position = "{156, 0}";
},
{
name = ogonek;
position = "{164, 440}";
},
{
name = top;
position = "{236, 440}";
}
);
layerId = "230F8D9C-4AAC-4C97-935A-A5529CE4A32C";
paths = (
{
closed = 1;
nodes = (
"326 275 LINE",
"355 293 OFFCURVE",
"388 311 OFFCURVE",
"424 331 CURVE",
"432 366 LINE",
"394 345 OFFCURVE",
"358 325 OFFCURVE",
"326 306 CURVE"
);
},
{
closed = 1;
nodes = (
"402 283 OFFCURVE",
"410 241 OFFCURVE",
"424 223 CURVE",
"457 239 OFFCURVE",
"498 282 OFFCURVE",
"528 319 CURVE",
"512 335 LINE",
"481 303 OFFCURVE",
"468 290 OFFCURVE",
"455 290 CURVE SMOOTH",
"442 290 OFFCURVE",
"432 320 OFFCURVE",
"432 366 CURVE",
"407 330 LINE"
);
},
{
closed = 1;
nodes = (
"326 316 LINE",
"102 188 OFFCURVE",
"22 128 OFFCURVE",
"22 47 CURVE SMOOTH",
"22 14 OFFCURVE",
"36 -15 OFFCURVE",
"96 -15 CURVE",
"220 -15 OFFCURVE",
"357 146 OFFCURVE",
"357 306 CURVE SMOOTH",
"357 417 OFFCURVE",
"292 455 OFFCURVE",
"237 455 CURVE",
"166 455 OFFCURVE",
"105 385 OFFCURVE",
"61 306 CURVE",
"82 298 LINE",
"122 357 OFFCURVE",
"164 390 OFFCURVE",
"217 390 CURVE",
"262 390 OFFCURVE",
"290 351 OFFCURVE",
"290 274 CURVE SMOOTH",
"290 157 OFFCURVE",
"203 25 OFFCURVE",
"131 25 CURVE",
"111 25 OFFCURVE",
"97 36 OFFCURVE",
"97 62 CURVE SMOOTH",
"97 117 OFFCURVE",
"147 178 OFFCURVE",
"326 285 CURVE"
);
}
);
width = 478;
}
);
leftKerningGroup = o;
leftMetricsKey = "=|e";
rightKerningGroup = v;
unicode = 025A;
},
{
glyphname = ezh;
layers = (
{
anchors = (
{
name = bottom;
position = "{188, 0}";
},
{
name = ogonek;
position = "{194, 0}";
},
{
name = top;
position = "{208, 440}";
}
);
layerId = "230F8D9C-4AAC-4C97-935A-A5529CE4A32C";
paths = (
{
closed = 1;
nodes = (
"103 133 LINE",
"117 143 OFFCURVE",
"130 147 OFFCURVE",
"141 147 CURVE SMOOTH",
"177 147 OFFCURVE",
"233 126 OFFCURVE",
"233 21 CURVE SMOOTH",
"233 -86 OFFCURVE",
"168 -185 OFFCURVE",
"78 -185 CURVE SMOOTH",
"44 -185 OFFCURVE",
"15 -167 OFFCURVE",
"15 -128 CURVE SMOOTH",
"15 -116 OFFCURVE",
"18 -99 OFFCURVE",
"27 -80 CURVE",
"6 -72 LINE",
"-50 -170 LINE",
"-33 -195 OFFCURVE",
"13 -220 OFFCURVE",
"62 -220 CURVE SMOOTH",
"182 -220 OFFCURVE",
"303 -104 OFFCURVE",
"303 46 CURVE SMOOTH",
"303 178 OFFCURVE",
"224 208 OFFCURVE",
"165 208 CURVE SMOOTH",
"154 208 OFFCURVE",
"144 206 OFFCURVE",
"133 203 CURVE"
);
},
{
closed = 1;
nodes = (
"249 313 OFFCURVE",
"339 351 OFFCURVE",
"360 455 CURVE",
"337 455 LINE",
"330 440 OFFCURVE",
"315 426 OFFCURVE",
"277 426 CURVE SMOOTH",
"223 426 OFFCURVE",
"154 455 OFFCURVE",
"106 455 CURVE",
"84 430 OFFCURVE",
"63 387 OFFCURVE",
"41 337 CURVE",
"62 329 LINE",
"90 372 OFFCURVE",
"100 385 OFFCURVE",
"122 385 CURVE",
"157 385 OFFCURVE",
"196 368 OFFCURVE",
"237 368 CURVE SMOOTH",
"250 368 OFFCURVE",
"265 370 OFFCURVE",
"278 375 CURVE",
"278 373 LINE",
"216 294 OFFCURVE",
"140 255 OFFCURVE",
"82 141 CURVE",
"103 133 LINE"
);
}
);
width = 375;
}
);
leftKerningGroup = n;
rightKerningGroup = n;
unicode = 0292;
},
{
glyphname = f;
layers = (
{
anchors = (
{
name = bottom;
position = "{94, -233}";
},
{
name = ogonek;
position = "{95, -234}";
},
{
name = top;
position = "{246, 750}";
}
);
layerId = "230F8D9C-4AAC-4C97-935A-A5529CE4A32C";
paths = (
{
closed = 1;
nodes = (
"84 -233 OFFCURVE",
"141 -164 OFFCURVE",
"151 -15 CURVE SMOOTH",
"178 378 LINE SMOOTH",
"180 403 OFFCURVE",
"186 410 OFFCURVE",
"208 410 CURVE SMOOTH",
"298 410 LINE",
"298 440 LINE",
"183 440 LINE",
"198 658 OFFCURVE",
"213 718 OFFCURVE",
"233 718 CURVE SMOOTH",
"256 718 OFFCURVE",
"268 658 OFFCURVE",
"261 593 CURVE",
"283 593 LINE",
"303 658 OFFCURVE",
"311 751 OFFCURVE",
"265 790 CURVE",
"198 759 OFFCURVE",
"132 648 OFFCURVE",
"118 440 CURVE",
"46 440 LINE",
"46 410 LINE",
"116 410 LINE",
"88 0 LINE SMOOTH",
"79 -132 OFFCURVE",
"70 -194 OFFCURVE",
"23 -212 CURVE",
"23 -235 LINE"
);
}
);
width = 281;
}
);
leftKerningGroup = l;
rightKerningGroup = f;
unicode = 0066;
},
{
glyphname = fengdigraph;
layers = (
{
anchors = (
{
name = bottom;
position = "{406, 0}";
},
{
name = ogonek;
position = "{382, 0}";
},
{
name = top;
position = "{128, 440}";
}
);
layerId = "230F8D9C-4AAC-4C97-935A-A5529CE4A32C";
paths = (
{
closed = 1;
nodes = (
"592 440 OFFCURVE",
"499 348 OFFCURVE",
"421 208 CURVE",
"419 208 LINE",
"430 276 OFFCURVE",
"437 324 OFFCURVE",
"437 376 CURVE SMOOTH",
"437 409 OFFCURVE",
"433 438 OFFCURVE",
"425 455 CURVE",
"404 443 OFFCURVE",
"288 440 OFFCURVE",
"253 440 CURVE SMOOTH",
"183 440 LINE",
"198 658 OFFCURVE",
"213 718 OFFCURVE",
"233 718 CURVE SMOOTH",
"256 718 OFFCURVE",
"268 658 OFFCURVE",
"261 593 CURVE",
"283 593 LINE",
"303 658 OFFCURVE",
"311 751 OFFCURVE",
"265 790 CURVE",
"198 759 OFFCURVE",
"132 648 OFFCURVE",
"118 440 CURVE",
"46 440 LINE",
"46 410 LINE",
"116 410 LINE",
"88 0 LINE SMOOTH",
"79 -132 OFFCURVE",
"70 -194 OFFCURVE",
"23 -212 CURVE",
"23 -235 LINE",
"84 -233 OFFCURVE",
"141 -164 OFFCURVE",
"151 -15 CURVE SMOOTH",
"178 378 LINE SMOOTH",
"180 403 OFFCURVE",
"186 410 OFFCURVE",
"208 410 CURVE SMOOTH",
"323 410 LINE SMOOTH",
"372 410 OFFCURVE",
"372 405 OFFCURVE",
"372 390 CURVE SMOOTH",
"372 340 OFFCURVE",
"348 55 OFFCURVE",
"341 -15 CURVE",
"362 -7 OFFCURVE",
"383 -2 OFFCURVE",
"406 0 CURVE",
"406 118 OFFCURVE",
"447 199 OFFCURVE",
"491 264 CURVE SMOOTH",
"538 333 OFFCURVE",
"582 379 OFFCURVE",
"603 379 CURVE SMOOTH",
"613 379 OFFCURVE",
"617 369 OFFCURVE",
"617 341 CURVE SMOOTH",
"617 317 OFFCURVE",
"609 207 OFFCURVE",
"601 114 CURVE SMOOTH",
"584 -83 OFFCURVE",
"569 -163 OFFCURVE",
"548 -163 CURVE SMOOTH",
"529 -163 OFFCURVE",
"514 -102 OFFCURVE",
"522 -38 CURVE",
"500 -38 LINE",
"480 -103 OFFCURVE",
"472 -196 OFFCURVE",
"518 -235 CURVE",
"585 -204 OFFCURVE",
"647 -99 OFFCURVE",
"664 118 CURVE SMOOTH",
"676 266 OFFCURVE",
"682 347 OFFCURVE",
"682 376 CURVE SMOOTH",
"682 411 OFFCURVE",
"673 440 OFFCURVE",
"654 455 CURVE"
);
}
);
width = 741;
}
);
leftKerningGroup = l;
leftMetricsKey = "=f";
rightKerningGroup = n;
rightMetricsKey = "=eng";
unicode = 02A9;
},
{
glyphname = g;
layers = (
{
anchors = (
{
name = bottom;
position = "{184, -233}";
},
{
name = ogonek;
position = "{175, -234}";
},
{
name = top;
position = "{265, 440}";
}
);
layerId = "230F8D9C-4AAC-4C97-935A-A5529CE4A32C";
paths = (
{
closed = 1;
nodes = (
"303 -235 OFFCURVE",
"397 -143 OFFCURVE",
"397 -94 CURVE SMOOTH",
"397 -74 OFFCURVE",
"382 -63 OFFCURVE",
"367 -56 CURVE SMOOTH",
"171 36 LINE SMOOTH",
"154 44 OFFCURVE",
"144 49 OFFCURVE",
"144 63 CURVE SMOOTH",
"144 75 OFFCURVE",
"150 91 OFFCURVE",
"177 94 CURVE SMOOTH",
"288 107 OFFCURVE",
"391 240 OFFCURVE",
"391 349 CURVE SMOOTH",
"391 430 OFFCURVE",
"334 455 OFFCURVE",
"284 455 CURVE SMOOTH",
"167 455 OFFCURVE",
"50 314 OFFCURVE",
"50 199 CURVE SMOOTH",
"50 136 OFFCURVE",
"85 107 OFFCURVE",
"124 97 CURVE",
"95 18 LINE SMOOTH",
"91 7 OFFCURVE",
"92 -1 OFFCURVE",
"103 -6 CURVE SMOOTH",
"312 -105 LINE SMOOTH",
"326 -112 OFFCURVE",
"332 -117 OFFCURVE",
"332 -128 CURVE SMOOTH",
"332 -167 OFFCURVE",
"262 -191 OFFCURVE",
"197 -191 CURVE SMOOTH",
"128 -191 OFFCURVE",
"67 -162 OFFCURVE",
"67 -124 CURVE SMOOTH",
"67 -110 OFFCURVE",
"76 -85 OFFCURVE",
"102 -60 CURVE",
"82 -50 LINE",
"41 -71 OFFCURVE",
"-3 -103 OFFCURVE",
"-3 -143 CURVE SMOOTH",
"-3 -199 OFFCURVE",
"79 -235 OFFCURVE",
"165 -235 CURVE SMOOTH"
);
},
{
closed = 1;
nodes = (
"137 131 OFFCURVE",
"118 170 OFFCURVE",
"118 222 CURVE SMOOTH",
"118 307 OFFCURVE",
"175 416 OFFCURVE",
"257 416 CURVE SMOOTH",
"304 416 OFFCURVE",
"323 376 OFFCURVE",
"323 326 CURVE SMOOTH",
"323 245 OFFCURVE",
"269 131 OFFCURVE",
"183 131 CURVE SMOOTH"
);
},
{
closed = 1;
nodes = (
"423 394 OFFCURVE",
"459 411 OFFCURVE",
"459 454 CURVE SMOOTH",
"459 475 OFFCURVE",
"452 495 OFFCURVE",
"438 515 CURVE",
"418 515 LINE",
"409 445 OFFCURVE",
"393 414 OFFCURVE",
"361 414 CURVE",
"372 394 LINE"
);
}
);
width = 436;
}
);
leftKerningGroup = o;
rightKerningGroup = o;
unicode = 0067;
},
{
glyphname = "gamma-latin";
layers = (
{
layerId = "230F8D9C-4AAC-4C97-935A-A5529CE4A32C";
paths = (
{
closed = 1;
nodes = (
"144 405 OFFCURVE",
"152 412 OFFCURVE",
"221 417 CURVE",
"223 440 LINE",
"22 440 LINE",
"20 417 LINE",
"62 414 OFFCURVE",
"71 396 OFFCURVE",
"92 342 CURVE SMOOTH",
"230 -22 LINE SMOOTH",
"254 -86 OFFCURVE",
"239 -180 OFFCURVE",
"184 -180 CURVE SMOOTH",
"125 -180 OFFCURVE",
"112 -82 OFFCURVE",
"168 0 CURVE SMOOTH",
"402 342 LINE SMOOTH",
"443 402 OFFCURVE",
"453 413 OFFCURVE",
"484 417 CURVE",
"486 440 LINE",
"314 440 LINE",
"312 417 LINE",
"401 414 OFFCURVE",
"396 390 OFFCURVE",
"362 342 CURVE SMOOTH",
"123 0 LINE SMOOTH",
"48 -107 OFFCURVE",
"75 -220 OFFCURVE",
"180 -220 CURVE SMOOTH",
"290 -220 OFFCURVE",
"344 -113 OFFCURVE",
"293 19 CURVE SMOOTH",
"168 342 LINE SMOOTH"
);
}
);
width = 446;
}
);
leftKerningGroup = v;
rightKerningGroup = v;
unicode = 0263;
},
{
glyphname = gcommaaccent;
layers = (
{
anchors = (
{
name = bottom;
position = "{184, -233}";
},
{
name = ogonek;
position = "{175, -234}";
},
{
name = top;
position = "{290, 799}";
}
);
layerId = "230F8D9C-4AAC-4C97-935A-A5529CE4A32C";
paths = (
{
closed = 1;
nodes = (
"423 394 OFFCURVE",
"459 411 OFFCURVE",
"459 454 CURVE SMOOTH",
"459 475 OFFCURVE",
"452 495 OFFCURVE",
"438 515 CURVE",
"418 515 LINE",
"409 445 OFFCURVE",
"393 414 OFFCURVE",
"361 414 CURVE",
"372 394 LINE"
);
},
{
closed = 1;
nodes = (
"171 36 LINE SMOOTH",
"154 44 OFFCURVE",
"144 49 OFFCURVE",
"144 63 CURVE SMOOTH",
"144 75 OFFCURVE",
"150 91 OFFCURVE",
"177 94 CURVE SMOOTH",
"288 107 OFFCURVE",
"391 240 OFFCURVE",
"391 349 CURVE SMOOTH",
"391 430 OFFCURVE",
"334 455 OFFCURVE",
"284 455 CURVE SMOOTH",
"167 455 OFFCURVE",
"50 314 OFFCURVE",
"50 199 CURVE SMOOTH",
"50 136 OFFCURVE",
"85 107 OFFCURVE",
"124 97 CURVE",
"95 18 LINE SMOOTH",
"91 7 OFFCURVE",
"92 -1 OFFCURVE",
"103 -6 CURVE SMOOTH",
"312 -105 LINE SMOOTH",
"326 -112 OFFCURVE",
"332 -117 OFFCURVE",
"332 -128 CURVE SMOOTH",
"332 -167 OFFCURVE",
"262 -191 OFFCURVE",
"197 -191 CURVE SMOOTH",
"128 -191 OFFCURVE",
"67 -162 OFFCURVE",
"67 -124 CURVE SMOOTH",
"67 -110 OFFCURVE",
"76 -85 OFFCURVE",
"102 -60 CURVE",
"82 -50 LINE",
"41 -71 OFFCURVE",
"-3 -103 OFFCURVE",
"-3 -143 CURVE SMOOTH",
"-3 -199 OFFCURVE",
"79 -235 OFFCURVE",
"165 -235 CURVE SMOOTH",
"303 -235 OFFCURVE",
"397 -143 OFFCURVE",
"397 -94 CURVE SMOOTH",
"397 -74 OFFCURVE",
"382 -63 OFFCURVE",
"367 -56 CURVE SMOOTH"
);
},
{
closed = 1;
nodes = (
"304 416 OFFCURVE",
"323 376 OFFCURVE",
"323 326 CURVE SMOOTH",
"323 245 OFFCURVE",
"269 131 OFFCURVE",
"183 131 CURVE SMOOTH",
"137 131 OFFCURVE",
"118 170 OFFCURVE",
"118 222 CURVE SMOOTH",
"118 307 OFFCURVE",
"175 416 OFFCURVE",
"257 416 CURVE SMOOTH"
);
},
{
closed = 1;
nodes = (
"242 537 OFFCURVE",
"240 552 OFFCURVE",
"240 567 CURVE SMOOTH",
"240 642 OFFCURVE",
"299 695 OFFCURVE",
"347 703 CURVE",
"345 681 LINE",
"319 661 OFFCURVE",
"304 627 OFFCURVE",
"304 603 CURVE SMOOTH",
"304 587 OFFCURVE",
"307 570 OFFCURVE",
"312 558 CURVE",
"292 538 OFFCURVE",
"275 525 OFFCURVE",
"248 520 CURVE"
);
}
);
width = 435;
}
);
leftKerningGroup = o;
rightKerningGroup = o;
unicode = 0123;
},
{
glyphname = ghook;
layers = (
{
layerId = "230F8D9C-4AAC-4C97-935A-A5529CE4A32C";
paths = (
{
closed = 1;
nodes = (
"425 455 LINE",
"360 425 LINE",
"343 442 OFFCURVE",
"325 455 OFFCURVE",
"286 455 CURVE SMOOTH",
"164 455 OFFCURVE",
"39 265 OFFCURVE",
"39 118 CURVE SMOOTH",
"39 35 OFFCURVE",
"78 -15 OFFCURVE",
"139 -15 CURVE SMOOTH",
"211 -15 OFFCURVE",
"287 55 OFFCURVE",
"338 150 CURVE",
"340 150 LINE"
);
},
{
closed = 1;
nodes = (
"125 45 OFFCURVE",
"109 88 OFFCURVE",
"109 145 CURVE SMOOTH",
"109 268 OFFCURVE",
"184 425 OFFCURVE",
"279 425 CURVE SMOOTH",
"334 425 OFFCURVE",
"352 370 OFFCURVE",
"352 314 CURVE SMOOTH",
"352 182 OFFCURVE",
"247 45 OFFCURVE",
"169 45 CURVE SMOOTH"
);
},
{
closed = 1;
nodes = (
"425 455 LINE",
"340 150 LINE",
"328 -45 OFFCURVE",
"289 -200 OFFCURVE",
"155 -200 CURVE SMOOTH",
"116 -200 OFFCURVE",
"79 -176 OFFCURVE",
"109 -109 CURVE",
"88 -101 LINE",
"31 -194 LINE",
"64 -220 OFFCURVE",
"97 -235 OFFCURVE",
"141 -235 CURVE SMOOTH",
"272 -235 OFFCURVE",
"378 -108 OFFCURVE",
"393 70 CURVE SMOOTH"
);
},
{
closed = 1;
nodes = (
"425 455 LINE",
"442 659 OFFCURVE",
"457 719 OFFCURVE",
"477 719 CURVE SMOOTH",
"500 719 OFFCURVE",
"512 659 OFFCURVE",
"505 594 CURVE",
"527 594 LINE",
"547 659 OFFCURVE",
"555 752 OFFCURVE",
"509 791 CURVE",
"390 732 OFFCURVE",
"373 534 OFFCURVE",
"360 425 CURVE"
);
}
);
width = 506;
}
);
leftKerningGroup = o;
leftMetricsKey = "=o";
rightKerningGroup = l;
rightMetricsKey = "=f";
unicode = 0260;
},
{
glyphname = glottalstop;
layers = (
{
anchors = (
{
name = topright;
position = "{268, 265}";
}
);
layerId = "230F8D9C-4AAC-4C97-935A-A5529CE4A32C";
paths = (
{
closed = 1;
nodes = (
"165 66 OFFCURVE",
"161 84 OFFCURVE",
"161 99 CURVE SMOOTH",
"161 159 OFFCURVE",
"176 318 OFFCURVE",
"185 388 CURVE",
"302 478 OFFCURVE",
"367 565 OFFCURVE",
"367 660 CURVE SMOOTH",
"367 746 OFFCURVE",
"313 780 OFFCURVE",
"240 780 CURVE SMOOTH",
"163 780 OFFCURVE",
"114 742 OFFCURVE",
"60 670 CURVE",
"76 654 LINE",
"124 707 OFFCURVE",
"161 730 OFFCURVE",
"211 730 CURVE SMOOTH",
"272 730 OFFCURVE",
"302 696 OFFCURVE",
"302 644 CURVE SMOOTH",
"302 557 OFFCURVE",
"218 453 OFFCURVE",
"120 385 CURVE",
"111 291 OFFCURVE",
"96 134 OFFCURVE",
"96 64 CURVE SMOOTH",
"96 30 OFFCURVE",
"102 3 OFFCURVE",
"116 -15 CURVE",
"166 9 OFFCURVE",
"235 64 OFFCURVE",
"270 109 CURVE",
"254 125 LINE",
"219 87 OFFCURVE",
"191 66 OFFCURVE",
"178 66 CURVE SMOOTH"
);
}
);
width = 333;
}
);
rightMetricsKey = "=f";
unicode = 0294;
},
{
glyphname = glottalstopreversed;
layers = (
{
anchors = (
{
name = topright;
position = "{330, 265}";
}
);
layerId = "230F8D9C-4AAC-4C97-935A-A5529CE4A32C";
paths = (
{
closed = 1;
nodes = (
"167 780 OFFCURVE",
"104 746 OFFCURVE",
"80 660 CURVE SMOOTH",
"53 565 OFFCURVE",
"94 478 OFFCURVE",
"182 385 CURVE",
"173 291 OFFCURVE",
"158 134 OFFCURVE",
"158 64 CURVE SMOOTH",
"158 30 OFFCURVE",
"164 3 OFFCURVE",
"178 -15 CURVE",
"228 9 OFFCURVE",
"297 64 OFFCURVE",
"332 109 CURVE",
"316 125 LINE",
"281 87 OFFCURVE",
"253 66 OFFCURVE",
"240 66 CURVE SMOOTH",
"227 66 OFFCURVE",
"223 84 OFFCURVE",
"223 99 CURVE SMOOTH",
"223 159 OFFCURVE",
"238 318 OFFCURVE",
"247 388 CURVE",
"171 453 OFFCURVE",
"115 557 OFFCURVE",
"140 644 CURVE SMOOTH",
"155 696 OFFCURVE",
"194 730 OFFCURVE",
"255 730 CURVE SMOOTH",
"305 730 OFFCURVE",
"336 707 OFFCURVE",
"369 654 CURVE",
"389 670 LINE",
"356 742 OFFCURVE",
"317 780 OFFCURVE",
"240 780 CURVE SMOOTH"
);
}
);
width = 354;
}
);
leftMetricsKey = "=o";
rightMetricsKey = "=f";
unicode = 0295;
},
{
glyphname = glottalstopstroke;
layers = (
{
anchors = (
{
name = topright;
position = "{268, 265}";
}
);
layerId = "230F8D9C-4AAC-4C97-935A-A5529CE4A32C";
paths = (
{
closed = 1;
nodes = (
"165 66 OFFCURVE",
"161 84 OFFCURVE",
"161 99 CURVE SMOOTH",
"161 159 OFFCURVE",
"176 318 OFFCURVE",
"185 388 CURVE",
"302 478 OFFCURVE",
"367 565 OFFCURVE",
"367 660 CURVE SMOOTH",
"367 746 OFFCURVE",
"313 780 OFFCURVE",
"240 780 CURVE SMOOTH",
"163 780 OFFCURVE",
"114 742 OFFCURVE",
"60 670 CURVE",
"76 654 LINE",
"124 707 OFFCURVE",
"161 730 OFFCURVE",
"211 730 CURVE SMOOTH",
"272 730 OFFCURVE",
"302 696 OFFCURVE",
"302 644 CURVE SMOOTH",
"302 557 OFFCURVE",
"218 453 OFFCURVE",
"120 385 CURVE",
"111 291 OFFCURVE",
"96 134 OFFCURVE",
"96 64 CURVE SMOOTH",
"96 30 OFFCURVE",
"102 3 OFFCURVE",
"116 -15 CURVE",
"166 9 OFFCURVE",
"235 64 OFFCURVE",
"270 109 CURVE",
"254 125 LINE",
"219 87 OFFCURVE",
"191 66 OFFCURVE",
"178 66 CURVE SMOOTH"
);
},
{
closed = 1;
nodes = (
"267.92 268 LINE",
"20 268 LINE",
"20 233 LINE",
"267.92 233 LINE"
);
}
);
width = 349;
}
);
unicode = 02A1;
},
{
glyphname = glottalstopstrokereversed;
layers = (
{
anchors = (
{
name = topright;
position = "{298, 265}";
}
);
layerId = "230F8D9C-4AAC-4C97-935A-A5529CE4A32C";
paths = (
{
closed = 1;
nodes = (
"135 780 OFFCURVE",
"72 746 OFFCURVE",
"48 660 CURVE SMOOTH",
"21 565 OFFCURVE",
"62 478 OFFCURVE",
"150 385 CURVE",
"141 291 OFFCURVE",
"126 134 OFFCURVE",
"126 64 CURVE SMOOTH",
"126 30 OFFCURVE",
"132 3 OFFCURVE",
"146 -15 CURVE",
"196 9 OFFCURVE",
"265 64 OFFCURVE",
"300 109 CURVE",
"284 125 LINE",
"249 87 OFFCURVE",
"221 66 OFFCURVE",
"208 66 CURVE SMOOTH",
"195 66 OFFCURVE",
"191 84 OFFCURVE",
"191 99 CURVE SMOOTH",
"191 159 OFFCURVE",
"206 318 OFFCURVE",
"215 388 CURVE",
"139 453 OFFCURVE",
"83 557 OFFCURVE",
"108 644 CURVE SMOOTH",
"123 696 OFFCURVE",
"162 730 OFFCURVE",
"223 730 CURVE SMOOTH",
"273 730 OFFCURVE",
"304 707 OFFCURVE",
"337 654 CURVE",
"357 670 LINE",
"324 742 OFFCURVE",
"285 780 OFFCURVE",
"208 780 CURVE SMOOTH"
);
},
{
closed = 1;
nodes = (
"297.92 268 LINE",
"50 268 LINE",
"50 233 LINE",
"297.92 233 LINE"
);
}
);
width = 339;
}
);
unicode = 02A2;
},
{
glyphname = gsingle;
layers = (
{
anchors = (
{
name = bottom;
position = "{164, -233}";
},
{
name = ogonek;
position = "{-333, 440}";
},
{
name = top;
position = "{282, 440}";
}
);
layerId = "230F8D9C-4AAC-4C97-935A-A5529CE4A32C";
paths = (
{
closed = 1;
nodes = (
"344 442 OFFCURVE",
"326 455 OFFCURVE",
"287 455 CURVE SMOOTH",
"165 455 OFFCURVE",
"40 265 OFFCURVE",
"40 118 CURVE SMOOTH",
"40 35 OFFCURVE",
"79 -15 OFFCURVE",
"140 -15 CURVE SMOOTH",
"212 -15 OFFCURVE",
"288 55 OFFCURVE",
"339 150 CURVE",
"341 150 LINE",
"329 -45 OFFCURVE",
"290 -200 OFFCURVE",
"156 -200 CURVE SMOOTH",
"117 -200 OFFCURVE",
"80 -176 OFFCURVE",
"110 -109 CURVE",
"89 -101 LINE",
"32 -194 LINE",
"65 -220 OFFCURVE",
"98 -235 OFFCURVE",
"142 -235 CURVE SMOOTH",
"273 -235 OFFCURVE",
"379 -108 OFFCURVE",
"394 70 CURVE SMOOTH",
"426 455 LINE",
"361 425 LINE"
);
},
{
closed = 1;
nodes = (
"126 45 OFFCURVE",
"110 88 OFFCURVE",
"110 145 CURVE SMOOTH",
"110 268 OFFCURVE",
"185 425 OFFCURVE",
"280 425 CURVE SMOOTH",
"335 425 OFFCURVE",
"353 370 OFFCURVE",
"353 314 CURVE SMOOTH",
"353 182 OFFCURVE",
"248 45 OFFCURVE",
"170 45 CURVE SMOOTH"
);
}
);
width = 477;
}
);
leftKerningGroup = o;
rightKerningGroup = n;
unicode = 0261;
},
{
glyphname = h;
layers = (
{
anchors = (
{
name = bottom;
position = "{213, 0}";
},
{
name = center;
position = "{243, 220}";
},
{
name = ogonek;
position = "{93, 0}";
},
{
name = top;
position = "{156, 750}";
},
{
name = topright;
position = "{325, 560}";
}
);
layerId = "230F8D9C-4AAC-4C97-935A-A5529CE4A32C";
paths = (
{
closed = 1;
nodes = (
"83 -7 OFFCURVE",
"104 -2 OFFCURVE",
"127 0 CURVE",
"129 118 OFFCURVE",
"134 195 OFFCURVE",
"170 265 CURVE SMOOTH",
"208 338 OFFCURVE",
"277 394 OFFCURVE",
"325 394 CURVE SMOOTH",
"353 394 OFFCURVE",
"372 375 OFFCURVE",
"372 291 CURVE SMOOTH",
"372 201 OFFCURVE",
"352 50 OFFCURVE",
"301 50 CURVE SMOOTH",
"290 50 OFFCURVE",
"279 57 OFFCURVE",
"271 64 CURVE",
"247 49 OFFCURVE",
"241 13 OFFCURVE",
"250 -15 CURVE",
"373 -9 OFFCURVE",
"442 178 OFFCURVE",
"442 322 CURVE SMOOTH",
"442 424 OFFCURVE",
"407 455 OFFCURVE",
"366 455 CURVE SMOOTH",
"301 455 OFFCURVE",
"199 375 OFFCURVE",
"149 290 CURVE",
"147 290 LINE",
"162 445 OFFCURVE",
"178 603 OFFCURVE",
"178 711 CURVE SMOOTH",
"178 744 OFFCURVE",
"174 773 OFFCURVE",
"166 790 CURVE",
"116 766 OFFCURVE",
"48 689 OFFCURVE",
"13 644 CURVE",
"30 628 LINE",
"64 666 OFFCURVE",
"91 696 OFFCURVE",
"104 696 CURVE SMOOTH",
"110 696 OFFCURVE",
"113 691 OFFCURVE",
"113 676 CURVE SMOOTH",
"113 529 OFFCURVE",
"79 155 OFFCURVE",
"62 -15 CURVE"
);
}
);
width = 485;
}
);
leftKerningGroup = l;
rightKerningGroup = n;
unicode = 0068;
},
{
glyphname = henghook;
layers = (
{
layerId = "230F8D9C-4AAC-4C97-935A-A5529CE4A32C";
paths = (
{
closed = 1;
nodes = (
"327 440 OFFCURVE",
"234 348 OFFCURVE",
"156 208 CURVE",
"154 208 LINE",
"191 658 OFFCURVE",
"206 718 OFFCURVE",
"226 718 CURVE SMOOTH",
"249 718 OFFCURVE",
"261 658 OFFCURVE",
"254 593 CURVE",
"276 593 LINE",
"296 658 OFFCURVE",
"304 751 OFFCURVE",
"258 790 CURVE",
"109 721 OFFCURVE",
"112 339 OFFCURVE",
"75 -15 CURVE",
"96 -7 OFFCURVE",
"117 -2 OFFCURVE",
"140 0 CURVE",
"140 118 OFFCURVE",
"182 199 OFFCURVE",
"226 264 CURVE SMOOTH",
"273 333 OFFCURVE",
"317 379 OFFCURVE",
"338 379 CURVE SMOOTH",
"348 379 OFFCURVE",
"352 369 OFFCURVE",
"352 341 CURVE SMOOTH",
"352 316 OFFCURVE",
"347 243 OFFCURVE",
"336 119 CURVE SMOOTH",
"317 -99 OFFCURVE",
"305 -163 OFFCURVE",
"285 -163 CURVE SMOOTH",
"262 -163 OFFCURVE",
"250 -103 OFFCURVE",
"257 -38 CURVE",
"235 -38 LINE",
"215 -103 OFFCURVE",
"207 -196 OFFCURVE",
"253 -235 CURVE",
"320 -204 OFFCURVE",
"382 -89 OFFCURVE",
"399 119 CURVE SMOOTH",
"407 218 OFFCURVE",
"417 338 OFFCURVE",
"417 376 CURVE SMOOTH",
"417 411 OFFCURVE",
"408 440 OFFCURVE",
"389 455 CURVE"
);
}
);
width = 477;
}
);
leftKerningGroup = l;
rightKerningGroup = n;
unicode = 0267;
},
{
glyphname = hhook;
layers = (
{
anchors = (
{
name = bottom;
position = "{213, 0}";
},
{
name = center;
position = "{243, 220}";
},
{
name = ogonek;
position = "{93, 0}";
},
{
name = top;
position = "{316, 750}";
},
{
name = topright;
position = "{325, 560}";
}
);
layerId = "230F8D9C-4AAC-4C97-935A-A5529CE4A32C";
paths = (
{
closed = 1;
nodes = (
"301 455 OFFCURVE",
"199 375 OFFCURVE",
"149 290 CURVE",
"147 290 LINE",
"178 658 OFFCURVE",
"193 718 OFFCURVE",
"213 718 CURVE SMOOTH",
"236 718 OFFCURVE",
"248 658 OFFCURVE",
"241 593 CURVE",
"263 593 LINE",
"283 658 OFFCURVE",
"291 751 OFFCURVE",
"245 790 CURVE",
"96 721 OFFCURVE",
"99 339 OFFCURVE",
"62 -15 CURVE",
"83 -7 OFFCURVE",
"104 -2 OFFCURVE",
"127 0 CURVE",
"129 118 OFFCURVE",
"134 195 OFFCURVE",
"170 265 CURVE SMOOTH",
"208 338 OFFCURVE",
"277 394 OFFCURVE",
"325 394 CURVE SMOOTH",
"353 394 OFFCURVE",
"372 375 OFFCURVE",
"372 291 CURVE SMOOTH",
"372 201 OFFCURVE",
"352 50 OFFCURVE",
"301 50 CURVE SMOOTH",
"290 50 OFFCURVE",
"279 57 OFFCURVE",
"271 64 CURVE",
"247 49 OFFCURVE",
"241 13 OFFCURVE",
"250 -15 CURVE",
"373 -9 OFFCURVE",
"442 178 OFFCURVE",
"442 322 CURVE SMOOTH",
"442 424 OFFCURVE",
"407 455 OFFCURVE",
"366 455 CURVE SMOOTH"
);
}
);
width = 485;
}
);
leftKerningGroup = l;
rightKerningGroup = n;
rightMetricsKey = "=h";
unicode = 0266;
},
{
glyphname = hturned;
layers = (
{
anchors = (
{
name = bottom;
position = "{329, -310}";
},
{
name = bottomleft;
position = "{160, -120}";
},
{
name = center;
position = "{242, 220}";
},
{
name = ogonek;
position = "{392, 440}";
},
{
name = top;
position = "{272, 440}";
}
);
layerId = "230F8D9C-4AAC-4C97-935A-A5529CE4A32C";
paths = (
{
closed = 1;
nodes = (
"402 447 OFFCURVE",
"381 442 OFFCURVE",
"358 440 CURVE",
"356 322 OFFCURVE",
"351 245 OFFCURVE",
"315 175 CURVE SMOOTH",
"277 102 OFFCURVE",
"208 46 OFFCURVE",
"160 46 CURVE SMOOTH",
"132 46 OFFCURVE",
"113 65 OFFCURVE",
"113 149 CURVE SMOOTH",
"113 239 OFFCURVE",
"133 390 OFFCURVE",
"184 390 CURVE SMOOTH",
"195 390 OFFCURVE",
"206 383 OFFCURVE",
"214 376 CURVE",
"238 391 OFFCURVE",
"244 427 OFFCURVE",
"235 455 CURVE",
"112 449 OFFCURVE",
"43 262 OFFCURVE",
"43 118 CURVE SMOOTH",
"43 16 OFFCURVE",
"78 -15 OFFCURVE",
"119 -15 CURVE SMOOTH",
"184 -15 OFFCURVE",
"286 65 OFFCURVE",
"336 150 CURVE",
"338 150 LINE",
"323 -5 OFFCURVE",
"307 -163 OFFCURVE",
"307 -271 CURVE SMOOTH",
"307 -304 OFFCURVE",
"311 -333 OFFCURVE",
"319 -350 CURVE",
"369 -326 OFFCURVE",
"437 -249 OFFCURVE",
"472 -204 CURVE",
"455 -188 LINE",
"421 -226 OFFCURVE",
"394 -256 OFFCURVE",
"381 -256 CURVE SMOOTH",
"375 -256 OFFCURVE",
"372 -251 OFFCURVE",
"372 -236 CURVE SMOOTH",
"372 -89 OFFCURVE",
"406 285 OFFCURVE",
"423 455 CURVE"
);
}
);
width = 485;
}
);
leftKerningGroup = n;
rightKerningGroup = n;
unicode = 0265;
},
{
glyphname = idotless;
layers = (
{
anchors = (
{
name = bottom;
position = "{133, 0}";
},
{
name = ogonek;
position = "{133, 0}";
},
{
name = top;
position = "{150, 440}";
}
);
layerId = "230F8D9C-4AAC-4C97-935A-A5529CE4A32C";
paths = (
{
closed = 1;
nodes = (
"171 9 OFFCURVE",
"240 64 OFFCURVE",
"275 109 CURVE",
"259 125 LINE",
"224 87 OFFCURVE",
"196 66 OFFCURVE",
"183 66 CURVE SMOOTH",
"170 66 OFFCURVE",
"166 84 OFFCURVE",
"166 99 CURVE SMOOTH",
"166 159 OFFCURVE",
"190 316 OFFCURVE",
"190 376 CURVE SMOOTH",
"190 409 OFFCURVE",
"186 438 OFFCURVE",
"178 455 CURVE",
"129 431 OFFCURVE",
"45 351 OFFCURVE",
"10 307 CURVE",
"26 291 LINE",
"61 328 OFFCURVE",
"102 361 OFFCURVE",
"116 361 CURVE SMOOTH",
"123 361 OFFCURVE",
"125 356 OFFCURVE",
"125 341 CURVE SMOOTH",
"125 291 OFFCURVE",
"101 134 OFFCURVE",
"101 64 CURVE SMOOTH",
"101 30 OFFCURVE",
"107 3 OFFCURVE",
"121 -15 CURVE"
);
}
);
width = 288;
}
);
leftKerningGroup = i;
rightKerningGroup = i;
unicode = 0131;
},
{
glyphname = iogonek;
layers = (
{
anchors = (
{
name = bottom;
position = "{113, 0}";
},
{
name = ogonek;
position = "{133, 0}";
},
{
name = top;
position = "{150, 455}";
}
);
layerId = "230F8D9C-4AAC-4C97-935A-A5529CE4A32C";
paths = (
{
closed = 1;
nodes = (
"193 575 OFFCURVE",
"223 602 OFFCURVE",
"223 633 CURVE SMOOTH",
"223 651 OFFCURVE",
"213 665 OFFCURVE",
"192 665 CURVE SMOOTH",
"163 665 OFFCURVE",
"133 636 OFFCURVE",
"133 606 CURVE SMOOTH",
"133 588 OFFCURVE",
"143 575 OFFCURVE",
"164 575 CURVE SMOOTH"
);
},
{
closed = 1;
nodes = (
"94 -185 OFFCURVE",
"78 -175 OFFCURVE",
"78 -145 CURVE SMOOTH",
"78 -67 OFFCURVE",
"197 35 OFFCURVE",
"267 109 CURVE",
"251 125 LINE",
"220 94 LINE",
"200 76 OFFCURVE",
"184 66 OFFCURVE",
"175 66 CURVE SMOOTH",
"162 66 OFFCURVE",
"158 84 OFFCURVE",
"158 99 CURVE SMOOTH",
"158 159 OFFCURVE",
"190 316 OFFCURVE",
"190 376 CURVE SMOOTH",
"190 409 OFFCURVE",
"186 438 OFFCURVE",
"178 455 CURVE",
"129 431 OFFCURVE",
"45 351 OFFCURVE",
"10 307 CURVE",
"26 291 LINE",
"61 328 OFFCURVE",
"102 361 OFFCURVE",
"116 361 CURVE SMOOTH",
"123 361 OFFCURVE",
"125 356 OFFCURVE",
"125 341 CURVE SMOOTH",
"125 291 OFFCURVE",
"93 134 OFFCURVE",
"93 64 CURVE SMOOTH",
"93 38 OFFCURVE",
"98 17 OFFCURVE",
"126 0 CURVE",
"126 -2 LINE",
"84 -32 OFFCURVE",
"18 -104 OFFCURVE",
"18 -171 CURVE SMOOTH",
"18 -214 OFFCURVE",
"46 -235 OFFCURVE",
"80 -235 CURVE SMOOTH",
"113 -235 OFFCURVE",
"152 -215 OFFCURVE",
"188 -163 CURVE",
"171 -147 LINE",
"150 -169 OFFCURVE",
"131 -185 OFFCURVE",
"110 -185 CURVE SMOOTH"
);
}
);
width = 280;
}
);
leftKerningGroup = i;
leftMetricsKey = "=i";
rightKerningGroup = i;
rightMetricsKey = "=i";
unicode = 012F;
},
{
glyphname = istroke;
layers = (
{
anchors = (
{
name = bottom;
position = "{133, 0}";
},
{
name = ogonek;
position = "{133, 0}";
},
{
name = top;
position = "{192, 621}";
}
);
layerId = "230F8D9C-4AAC-4C97-935A-A5529CE4A32C";
paths = (
{
closed = 1;
nodes = (
"171 9 OFFCURVE",
"240 64 OFFCURVE",
"275 109 CURVE",
"259 125 LINE",
"224 87 OFFCURVE",
"196 66 OFFCURVE",
"183 66 CURVE SMOOTH",
"170 66 OFFCURVE",
"166 84 OFFCURVE",
"166 99 CURVE SMOOTH",
"166 159 OFFCURVE",
"190 316 OFFCURVE",
"190 376 CURVE SMOOTH",
"190 409 OFFCURVE",
"186 438 OFFCURVE",
"178 455 CURVE",
"129 431 OFFCURVE",
"45 351 OFFCURVE",
"10 307 CURVE",
"26 291 LINE",
"61 328 OFFCURVE",
"102 361 OFFCURVE",
"116 361 CURVE SMOOTH",
"123 361 OFFCURVE",
"125 356 OFFCURVE",
"125 341 CURVE SMOOTH",
"125 291 OFFCURVE",
"101 134 OFFCURVE",
"101 64 CURVE SMOOTH",
"101 30 OFFCURVE",
"107 3 OFFCURVE",
"121 -15 CURVE"
);
},
{
closed = 1;
nodes = (
"194 560 OFFCURVE",
"225 588 OFFCURVE",
"225 621 CURVE SMOOTH",
"225 640 OFFCURVE",
"215 654 OFFCURVE",
"193 654 CURVE SMOOTH",
"162 654 OFFCURVE",
"131 624 OFFCURVE",
"131 593 CURVE SMOOTH",
"131 574 OFFCURVE",
"141 560 OFFCURVE",
"163 560 CURVE SMOOTH"
);
},
{
closed = 1;
nodes = (
"258.39 253 LINE",
"33 253 LINE",
"33 218 LINE",
"258.39 218 LINE"
);
}
);
width = 288;
}
);
leftKerningGroup = i;
rightKerningGroup = i;
unicode = 0268;
},
{
glyphname = jdotless;
layers = (
{
anchors = (
{
name = bottom;
position = "{129, 0}";
},
{
name = top;
position = "{148, 440}";
}
);
layerId = "230F8D9C-4AAC-4C97-935A-A5529CE4A32C";
paths = (
{
closed = 1;
nodes = (
"82 -233 OFFCURVE",
"149 -141 OFFCURVE",
"159 -15 CURVE SMOOTH",
"164 45 OFFCURVE",
"188 316 OFFCURVE",
"188 376 CURVE SMOOTH",
"188 409 OFFCURVE",
"184 438 OFFCURVE",
"176 455 CURVE",
"127 431 OFFCURVE",
"43 351 OFFCURVE",
"8 307 CURVE",
"24 291 LINE",
"59 328 OFFCURVE",
"100 361 OFFCURVE",
"114 361 CURVE SMOOTH",
"121 361 OFFCURVE",
"123 356 OFFCURVE",
"123 341 CURVE SMOOTH",
"123 291 OFFCURVE",
"102 69 OFFCURVE",
"96 0 CURVE SMOOTH",
"83 -144 OFFCURVE",
"41 -205 OFFCURVE",
"-28 -212 CURVE",
"-28 -235 LINE"
);
}
);
width = 248;
}
);
leftKerningGroup = i;
rightKerningGroup = i;
unicode = 0237;
},
{
glyphname = jcrossedtail;
layers = (
{
anchors = (
{
name = bottom;
position = "{94, -233}";
},
{
name = ogonek;
position = "{82, -232}";
},
{
name = top;
position = "{148, 440}";
}
);
components = (
{
name = dotaccentcomb;
transform = "{1, 0, 0, 1, 131, -15}";
}
);
layerId = "230F8D9C-4AAC-4C97-935A-A5529CE4A32C";
paths = (
{
closed = 1;
nodes = (
"127 431 OFFCURVE",
"43 351 OFFCURVE",
"8 307 CURVE",
"24 291 LINE",
"59 328 OFFCURVE",
"100 361 OFFCURVE",
"114 361 CURVE SMOOTH",
"121 361 OFFCURVE",
"123 356 OFFCURVE",
"123 341 CURVE SMOOTH",
"123 291 OFFCURVE",
"103 69 OFFCURVE",
"96 0 CURVE SMOOTH",
"81 -149 OFFCURVE",
"33 -200 OFFCURVE",
"-8 -200 CURVE SMOOTH",
"-34 -200 OFFCURVE",
"-47 -175 OFFCURVE",
"-47 -144 CURVE SMOOTH",
"-47 -42 OFFCURVE",
"97 0 OFFCURVE",
"225 0 CURVE",
"225 23 LINE",
"84 23 OFFCURVE",
"-84 -34 OFFCURVE",
"-84 -156 CURVE SMOOTH",
"-84 -209 OFFCURVE",
"-52 -235 OFFCURVE",
"-5 -235 CURVE SMOOTH",
"83 -235 OFFCURVE",
"146 -146 OFFCURVE",
"159 -15 CURVE SMOOTH",
"165 45 OFFCURVE",
"188 316 OFFCURVE",
"188 376 CURVE SMOOTH",
"188 409 OFFCURVE",
"184 438 OFFCURVE",
"176 455 CURVE"
);
}
);
width = 248;
}
);
leftKerningGroup = i;
rightKerningGroup = i;
unicode = 029D;
},
{
glyphname = jdotlessstroke;
layers = (
{
anchors = (
{
name = bottom;
position = "{129, 0}";
},
{
name = top;
position = "{148, 440}";
}
);
layerId = "230F8D9C-4AAC-4C97-935A-A5529CE4A32C";
paths = (
{
closed = 1;
nodes = (
"82 -233 OFFCURVE",
"149 -141 OFFCURVE",
"159 -15 CURVE SMOOTH",
"164 45 OFFCURVE",
"188 316 OFFCURVE",
"188 376 CURVE SMOOTH",
"188 409 OFFCURVE",
"184 438 OFFCURVE",
"176 455 CURVE",
"127 431 OFFCURVE",
"43 351 OFFCURVE",
"8 307 CURVE",
"24 291 LINE",
"59 328 OFFCURVE",
"100 361 OFFCURVE",
"114 361 CURVE SMOOTH",
"121 361 OFFCURVE",
"123 356 OFFCURVE",
"123 341 CURVE SMOOTH",
"123 291 OFFCURVE",
"102 69 OFFCURVE",
"96 0 CURVE SMOOTH",
"83 -144 OFFCURVE",
"41 -205 OFFCURVE",
"-28 -212 CURVE",
"-28 -235 LINE"
);
},
{
closed = 1;
nodes = (
"258.39 253 LINE",
"33 253 LINE",
"33 218 LINE",
"258.39 218 LINE"
);
}
);
width = 248;
}
);
leftKerningGroup = i;
rightKerningGroup = i;
unicode = 025F;
},
{
glyphname = jdotlessstrokehook;
layers = (
{
layerId = "230F8D9C-4AAC-4C97-935A-A5529CE4A32C";
paths = (
{
closed = 1;
nodes = (
"188 759 OFFCURVE",
"122 648 OFFCURVE",
"108 440 CURVE SMOOTH",
"86 115 LINE SMOOTH",
"71 -103 OFFCURVE",
"56 -163 OFFCURVE",
"36 -163 CURVE SMOOTH",
"13 -163 OFFCURVE",
"1 -103 OFFCURVE",
"8 -38 CURVE",
"-14 -38 LINE",
"-34 -103 OFFCURVE",
"-42 -196 OFFCURVE",
"4 -235 CURVE",
"71 -204 OFFCURVE",
"137 -93 OFFCURVE",
"151 115 CURVE SMOOTH",
"173 440 LINE SMOOTH",
"188 658 OFFCURVE",
"203 718 OFFCURVE",
"223 718 CURVE SMOOTH",
"246 718 OFFCURVE",
"258 658 OFFCURVE",
"251 593 CURVE",
"273 593 LINE",
"293 658 OFFCURVE",
"301 751 OFFCURVE",
"255 790 CURVE"
);
},
{
closed = 1;
nodes = (
"242.39 253 LINE",
"17 253 LINE",
"17 218 LINE",
"242.39 218 LINE"
);
}
);
width = 239;
}
);
leftKerningGroup = l;
unicode = 0284;
},
{
glyphname = k;
layers = (
{
anchors = (
{
name = bottom;
position = "{228, 0}";
},
{
name = ogonek;
position = "{93, 0}";
},
{
name = top;
position = "{296, 750}";
}
);
layerId = "230F8D9C-4AAC-4C97-935A-A5529CE4A32C";
paths = (
{
closed = 1;
nodes = (
"411 16 OFFCURVE",
"393 21 OFFCURVE",
"309 106 CURVE SMOOTH",
"228 188 LINE",
"228 190 LINE",
"342 228 OFFCURVE",
"417 311 OFFCURVE",
"417 389 CURVE SMOOTH",
"417 427 OFFCURVE",
"399 455 OFFCURVE",
"351 455 CURVE SMOOTH",
"268 455 OFFCURVE",
"198 370 OFFCURVE",
"149 290 CURVE",
"147 290 LINE",
"162 445 OFFCURVE",
"178 603 OFFCURVE",
"178 711 CURVE SMOOTH",
"178 744 OFFCURVE",
"174 773 OFFCURVE",
"166 790 CURVE",
"116 766 OFFCURVE",
"48 689 OFFCURVE",
"13 644 CURVE",
"30 628 LINE",
"64 666 OFFCURVE",
"91 696 OFFCURVE",
"104 696 CURVE SMOOTH",
"110 696 OFFCURVE",
"113 691 OFFCURVE",
"113 676 CURVE SMOOTH",
"113 529 OFFCURVE",
"79 155 OFFCURVE",
"62 -15 CURVE",
"83 -7 OFFCURVE",
"104 -2 OFFCURVE",
"127 0 CURVE",
"127 53 OFFCURVE",
"132 116 OFFCURVE",
"139 171 CURVE",
"163 171 OFFCURVE",
"190 141 OFFCURVE",
"258 73 CURVE SMOOTH",
"312 19 OFFCURVE",
"350 -15 OFFCURVE",
"397 -15 CURVE SMOOTH",
"423 -15 OFFCURVE",
"444 -10 OFFCURVE",
"469 0 CURVE",
"463 23 LINE"
);
},
{
closed = 1;
nodes = (
"339 405 OFFCURVE",
"347 388 OFFCURVE",
"347 364 CURVE SMOOTH",
"347 295 OFFCURVE",
"280 209 OFFCURVE",
"141 194 CURVE",
"159 280 OFFCURVE",
"258 405 OFFCURVE",
"317 405 CURVE SMOOTH"
);
}
);
width = 456;
}
);
leftKerningGroup = l;
leftMetricsKey = "=h";
rightKerningGroup = k;
unicode = 006B;
},
{
glyphname = kgreenlandic;
layers = (
{
anchors = (
{
name = bottom;
position = "{228, 0}";
},
{
name = bottomright;
position = "{462, 0}";
},
{
name = ogonek;
position = "{93, 0}";
},
{
name = top;
position = "{265, 440}";
}
);
layerId = "230F8D9C-4AAC-4C97-935A-A5529CE4A32C";
paths = (
{
closed = 1;
nodes = (
"97 -7 OFFCURVE",
"118 -2 OFFCURVE",
"141 0 CURVE",
"156 143 OFFCURVE",
"172 318 OFFCURVE",
"172 376 CURVE SMOOTH",
"172 409 OFFCURVE",
"168 438 OFFCURVE",
"160 455 CURVE",
"114 429 OFFCURVE",
"68 382 OFFCURVE",
"33 339 CURVE",
"49 323 LINE",
"71 347 OFFCURVE",
"88 361 OFFCURVE",
"98 361 CURVE SMOOTH",
"105 361 OFFCURVE",
"107 356 OFFCURVE",
"107 341 CURVE SMOOTH",
"107 291 OFFCURVE",
"83 55 OFFCURVE",
"76 -15 CURVE"
);
},
{
closed = 1;
nodes = (
"402 63 OFFCURVE",
"384 51 OFFCURVE",
"371 51 CURVE SMOOTH",
"339 51 OFFCURVE",
"318 148 OFFCURVE",
"297 197 CURVE SMOOTH",
"276 247 OFFCURVE",
"232 247 OFFCURVE",
"197 247 CURVE SMOOTH",
"149 247 LINE",
"149 223 LINE",
"169 223 LINE SMOOTH",
"201 223 OFFCURVE",
"223 206 OFFCURVE",
"237 172 CURVE SMOOTH",
"261 116 OFFCURVE",
"289 4 OFFCURVE",
"328 -15 CURVE",
"370 3 OFFCURVE",
"417 38 OFFCURVE",
"454 81 CURVE",
"438 97 LINE"
);
},
{
closed = 1;
nodes = (
"316 434 OFFCURVE",
"275 253 OFFCURVE",
"149 253 CURVE",
"149 233 LINE",
"285 233 OFFCURVE",
"322 367 OFFCURVE",
"368 367 CURVE SMOOTH",
"382 367 OFFCURVE",
"384 351 OFFCURVE",
"382 305 CURVE",
"405 305 LINE",
"418 360 OFFCURVE",
"438 455 OFFCURVE",
"403 455 CURVE"
);
}
);
width = 464;
}
);
leftKerningGroup = n;
rightKerningGroup = x;
unicode = 0138;
},
{
glyphname = khook;
layers = (
{
anchors = (
{
name = bottom;
position = "{228, 0}";
},
{
name = ogonek;
position = "{93, 0}";
},
{
name = top;
position = "{296, 750}";
}
);
layerId = "230F8D9C-4AAC-4C97-935A-A5529CE4A32C";
paths = (
{
closed = 1;
nodes = (
"411 16 OFFCURVE",
"393 21 OFFCURVE",
"309 106 CURVE SMOOTH",
"228 188 LINE",
"228 190 LINE",
"342 228 OFFCURVE",
"417 311 OFFCURVE",
"417 389 CURVE SMOOTH",
"417 427 OFFCURVE",
"399 455 OFFCURVE",
"351 455 CURVE SMOOTH",
"268 455 OFFCURVE",
"198 370 OFFCURVE",
"149 290 CURVE",
"147 290 LINE",
"178 658 OFFCURVE",
"193 718 OFFCURVE",
"213 718 CURVE SMOOTH",
"236 718 OFFCURVE",
"248 658 OFFCURVE",
"241 593 CURVE",
"263 593 LINE",
"283 658 OFFCURVE",
"291 751 OFFCURVE",
"245 790 CURVE",
"96 721 OFFCURVE",
"99 339 OFFCURVE",
"62 -15 CURVE",
"83 -7 OFFCURVE",
"104 -2 OFFCURVE",
"127 0 CURVE",
"127 53 OFFCURVE",
"132 116 OFFCURVE",
"139 171 CURVE",
"163 171 OFFCURVE",
"190 141 OFFCURVE",
"258 73 CURVE SMOOTH",
"312 19 OFFCURVE",
"350 -15 OFFCURVE",
"397 -15 CURVE SMOOTH",
"423 -15 OFFCURVE",
"444 -10 OFFCURVE",
"469 0 CURVE",
"463 23 LINE"
);
},
{
closed = 1;
nodes = (
"159 280 OFFCURVE",
"258 405 OFFCURVE",
"317 405 CURVE SMOOTH",
"339 405 OFFCURVE",
"347 388 OFFCURVE",
"347 364 CURVE SMOOTH",
"347 295 OFFCURVE",
"280 209 OFFCURVE",
"141 194 CURVE"
);
}
);
width = 456;
}
);
leftKerningGroup = l;
rightKerningGroup = k;
rightMetricsKey = "=k";
unicode = 0199;
},
{
glyphname = kturned;
layers = (
{
anchors = (
{
name = bottom;
position = "{160, -310}";
},
{
name = ogonek;
position = "{363, 440}";
},
{
name = top;
position = "{228, 440}";
}
);
layerId = "230F8D9C-4AAC-4C97-935A-A5529CE4A32C";
paths = (
{
closed = 1;
nodes = (
"45 424 OFFCURVE",
"63 419 OFFCURVE",
"147 334 CURVE SMOOTH",
"228 252 LINE",
"228 250 LINE",
"114 212 OFFCURVE",
"39 129 OFFCURVE",
"39 51 CURVE SMOOTH",
"39 13 OFFCURVE",
"57 -15 OFFCURVE",
"105 -15 CURVE SMOOTH",
"188 -15 OFFCURVE",
"258 70 OFFCURVE",
"307 150 CURVE",
"309 150 LINE",
"294 -5 OFFCURVE",
"278 -163 OFFCURVE",
"278 -271 CURVE SMOOTH",
"278 -304 OFFCURVE",
"282 -333 OFFCURVE",
"290 -350 CURVE",
"340 -326 OFFCURVE",
"408 -249 OFFCURVE",
"443 -204 CURVE",
"426 -188 LINE",
"392 -226 OFFCURVE",
"365 -256 OFFCURVE",
"352 -256 CURVE SMOOTH",
"346 -256 OFFCURVE",
"343 -251 OFFCURVE",
"343 -236 CURVE SMOOTH",
"343 -89 OFFCURVE",
"377 285 OFFCURVE",
"394 455 CURVE",
"373 447 OFFCURVE",
"352 442 OFFCURVE",
"329 440 CURVE",
"329 387 OFFCURVE",
"324 324 OFFCURVE",
"317 269 CURVE",
"293 269 OFFCURVE",
"266 299 OFFCURVE",
"198 367 CURVE SMOOTH",
"144 421 OFFCURVE",
"106 455 OFFCURVE",
"59 455 CURVE SMOOTH",
"33 455 OFFCURVE",
"12 450 OFFCURVE",
"-13 440 CURVE",
"-7 417 LINE"
);
},
{
closed = 1;
nodes = (
"117 35 OFFCURVE",
"109 52 OFFCURVE",
"109 76 CURVE SMOOTH",
"109 145 OFFCURVE",
"176 231 OFFCURVE",
"315 246 CURVE",
"297 160 OFFCURVE",
"198 35 OFFCURVE",
"139 35 CURVE SMOOTH"
);
}
);
width = 456;
}
);
leftKerningGroup = x;
rightKerningGroup = n;
unicode = 029E;
},
{
glyphname = l;
layers = (
{
anchors = (
{
name = bottom;
position = "{115, 0}";
},
{
name = center;
position = "{142, 259}";
},
{
name = ogonek;
position = "{113, 0}";
},
{
name = top;
position = "{166, 750}";
},
{
name = topright;
position = "{249, 440}";
}
);
layerId = "230F8D9C-4AAC-4C97-935A-A5529CE4A32C";
paths = (
{
closed = 1;
nodes = (
"147 9 OFFCURVE",
"216 64 OFFCURVE",
"251 109 CURVE",
"235 125 LINE",
"200 87 OFFCURVE",
"172 66 OFFCURVE",
"159 66 CURVE SMOOTH",
"146 66 OFFCURVE",
"142 84 OFFCURVE",
"142 99 CURVE SMOOTH",
"142 259 OFFCURVE",
"183 554 OFFCURVE",
"183 711 CURVE SMOOTH",
"183 744 OFFCURVE",
"179 773 OFFCURVE",
"171 790 CURVE",
"121 766 OFFCURVE",
"53 689 OFFCURVE",
"18 644 CURVE",
"35 628 LINE",
"69 666 OFFCURVE",
"96 696 OFFCURVE",
"109 696 CURVE SMOOTH",
"115 696 OFFCURVE",
"118 691 OFFCURVE",
"118 676 CURVE SMOOTH",
"118 529 OFFCURVE",
"77 234 OFFCURVE",
"77 64 CURVE SMOOTH",
"77 30 OFFCURVE",
"83 3 OFFCURVE",
"97 -15 CURVE"
);
}
);
width = 264;
}
);
leftKerningGroup = l;
rightKerningGroup = l;
rightMetricsKey = "=i";
unicode = 006C;
},
{
glyphname = lbelt;
layers = (
{
components = (
{
name = l;
}
);
layerId = "230F8D9C-4AAC-4C97-935A-A5529CE4A32C";
paths = (
{
closed = 1;
nodes = (
"247 287 LINE",
"146 291 OFFCURVE",
"30 298 OFFCURVE",
"36 376 CURVE",
"38 416 OFFCURVE",
"69 439 OFFCURVE",
"117 443 CURVE",
"121 500 LINE",
"64 490 OFFCURVE",
"5 454 OFFCURVE",
"0 386 CURVE",
"-8 274 OFFCURVE",
"123 264 OFFCURVE",
"246 264 CURVE"
);
}
);
width = 264;
}
);
leftKerningGroup = l;
rightKerningGroup = l;
unicode = 026C;
},
{
glyphname = lezh;
layers = (
{
layerId = "230F8D9C-4AAC-4C97-935A-A5529CE4A32C";
paths = (
{
closed = 1;
nodes = (
"531 455 LINE",
"508 455 LINE",
"501 440 OFFCURVE",
"486 426 OFFCURVE",
"448 426 CURVE SMOOTH",
"346 426 OFFCURVE",
"214 468 OFFCURVE",
"164 445 CURVE",
"175 551 OFFCURVE",
"183 649 OFFCURVE",
"183 711 CURVE SMOOTH",
"183 744 OFFCURVE",
"179 773 OFFCURVE",
"171 790 CURVE",
"121 766 OFFCURVE",
"53 689 OFFCURVE",
"18 644 CURVE",
"35 628 LINE",
"69 666 OFFCURVE",
"96 696 OFFCURVE",
"109 696 CURVE SMOOTH",
"115 696 OFFCURVE",
"118 691 OFFCURVE",
"118 676 CURVE SMOOTH",
"118 529 OFFCURVE",
"63 155 OFFCURVE",
"63 -15 CURVE",
"84 -7 OFFCURVE",
"105 -2 OFFCURVE",
"128 0 CURVE",
"128 82 OFFCURVE",
"143 224 OFFCURVE",
"156 365 CURVE SMOOTH",
"158 388 OFFCURVE",
"175 395 OFFCURVE",
"194 395 CURVE SMOOTH",
"282 395 OFFCURVE",
"338 359 OFFCURVE",
"449 375 CURVE",
"449 373 LINE"
);
},
{
closed = 1;
nodes = (
"274 133 LINE",
"288 143 OFFCURVE",
"301 147 OFFCURVE",
"312 147 CURVE SMOOTH",
"348 147 OFFCURVE",
"404 126 OFFCURVE",
"404 21 CURVE SMOOTH",
"404 -86 OFFCURVE",
"339 -185 OFFCURVE",
"249 -185 CURVE SMOOTH",
"215 -185 OFFCURVE",
"186 -167 OFFCURVE",
"186 -128 CURVE SMOOTH",
"186 -116 OFFCURVE",
"189 -99 OFFCURVE",
"198 -80 CURVE",
"177 -72 LINE",
"121 -170 LINE",
"138 -195 OFFCURVE",
"184 -220 OFFCURVE",
"233 -220 CURVE SMOOTH",
"353 -220 OFFCURVE",
"474 -104 OFFCURVE",
"474 46 CURVE SMOOTH",
"474 178 OFFCURVE",
"395 208 OFFCURVE",
"336 208 CURVE SMOOTH",
"325 208 OFFCURVE",
"315 206 OFFCURVE",
"304 203 CURVE"
);
},
{
closed = 1;
nodes = (
"420 313 OFFCURVE",
"510 351 OFFCURVE",
"531 455 CURVE",
"449 373 LINE",
"387 294 OFFCURVE",
"311 255 OFFCURVE",
"253 141 CURVE",
"274 133 LINE"
);
}
);
width = 546;
}
);
leftKerningGroup = l;
leftMetricsKey = "=l";
rightKerningGroup = n;
rightMetricsKey = "=ezh";
unicode = 026E;
},
{
glyphname = lhookretroflex;
layers = (
{
layerId = "230F8D9C-4AAC-4C97-935A-A5529CE4A32C";
paths = (
{
closed = 1;
nodes = (
"117 -211 OFFCURVE",
"186 -156 OFFCURVE",
"221 -111 CURVE",
"205 -95 LINE",
"170 -133 OFFCURVE",
"142 -154 OFFCURVE",
"129 -154 CURVE SMOOTH",
"116 -154 OFFCURVE",
"112 -136 OFFCURVE",
"112 -121 CURVE SMOOTH",
"112 139 OFFCURVE",
"183 454 OFFCURVE",
"183 711 CURVE SMOOTH",
"183 744 OFFCURVE",
"179 773 OFFCURVE",
"171 790 CURVE",
"121 766 OFFCURVE",
"53 689 OFFCURVE",
"18 644 CURVE",
"35 628 LINE",
"69 666 OFFCURVE",
"96 696 OFFCURVE",
"109 696 CURVE SMOOTH",
"115 696 OFFCURVE",
"118 691 OFFCURVE",
"118 676 CURVE SMOOTH",
"118 429 OFFCURVE",
"47 114 OFFCURVE",
"47 -156 CURVE SMOOTH",
"47 -190 OFFCURVE",
"53 -217 OFFCURVE",
"67 -235 CURVE"
);
}
);
width = 249;
}
);
leftKerningGroup = l;
leftMetricsKey = "=l";
rightKerningGroup = l;
rightMetricsKey = "=l";
unicode = 026D;
},
{
glyphname = lsdigraph;
layers = (
{
anchors = (
{
name = bottom;
position = "{410, 0}";
},
{
name = center;
position = "{142, 259}";
},
{
name = ogonek;
position = "{418, 0}";
},
{
name = top;
position = "{470, 440}";
},
{
name = topright;
position = "{249, 440}";
}
);
layerId = "230F8D9C-4AAC-4C97-935A-A5529CE4A32C";
paths = (
{
closed = 1;
nodes = (
"270 308 OFFCURVE",
"262 318 OFFCURVE",
"262 340 CURVE SMOOTH",
"262 386 OFFCURVE",
"298 422 OFFCURVE",
"349 422 CURVE SMOOTH",
"398 422 OFFCURVE",
"451 389 OFFCURVE",
"418 324 CURVE",
"438 314 LINE",
"485 395 LINE",
"456 437 OFFCURVE",
"412 455 OFFCURVE",
"366 455 CURVE SMOOTH",
"276 455 OFFCURVE",
"202 372 OFFCURVE",
"202 317 CURVE SMOOTH",
"202 270 OFFCURVE",
"257 241 OFFCURVE",
"313 213 CURVE SMOOTH",
"388 175 OFFCURVE",
"409 158 OFFCURVE",
"409 123 CURVE SMOOTH",
"409 60 OFFCURVE",
"332 35 OFFCURVE",
"250 35 CURVE SMOOTH",
"177 35 OFFCURVE",
"142 64 OFFCURVE",
"142 149 CURVE SMOOTH",
"142 239 OFFCURVE",
"183 554 OFFCURVE",
"183 711 CURVE SMOOTH",
"183 744 OFFCURVE",
"179 773 OFFCURVE",
"171 790 CURVE",
"121 766 OFFCURVE",
"53 689 OFFCURVE",
"18 644 CURVE",
"35 628 LINE",
"69 666 OFFCURVE",
"96 696 OFFCURVE",
"109 696 CURVE SMOOTH",
"115 696 OFFCURVE",
"118 691 OFFCURVE",
"118 676 CURVE SMOOTH",
"118 529 OFFCURVE",
"77 214 OFFCURVE",
"77 124 CURVE SMOOTH",
"77 40 OFFCURVE",
"110 -15 OFFCURVE",
"230 -15 CURVE SMOOTH",
"342 -15 OFFCURVE",
"459 59 OFFCURVE",
"459 163 CURVE SMOOTH",
"459 209 OFFCURVE",
"438 223 OFFCURVE",
"347 269 CURVE SMOOTH"
);
}
);
width = 510;
}
);
leftKerningGroup = l;
leftMetricsKey = "=l";
rightKerningGroup = o;
rightMetricsKey = "=s";
unicode = 02AA;
},
{
glyphname = lslash;
layers = (
{
components = (
{
name = l;
transform = "{1, 0, 0, 1, 29, 0}";
}
);
layerId = "230F8D9C-4AAC-4C97-935A-A5529CE4A32C";
paths = (
{
closed = 1;
nodes = (
"33 291 LINE",
"33 249 LINE",
"286 452 LINE",
"286 495 LINE"
);
}
);
width = 309;
}
);
leftKerningGroup = lslash;
rightKerningGroup = lslash;
unicode = 0142;
},
{
glyphname = lzdigraph;
layers = (
{
anchors = (
{
name = bottom;
position = "{115, 0}";
},
{
name = center;
position = "{142, 259}";
},
{
name = ogonek;
position = "{113, 0}";
},
{
name = top;
position = "{166, 750}";
},
{
name = topright;
position = "{249, 440}";
}
);
layerId = "230F8D9C-4AAC-4C97-935A-A5529CE4A32C";
paths = (
{
closed = 1;
nodes = (
"484 85 OFFCURVE",
"474 55 OFFCURVE",
"442 55 CURVE SMOOTH",
"402 55 OFFCURVE",
"340 94 OFFCURVE",
"286 94 CURVE SMOOTH",
"278 94 OFFCURVE",
"263 93 OFFCURVE",
"255 90 CURVE",
"255 92 LINE",
"333 213 OFFCURVE",
"508 340 OFFCURVE",
"531 455 CURVE",
"508 455 LINE",
"501 440 OFFCURVE",
"486 426 OFFCURVE",
"448 426 CURVE SMOOTH",
"346 426 OFFCURVE",
"214 468 OFFCURVE",
"164 445 CURVE",
"175 551 OFFCURVE",
"183 649 OFFCURVE",
"183 711 CURVE SMOOTH",
"183 744 OFFCURVE",
"179 773 OFFCURVE",
"171 790 CURVE",
"121 766 OFFCURVE",
"53 689 OFFCURVE",
"18 644 CURVE",
"35 628 LINE",
"69 666 OFFCURVE",
"96 696 OFFCURVE",
"109 696 CURVE SMOOTH",
"115 696 OFFCURVE",
"118 691 OFFCURVE",
"118 676 CURVE SMOOTH",
"118 529 OFFCURVE",
"63 155 OFFCURVE",
"63 -15 CURVE",
"84 -7 OFFCURVE",
"105 -2 OFFCURVE",
"128 0 CURVE",
"128 82 OFFCURVE",
"143 224 OFFCURVE",
"156 365 CURVE SMOOTH",
"158 388 OFFCURVE",
"175 395 OFFCURVE",
"194 395 CURVE SMOOTH",
"282 395 OFFCURVE",
"338 359 OFFCURVE",
"449 375 CURVE",
"449 373 LINE",
"364 248 OFFCURVE",
"191 120 OFFCURVE",
"171 0 CURVE",
"196 0 LINE",
"200 22 OFFCURVE",
"215 46 OFFCURVE",
"249 46 CURVE SMOOTH",
"292 46 OFFCURVE",
"376 -15 OFFCURVE",
"457 -15 CURVE SMOOTH",
"499 -15 OFFCURVE",
"510 16 OFFCURVE",
"510 53 CURVE SMOOTH",
"510 75 OFFCURVE",
"506 99 OFFCURVE",
"501 120 CURVE",
"478 120 LINE"
);
}
);
width = 544;
}
);
leftKerningGroup = l;
leftMetricsKey = "=l";
rightKerningGroup = n;
rightMetricsKey = "=z";
unicode = 02AB;
},
{
glyphname = m;
layers = (
{
anchors = (
{
name = bottom;
position = "{348, 0}";
},
{
name = ogonek;
position = "{343, 0}";
},
{
name = top;
position = "{398, 440}";
}
);
layerId = "230F8D9C-4AAC-4C97-935A-A5529CE4A32C";
paths = (
{
closed = 1;
nodes = (
"97 -7 OFFCURVE",
"118 -2 OFFCURVE",
"141 0 CURVE",
"141 118 OFFCURVE",
"182 198 OFFCURVE",
"222 264 CURVE SMOOTH",
"265 335 OFFCURVE",
"304 379 OFFCURVE",
"325 379 CURVE SMOOTH",
"335 379 OFFCURVE",
"339 369 OFFCURVE",
"339 341 CURVE SMOOTH",
"339 291 OFFCURVE",
"316 55 OFFCURVE",
"308 -15 CURVE",
"329 -7 OFFCURVE",
"350 -2 OFFCURVE",
"373 0 CURVE",
"373 118 OFFCURVE",
"415 198 OFFCURVE",
"455 264 CURVE SMOOTH",
"498 335 OFFCURVE",
"537 379 OFFCURVE",
"558 379 CURVE SMOOTH",
"568 379 OFFCURVE",
"572 369 OFFCURVE",
"572 341 CURVE SMOOTH",
"572 291 OFFCURVE",
"548 134 OFFCURVE",
"548 64 CURVE SMOOTH",
"548 30 OFFCURVE",
"554 3 OFFCURVE",
"568 -15 CURVE",
"612 6 OFFCURVE",
"669 49 OFFCURVE",
"707 92 CURVE",
"690 108 LINE",
"665 83 OFFCURVE",
"643 66 OFFCURVE",
"630 66 CURVE SMOOTH",
"617 66 OFFCURVE",
"613 84 OFFCURVE",
"613 99 CURVE SMOOTH",
"613 159 OFFCURVE",
"637 316 OFFCURVE",
"637 376 CURVE SMOOTH",
"637 411 OFFCURVE",
"628 440 OFFCURVE",
"609 455 CURVE",
"547 440 OFFCURVE",
"459 353 OFFCURVE",
"388 208 CURVE",
"386 208 LINE",
"397 276 OFFCURVE",
"404 324 OFFCURVE",
"404 376 CURVE SMOOTH",
"404 411 OFFCURVE",
"395 440 OFFCURVE",
"376 455 CURVE",
"314 440 OFFCURVE",
"227 353 OFFCURVE",
"156 208 CURVE",
"154 208 LINE",
"165 276 OFFCURVE",
"172 324 OFFCURVE",
"172 376 CURVE SMOOTH",
"172 409 OFFCURVE",
"168 438 OFFCURVE",
"160 455 CURVE",
"114 429 OFFCURVE",
"68 382 OFFCURVE",
"33 339 CURVE",
"49 323 LINE",
"71 347 OFFCURVE",
"88 361 OFFCURVE",
"98 361 CURVE SMOOTH",
"105 361 OFFCURVE",
"107 356 OFFCURVE",
"107 341 CURVE SMOOTH",
"107 291 OFFCURVE",
"83 55 OFFCURVE",
"76 -15 CURVE"
);
}
);
width = 729;
}
);
leftKerningGroup = n;
leftMetricsKey = "=n";
rightKerningGroup = n;
rightMetricsKey = "=n";
unicode = 006D;
},
{
glyphname = mhook;
layers = (
{
anchors = (
{
name = bottom;
position = "{348, 0}";
},
{
name = ogonek;
position = "{343, 0}";
},
{
name = top;
position = "{398, 440}";
}
);
layerId = "230F8D9C-4AAC-4C97-935A-A5529CE4A32C";
paths = (
{
closed = 1;
nodes = (
"97 -7 OFFCURVE",
"118 -2 OFFCURVE",
"141 0 CURVE",
"141 118 OFFCURVE",
"182 198 OFFCURVE",
"222 264 CURVE SMOOTH",
"265 335 OFFCURVE",
"304 379 OFFCURVE",
"325 379 CURVE SMOOTH",
"335 379 OFFCURVE",
"339 369 OFFCURVE",
"339 341 CURVE SMOOTH",
"339 291 OFFCURVE",
"316 55 OFFCURVE",
"308 -15 CURVE",
"329 -7 OFFCURVE",
"350 -2 OFFCURVE",
"373 0 CURVE",
"373 118 OFFCURVE",
"415 198 OFFCURVE",
"455 264 CURVE SMOOTH",
"498 335 OFFCURVE",
"537 379 OFFCURVE",
"558 379 CURVE SMOOTH",
"568 379 OFFCURVE",
"572 369 OFFCURVE",
"572 341 CURVE",
"637 376 LINE",
"637 411 OFFCURVE",
"628 440 OFFCURVE",
"609 455 CURVE",
"547 440 OFFCURVE",
"459 353 OFFCURVE",
"388 208 CURVE",
"386 208 LINE",
"397 276 OFFCURVE",
"404 324 OFFCURVE",
"404 376 CURVE SMOOTH",
"404 411 OFFCURVE",
"395 440 OFFCURVE",
"376 455 CURVE",
"314 440 OFFCURVE",
"227 353 OFFCURVE",
"156 208 CURVE",
"154 208 LINE",
"165 276 OFFCURVE",
"172 324 OFFCURVE",
"172 376 CURVE SMOOTH",
"172 409 OFFCURVE",
"168 438 OFFCURVE",
"160 455 CURVE",
"114 429 OFFCURVE",
"68 382 OFFCURVE",
"33 339 CURVE",
"49 323 LINE",
"71 347 OFFCURVE",
"88 361 OFFCURVE",
"98 361 CURVE SMOOTH",
"105 361 OFFCURVE",
"107 356 OFFCURVE",
"107 341 CURVE SMOOTH",
"107 291 OFFCURVE",
"83 55 OFFCURVE",
"76 -15 CURVE"
);
},
{
closed = 1;
nodes = (
"637 -71 OFFCURVE",
"536 -204 OFFCURVE",
"469 -235 CURVE",
"423 -196 OFFCURVE",
"431 -103 OFFCURVE",
"451 -38 CURVE",
"473 -38 LINE",
"466 -103 OFFCURVE",
"478 -163 OFFCURVE",
"501 -163 CURVE SMOOTH",
"521 -163 OFFCURVE",
"572 9 OFFCURVE",
"572 341 CURVE",
"637 376 LINE"
);
}
);
width = 701;
}
);
leftKerningGroup = n;
leftMetricsKey = "=m";
rightKerningGroup = n;
rightMetricsKey = "=eng";
unicode = 0271;
},
{
glyphname = mlonglegturned;
layers = (
{
anchors = (
{
name = bottom;
position = "{343, 0}";
},
{
name = ogonek;
position = "{398, 440}";
},
{
name = top;
position = "{393, 440}";
}
);
layerId = "230F8D9C-4AAC-4C97-935A-A5529CE4A32C";
paths = (
{
closed = 1;
nodes = (
"644 447 OFFCURVE",
"623 442 OFFCURVE",
"600 440 CURVE",
"600 322 OFFCURVE",
"559 242 OFFCURVE",
"519 176 CURVE SMOOTH",
"476 105 OFFCURVE",
"437 61 OFFCURVE",
"416 61 CURVE SMOOTH",
"406 61 OFFCURVE",
"402 71 OFFCURVE",
"402 99 CURVE SMOOTH",
"402 149 OFFCURVE",
"425 385 OFFCURVE",
"433 455 CURVE",
"412 447 OFFCURVE",
"391 442 OFFCURVE",
"368 440 CURVE",
"368 322 OFFCURVE",
"326 242 OFFCURVE",
"286 176 CURVE SMOOTH",
"243 105 OFFCURVE",
"204 61 OFFCURVE",
"183 61 CURVE SMOOTH",
"173 61 OFFCURVE",
"169 71 OFFCURVE",
"169 99 CURVE SMOOTH",
"169 149 OFFCURVE",
"193 306 OFFCURVE",
"193 376 CURVE SMOOTH",
"193 410 OFFCURVE",
"187 437 OFFCURVE",
"173 455 CURVE",
"129 434 OFFCURVE",
"72 391 OFFCURVE",
"34 348 CURVE",
"51 332 LINE",
"76 357 OFFCURVE",
"98 374 OFFCURVE",
"111 374 CURVE SMOOTH",
"124 374 OFFCURVE",
"128 356 OFFCURVE",
"128 341 CURVE SMOOTH",
"128 281 OFFCURVE",
"104 124 OFFCURVE",
"104 64 CURVE SMOOTH",
"104 29 OFFCURVE",
"113 0 OFFCURVE",
"132 -15 CURVE",
"194 0 OFFCURVE",
"282 87 OFFCURVE",
"353 232 CURVE",
"355 232 LINE",
"344 164 OFFCURVE",
"337 116 OFFCURVE",
"337 64 CURVE SMOOTH",
"337 29 OFFCURVE",
"346 0 OFFCURVE",
"365 -15 CURVE",
"427 0 OFFCURVE",
"514 87 OFFCURVE",
"585 232 CURVE",
"587 232 LINE",
"576 164 OFFCURVE",
"549 -104 OFFCURVE",
"549 -156 CURVE SMOOTH",
"549 -189 OFFCURVE",
"553 -218 OFFCURVE",
"561 -235 CURVE",
"607 -209 OFFCURVE",
"653 -162 OFFCURVE",
"688 -119 CURVE",
"672 -103 LINE",
"650 -127 OFFCURVE",
"633 -141 OFFCURVE",
"623 -141 CURVE SMOOTH",
"616 -141 OFFCURVE",
"609 -136 OFFCURVE",
"609 -111 CURVE SMOOTH",
"609 39 OFFCURVE",
"658 325 OFFCURVE",
"665 455 CURVE"
);
}
);
width = 725;
}
);
leftKerningGroup = n;
leftMetricsKey = "=n";
rightKerningGroup = n;
rightMetricsKey = "=n";
unicode = 0270;
},
{
glyphname = mmiddletilde;
layers = (
{
components = (
{
name = m;
transform = "{1, 0, 0, 1, 4, 0}";
}
);
layerId = "230F8D9C-4AAC-4C97-935A-A5529CE4A32C";
paths = (
{
closed = 1;
nodes = (
"250 204 OFFCURVE",
"429 145 OFFCURVE",
"589 145 CURVE SMOOTH",
"634 145 OFFCURVE",
"670 171 OFFCURVE",
"693 254 CURVE",
"671 259 LINE",
"654 217 OFFCURVE",
"635 200 OFFCURVE",
"607 200 CURVE SMOOTH",
"463 200 OFFCURVE",
"284 259 OFFCURVE",
"124 259 CURVE SMOOTH",
"79 259 OFFCURVE",
"43 233 OFFCURVE",
"20 150 CURVE",
"42 145 LINE",
"59 187 OFFCURVE",
"78 204 OFFCURVE",
"106 204 CURVE SMOOTH"
);
}
);
width = 733;
}
);
leftKerningGroup = n;
leftMetricsKey = "=m";
rightKerningGroup = n;
rightMetricsKey = "=m";
unicode = 1D6F;
},
